<?xml version="1.0" standalone="no"?>
<!DOCTYPE svg PUBLIC "-//W3C//DTD SVG 20010904//EN"
 "http://www.w3.org/TR/2001/REC-SVG-20010904/DTD/svg10.dtd">
<svg version="1.0" xmlns="http://www.w3.org/2000/svg"
 width="864.000000pt" height="864.000000pt" viewBox="0 0 864.000000 864.000000"
 preserveAspectRatio="xMidYMid meet">
<metadata>
Created by potrace 1.14, written by Peter Selinger 2001-2017
</metadata>
<g transform="translate(0.000000,864.000000) scale(0.100000,-0.100000)"
fill="#000000" stroke="none">
<path d="M2283 6888 c-41 -11 -90 -60 -101 -101 -5 -18 -8 -662 -8 -1432 1
-1567 -6 -1422 72 -1482 l37 -28 2081 0 c1956 1 2083 2 2114 18 17 10 44 35
58 57 l27 40 0 1398 c0 1071 -3 1406 -12 1434 -13 39 -70 97 -99 100 -70 6
-4144 3 -4169 -4z m4068 -307 c18 -22 19 -64 19 -1226 0 -1169 -1 -1203 -19
-1226 l-19 -24 -1968 0 -1968 0 -24 20 -24 21 0 1207 c0 1124 1 1210 17 1227
9 10 27 20 39 22 11 2 900 3 1975 3 l1953 -1 19 -23z"/>
<path d="M4757 6423 c-2 -1 -1721 -15 -1840 -14 -54 0 -58 -2 -73 -31 -47 -91
-50 -322 -5 -424 11 -24 26 -44 33 -45 42 -3 1288 -19 1873 -23 393 -4 484 -2
506 9 19 10 225 143 246 159 1 1 -5 22 -13 46 -18 53 -17 179 2 228 12 29 11
34 -4 39 -9 3 -44 17 -77 31 -60 26 -62 26 -353 26 -162 1 -294 0 -295 -1z
m-1615 -125 c2 -7 4 -76 3 -153 l-1 -140 -107 -3 c-82 -2 -107 0 -108 10 0 22
-1 231 0 266 l1 32 104 0 c74 0 105 -4 108 -12z"/>
<path d="M5528 5933 c-3 -8 -18 -16 -143 -81 -27 -14 -52 -28 -55 -31 -3 -4
-25 -16 -50 -28 -45 -22 -46 -22 -522 -18 -263 2 -482 6 -487 10 -5 3 -12 1
-16 -5 -4 -6 -11 -8 -16 -4 -5 3 -189 7 -409 8 -418 3 -410 4 -394 -38 6 -14
94 -16 894 -16 839 0 945 -3 885 -26 -9 -4 -408 -7 -888 -8 -760 -1 -872 -3
-869 -16 2 -8 5 -37 7 -65 1 -27 3 -53 4 -56 1 -3 397 -6 881 -6 484 0 883 -2
886 -6 25 -25 -43 -27 -889 -27 l-882 0 -1 -53 c-1 -28 -4 -70 -7 -92 l-5 -40
884 1 c808 1 884 0 884 -15 0 -15 -76 -16 -888 -16 l-889 0 -24 -22 c-13 -13
-19 -23 -14 -24 6 -1 421 -2 924 -3 l913 -1 34 24 c19 13 34 28 34 33 0 4 4 8
10 8 5 0 19 10 32 23 13 12 47 42 77 67 118 99 162 154 145 181 -3 6 -2 15 4
22 9 12 8 186 -2 246 -5 30 -30 81 -40 81 -3 0 -6 -3 -8 -7z"/>
<path d="M3286 5402 c-4 -3 -37 -10 -86 -18 -19 -3 -53 -9 -75 -14 -22 -4 -47
-8 -55 -8 -8 0 -51 -7 -95 -16 -44 -8 -98 -17 -120 -21 -22 -4 -47 -8 -55 -10
-8 -2 -22 -4 -31 -4 -26 -1 -47 -58 -45 -117 3 -60 27 -103 59 -105 44 -3 82
-7 82 -9 0 -1 14 -4 30 -5 99 -10 143 -15 165 -19 14 -3 50 -8 80 -10 30 -3
88 -10 128 -16 39 -5 75 -9 80 -9 4 1 9 0 12 -1 3 -1 16 -3 30 -5 23 -2 85
-10 180 -22 19 -2 49 -6 65 -7 17 -2 55 -7 85 -11 67 -9 90 -12 157 -19 29 -3
67 -8 85 -10 18 -2 58 -7 88 -11 93 -11 124 -14 160 -20 19 -3 60 -7 90 -10
30 -2 66 -6 80 -9 14 -3 56 -8 94 -11 37 -3 71 -7 75 -9 3 -2 38 -7 76 -10 39
-4 86 -9 105 -12 93 -13 221 -27 250 -27 14 0 36 3 50 6 95 23 159 39 186 47
17 6 40 10 52 10 11 0 24 5 27 10 4 6 10 8 14 6 3 -3 37 4 73 14 37 10 69 16
72 12 3 -3 6 0 6 7 0 7 5 9 10 6 6 -3 16 -3 23 2 6 4 17 8 22 9 23 3 241 56
255 61 8 4 19 5 24 4 4 -1 14 4 22 10 8 6 14 9 14 6 0 -2 30 3 68 12 62 16 68
20 78 52 14 41 9 129 -9 146 -6 6 -28 14 -47 18 -47 8 -70 12 -100 19 -14 3
-41 9 -60 12 -19 4 -42 8 -50 10 -8 1 -73 15 -144 29 l-130 26 -95 -99 c-91
-93 -131 -124 -131 -101 0 6 -5 7 -12 2 -7 -4 -58 -9 -113 -10 -55 -1 -172 -4
-260 -8 -234 -9 -478 -16 -575 -16 -89 -1 -174 6 -335 26 -51 6 -128 15 -180
19 -23 2 -65 7 -95 11 -30 4 -73 9 -95 11 -176 16 -203 19 -211 27 -4 3 -1 28
5 54 6 26 13 58 16 70 2 12 9 31 15 42 10 19 8 20 -36 18 -25 -1 -47 -3 -48
-5z"/>
<path d="M3157 4922 c-8 -9 -19 -38 -24 -63 -16 -76 -4 -260 17 -267 5 -2 7
-9 4 -16 -3 -7 8 -19 23 -26 15 -8 35 -20 45 -28 9 -7 22 -14 30 -16 7 -1 18
-5 24 -8 6 -4 46 -26 90 -49 43 -23 108 -58 144 -77 209 -111 328 -171 332
-167 3 3 23 6 46 7 23 1 42 5 42 9 0 4 10 7 23 7 12 -1 40 2 62 6 22 4 54 9
70 11 17 3 39 6 50 9 11 2 43 7 70 11 63 9 80 12 129 20 21 4 50 8 65 10 14 2
26 5 26 6 0 1 11 3 25 5 79 9 110 14 157 23 29 6 71 13 95 16 52 7 83 13 83
15 0 1 11 3 25 5 42 5 104 14 130 19 14 3 43 8 65 11 23 3 52 8 65 10 53 11
102 19 175 30 17 2 41 6 55 9 14 3 70 12 125 20 55 9 111 18 125 21 14 3 41 7
60 10 19 3 46 7 60 10 14 2 41 7 60 9 19 3 46 7 60 10 14 3 41 7 60 10 19 3
44 7 55 10 20 4 107 17 135 20 9 1 21 6 28 10 22 13 -6 37 -37 30 -14 -3 -33
-6 -41 -6 -8 0 -37 -4 -65 -9 -27 -5 -65 -11 -85 -14 -19 -3 -46 -7 -60 -10
-14 -3 -43 -7 -65 -10 -90 -12 -101 -14 -185 -30 -14 -3 -45 -7 -70 -10 -25
-3 -67 -10 -95 -15 -67 -12 -112 -20 -160 -25 -22 -3 -51 -7 -65 -10 -31 -7
-86 -15 -125 -20 -16 -1 -70 -10 -120 -18 -49 -9 -108 -18 -130 -22 -39 -5
-134 -21 -185 -29 -14 -3 -44 -7 -67 -10 -22 -3 -52 -7 -65 -10 -25 -6 -81
-15 -138 -22 -19 -2 -62 -9 -95 -15 -33 -6 -69 -12 -80 -14 -11 -1 -40 -6 -65
-10 -62 -10 -77 -12 -140 -20 -30 -4 -58 -9 -62 -12 -11 -6 -10 0 6 92 8 44
17 96 20 115 4 19 9 49 13 65 4 17 6 33 5 38 -1 4 8 7 20 8 13 0 39 2 58 5 94
11 218 26 240 29 26 4 94 12 165 20 22 3 60 7 85 10 25 3 63 8 85 10 22 3 56
7 76 10 20 3 56 8 80 10 82 9 154 17 174 21 11 2 45 6 75 10 30 3 66 7 80 10
14 2 50 7 80 9 30 3 71 7 90 10 72 9 328 41 409 50 30 4 63 9 75 11 12 2 49 7
82 9 34 3 70 7 80 9 11 2 51 7 89 11 72 8 89 15 106 46 8 16 3 20 -33 30 -86
23 -140 27 -198 16 -35 -6 -381 -78 -560 -116 -170 -36 -331 -62 -342 -55 -4
2 -9 0 -13 -6 -4 -6 -10 -8 -14 -5 -5 2 -35 7 -67 10 -33 3 -70 7 -84 10 -25
4 -130 16 -185 20 -16 1 -50 6 -75 9 -25 4 -61 9 -80 11 -19 2 -35 4 -35 5 0
0 -20 3 -45 5 -25 2 -65 6 -90 9 -25 2 -74 8 -110 11 -36 4 -76 9 -90 11 -14
3 -47 7 -75 10 -27 2 -63 6 -80 9 -16 2 -59 7 -95 10 -36 3 -74 8 -86 10 -11
3 -52 7 -90 11 -38 3 -80 8 -94 10 -14 3 -47 7 -75 9 -27 2 -63 6 -80 9 -27 4
-75 10 -162 20 -21 3 -36 -1 -46 -12z"/>
<path d="M5899 4756 c-2 -2 -36 -7 -75 -10 -39 -4 -82 -9 -94 -11 -12 -2 -48
-7 -79 -10 -31 -4 -63 -8 -71 -10 -8 -2 -44 -7 -80 -10 -36 -4 -73 -9 -82 -10
-9 -2 -48 -7 -85 -10 -37 -4 -70 -9 -73 -10 -3 -2 -39 -6 -80 -10 -41 -4 -78
-9 -81 -11 -3 -2 -35 -6 -70 -9 -35 -3 -71 -7 -79 -10 -8 -2 -37 -7 -65 -10
-27 -2 -59 -6 -70 -9 -11 -2 -47 -7 -80 -10 -68 -8 -113 -14 -170 -23 -22 -3
-53 -7 -70 -9 -16 -1 -52 -6 -80 -9 -27 -3 -66 -8 -85 -10 -19 -2 -51 -7 -70
-10 -90 -13 -171 -23 -212 -24 -26 -1 -34 -15 -44 -81 -1 -8 -6 -37 -12 -63
l-10 -48 27 5 c14 3 58 10 96 16 94 15 125 20 155 25 14 2 45 7 70 10 60 8
102 15 120 20 8 2 38 6 65 10 28 3 57 8 65 10 8 2 35 6 60 9 25 4 56 8 70 10
56 10 106 18 130 21 14 2 39 6 56 9 17 3 46 8 65 10 19 3 48 7 64 10 17 3 50
8 75 11 25 3 70 10 100 15 30 5 73 12 95 15 22 3 47 7 55 10 8 2 38 6 65 10
28 3 57 8 65 10 8 2 35 6 60 9 25 3 55 8 66 10 12 2 39 7 60 10 198 32 240 39
246 42 3 2 3 18 -2 34 -5 17 -5 43 0 60 7 26 2 38 -11 26z"/>
<path d="M2241 3658 c-11 -24 -33 -57 -48 -74 -15 -18 -73 -91 -128 -164 -55
-72 -149 -196 -210 -275 -60 -79 -155 -203 -210 -275 -55 -73 -156 -205 -225
-295 -69 -89 -136 -177 -150 -195 -106 -140 -171 -224 -211 -273 -14 -18 -32
-43 -39 -57 -16 -30 -15 -168 2 -220 30 -92 101 -158 203 -187 17 -5 1423 -8
3135 -8 2526 1 3112 4 3145 14 105 35 181 128 192 238 6 54 5 55 -63 156 -37
56 -71 104 -74 107 -3 3 -37 52 -75 110 -39 58 -73 107 -76 110 -14 12 -119
170 -119 179 0 5 -4 11 -8 13 -4 2 -33 39 -63 82 -29 44 -59 87 -66 95 -7 9
-105 151 -219 316 -285 414 -306 444 -348 504 -21 30 -42 66 -48 82 -7 22 -17
29 -36 30 -15 0 -266 2 -559 4 -292 2 -536 6 -542 9 -5 4 -12 2 -16 -4 -4 -6
-10 -8 -15 -5 -5 3 -323 8 -707 10 -384 2 -1081 7 -1549 10 l-852 6 -21 -43z
m3031 -168 l1196 0 38 -52 c21 -29 43 -60 49 -70 12 -19 212 -306 296 -424 32
-44 59 -86 61 -94 2 -10 -444 -13 -2539 -15 -1399 -1 -2543 0 -2543 2 0 5 164
261 222 345 6 9 55 83 108 165 l97 148 909 -2 c500 -1 1447 -2 2106 -3z m-358
-770 c2 -3 7 -17 9 -30 3 -14 13 -56 22 -95 9 -38 19 -81 21 -95 3 -14 9 -40
14 -58 l9 -33 -600 3 c-399 2 -599 6 -600 13 -1 5 0 15 1 20 9 44 32 152 34
160 1 6 6 26 10 45 14 64 17 69 44 72 47 5 1030 3 1036 -2z m-1075 -382 c-5
-18 -9 -36 -9 -40 0 -4 42 -9 93 -11 87 -3 85 -3 -30 -5 -108 -2 -122 0 -116
14 3 9 7 25 8 37 1 12 3 25 4 30 0 4 14 7 30 7 29 0 29 -1 20 -32z m559 -4
c-1 -21 4 -39 13 -45 10 -6 7 -9 -13 -10 -88 -2 -119 -1 -126 5 -4 4 -2 7 3 6
6 -1 22 -2 36 -1 23 1 26 5 27 34 0 17 0 35 1 40 1 4 14 7 31 7 27 0 29 -2 28
-36z m552 24 c1 -7 3 -29 6 -48 5 -34 4 -35 -26 -35 -32 -1 -34 2 -44 68 -4
25 -2 27 30 27 20 0 34 -5 34 -12z m-860 -72 c0 -9 -50 -12 -62 -5 -8 6 1 9
25 9 20 0 37 -2 37 -4z m80 0 c0 -8 -49 -13 -60 -6 -6 4 5 7 25 8 19 1 35 0
35 -2z m90 0 c0 -7 -60 -12 -70 -6 -6 4 7 7 30 8 22 1 40 0 40 -2z m190 0 c0
-3 -4 -8 -10 -11 -5 -3 -10 -1 -10 4 0 6 5 11 10 11 6 0 10 -2 10 -4z m50 0
c0 -9 -30 -14 -35 -6 -4 6 3 10 14 10 12 0 21 -2 21 -4z m30 0 c0 -3 -4 -8
-10 -11 -5 -3 -10 -1 -10 4 0 6 5 11 10 11 6 0 10 -2 10 -4z m340 -6 c0 -3
-74 -5 -165 -5 -91 0 -165 2 -165 5 0 3 74 6 165 5 91 0 165 -2 165 -5z
m-2337 -109 c4 -1 7 -10 7 -21 0 -14 -7 -20 -22 -21 -43 -2 -222 2 -225 5 -1
1 4 12 12 23 14 20 23 21 118 18 56 -1 105 -3 110 -4z m3886 -23 c5 -13 8 -24
6 -26 -2 -2 -152 -4 -206 -3 -21 1 -25 5 -23 24 1 12 3 23 3 25 1 1 48 2 106
2 100 0 106 -1 114 -22z"/>
<path d="M2445 3426 c-20 -28 -19 -34 8 -39 19 -4 19 -4 -5 -6 -29 -1 -58 -24
-58 -47 0 -8 -4 -14 -10 -14 -24 0 -7 -20 18 -21 28 -1 24 -3 -20 -13 -17 -4
-34 -18 -43 -36 -16 -30 -16 -47 -2 -42 5 1 6 -2 2 -8 -3 -6 -10 -8 -15 -5 -8
5 -36 -29 -59 -72 -10 -19 -9 -21 9 -18 11 2 20 -1 20 -6 0 -5 -6 -9 -12 -8
-7 1 -19 1 -25 0 -15 -1 -66 -78 -59 -89 3 -6 245 -8 292 -3 15 2 57 79 49 91
-4 6 -11 7 -17 4 -6 -4 -8 -2 -5 4 4 5 15 9 25 7 9 -2 23 -4 31 -4 11 -1 9 -7
-7 -21 -12 -12 -22 -25 -22 -30 0 -5 -7 -15 -15 -24 -14 -13 -14 -16 2 -24 10
-4 32 -8 50 -7 18 1 30 -1 28 -4 -2 -3 -98 -6 -214 -6 -116 0 -211 -4 -211 -8
0 -5 -4 -6 -8 -3 -4 2 -14 -10 -22 -27 -7 -18 -18 -35 -24 -39 -20 -13 10 -30
51 -29 21 0 45 1 53 1 8 0 38 0 65 0 28 -1 55 -1 60 0 6 1 15 1 20 0 24 -6 72
-5 92 2 12 4 25 4 27 -1 3 -4 26 -5 52 -1 44 7 64 21 64 46 0 6 7 17 15 24 16
13 21 0 6 -16 -5 -5 -12 -19 -15 -30 -7 -25 16 -36 49 -24 11 4 30 4 42 -1 13
-5 25 -4 28 1 3 5 15 6 29 0 13 -4 29 -4 37 0 7 5 16 5 19 1 3 -4 19 -4 35 0
24 7 33 17 43 48 17 58 16 62 -18 56 -16 -3 -30 -2 -30 3 0 4 39 7 88 7 87 -1
120 3 121 18 0 4 8 21 17 38 10 20 12 34 6 38 -6 3 -46 6 -90 5 -45 0 -79 3
-76 7 2 4 18 5 34 3 21 -4 32 -1 36 10 3 9 10 16 16 16 5 0 6 -4 3 -10 -7 -11
-1 -13 73 -15 29 -1 55 -5 59 -9 3 -3 -1 -6 -10 -6 -17 0 -47 -47 -47 -73 0
-21 13 -23 125 -21 137 2 132 1 139 32 4 15 9 35 12 45 4 13 -1 17 -22 17 -15
0 -25 3 -21 6 3 4 23 6 44 6 58 0 70 -3 44 -11 -16 -4 -28 -19 -37 -44 -16
-46 -10 -50 78 -52 37 -1 71 -4 75 -8 3 -4 -1 -7 -10 -7 -19 0 -27 -12 -37
-57 -7 -30 -5 -35 13 -42 14 -5 25 -4 29 3 6 8 8 8 8 -1 0 -8 9 -9 30 -3 17 5
30 5 30 0 0 -8 49 -5 77 5 7 2 15 0 18 -4 3 -5 20 -5 39 -1 19 4 38 5 41 2 3
-3 31 -5 63 -3 76 3 74 3 100 -3 12 -2 22 -1 22 4 0 5 13 5 30 0 17 -5 30 -6
30 -2 0 6 75 7 90 1 3 -1 10 0 15 1 6 1 30 1 55 1 48 -1 55 -1 125 -1 25 0 52
0 60 0 8 0 35 0 59 1 24 1 47 -1 53 -4 5 -3 15 -2 23 3 7 4 24 4 36 0 14 -6
26 -5 29 1 4 5 11 7 16 3 12 -7 218 -8 225 -1 3 2 21 1 40 -3 19 -5 37 -4 40
1 3 5 10 7 15 4 5 -4 9 1 9 9 0 21 16 21 24 0 4 -11 15 -14 36 -10 16 2 32 0
35 -4 3 -5 16 -5 29 0 13 5 26 6 29 4 3 -3 24 -5 48 -4 24 0 52 1 63 1 16 0
18 6 13 42 -3 23 -13 46 -21 53 -9 6 -16 13 -16 15 0 3 28 4 63 4 l62 0 -2 40
c-2 22 -10 45 -18 51 -14 10 -14 12 -1 17 18 7 23 0 29 -34 9 -47 12 -54 27
-66 18 -15 17 -15 -104 -22 -23 -1 -24 -3 -14 -33 18 -56 24 -63 59 -65 38 -4
36 -4 104 -3 28 0 61 0 73 0 13 0 28 2 33 6 13 7 11 44 -2 44 -5 0 -8 4 -5 9
3 4 -1 17 -9 27 -21 28 -20 29 32 28 58 -1 73 4 73 22 0 19 10 18 26 -3 20
-27 18 -28 -38 -27 -76 0 -78 -1 -66 -44 10 -38 27 -66 35 -58 3 2 18 0 34 -4
16 -5 29 -6 29 -2 0 6 56 7 70 2 3 -1 10 -1 15 0 26 5 81 3 92 -3 6 -4 14 -3
18 2 3 6 13 7 21 4 16 -6 15 4 -4 56 -3 9 -1 12 6 7 7 -4 12 -13 12 -20 0 -29
34 -43 103 -42 37 1 67 -3 67 -8 0 -5 6 -4 13 1 6 5 26 8 42 7 51 -5 59 7 35
54 -12 23 -27 43 -34 43 -6 1 -32 2 -59 4 -26 1 -50 4 -53 8 -3 3 15 4 40 3
63 -3 72 4 51 45 -22 42 -32 49 -72 49 -25 0 -31 4 -27 15 4 8 -1 31 -10 50
-13 27 -23 35 -44 35 -18 0 -23 3 -14 9 34 21 92 -25 92 -74 0 -17 44 -35 71
-28 18 3 21 2 10 -5 -12 -9 -11 -17 9 -54 22 -43 24 -44 71 -43 26 1 46 -2 44
-6 -3 -3 -19 -5 -37 -4 -18 1 -36 0 -40 -2 -7 -3 25 -77 39 -93 6 -6 223 -10
245 -4 15 4 14 10 -11 52 -22 38 -32 47 -54 46 -15 -1 -24 3 -21 8 3 4 9 6 14
3 15 -9 22 15 10 30 -7 8 -9 15 -5 15 4 0 16 -11 26 -25 12 -14 26 -22 34 -18
8 3 15 0 15 -6 0 -6 -7 -11 -15 -11 -22 0 22 -79 49 -90 25 -9 231 -8 241 2 9
8 -42 85 -62 92 -8 3 -20 3 -26 0 -7 -3 -4 1 5 8 16 13 15 17 -8 56 -26 43
-33 46 -104 42 -19 -1 -32 1 -29 4 3 3 24 7 47 8 23 1 42 4 42 7 0 4 -11 23
-25 44 -25 36 -37 42 -80 37 -25 -3 -16 8 11 13 28 4 28 18 -1 55 -20 25 -32
31 -48 27 -22 -5 -22 -5 0 6 l22 12 -21 31 c-25 35 -39 47 -49 40 -4 -2 -11 1
-15 7 -4 7 -3 9 4 5 19 -12 21 9 3 33 -16 21 -26 24 -97 23 -119 0 -116 1
-109 -22 6 -19 5 -19 -18 2 -22 21 -34 23 -113 21 -49 -1 -93 -2 -98 -2 -5 -1
-3 -8 4 -16 7 -8 9 -15 4 -15 -5 0 1 -8 14 -18 l23 -18 -25 1 c-13 0 -28 4
-33 9 -4 5 -3 6 4 2 8 -4 11 1 10 15 -1 11 -10 25 -21 31 -25 13 -176 17 -193
5 -7 -5 -21 -6 -30 -2 -26 11 -193 12 -193 2 0 -5 -12 -6 -27 -2 -42 12 -186
12 -201 1 -9 -6 -16 -6 -20 0 -4 5 -43 9 -87 8 -126 -2 -125 -2 -122 -21 4
-28 17 -44 30 -37 7 4 9 4 5 -1 -4 -4 -22 -9 -40 -10 -27 -3 -30 -1 -17 8 23
17 24 20 12 42 -10 19 -20 20 -105 19 -127 -2 -120 -1 -109 -23 6 -10 7 -21 4
-25 -7 -6 12 -10 37 -6 8 1 12 -1 8 -5 -8 -9 -68 -13 -68 -5 0 3 4 10 10 16 6
6 5 17 -4 30 -13 18 -25 20 -113 19 l-98 -1 -1 -27 c-1 -15 3 -27 7 -27 5 0 9
-3 9 -7 0 -5 -11 -8 -24 -8 -21 0 -23 2 -11 15 8 9 10 23 5 35 -7 19 -16 20
-101 19 -122 -2 -119 -2 -113 -19 4 -8 1 -15 -5 -15 -6 0 -10 3 -10 8 4 26 -6
28 -93 27 -127 -3 -119 -1 -113 -34 4 -25 1 -29 -21 -34 -25 -4 -25 -4 -6 17
37 40 17 52 -88 52 -52 -1 -101 -5 -109 -10 -8 -5 -16 -5 -20 1 -3 5 -141 9
-333 9 -288 0 -328 -2 -334 -15 -17 -38 -6 -51 35 -45 25 4 26 4 4 -9 -12 -6
-22 -16 -23 -22 -1 -5 -6 -18 -12 -29 -7 -13 -6 -21 3 -27 10 -6 4 -9 -18 -9
l-32 0 22 24 c13 13 23 34 24 46 2 18 -2 21 -23 16 -26 -7 -34 8 -8 18 8 3 13
10 9 15 -3 5 -1 12 5 16 25 15 -6 22 -104 22 -101 1 -104 0 -115 -25 -14 -29
-12 -31 22 -34 14 -1 24 -6 21 -10 -2 -4 -13 -5 -23 -3 -14 2 -21 -4 -27 -23
-11 -41 -11 -46 6 -54 8 -4 -10 -7 -40 -7 -55 1 -57 2 -9 13 14 3 26 11 27 18
0 7 4 24 8 37 5 17 4 22 -4 17 -17 -10 -15 11 4 38 8 14 11 27 6 30 -5 3 -54
5 -109 4 -98 -2 -100 -2 -116 -30 -16 -28 -16 -28 11 -29 24 0 25 -1 6 -9 -20
-8 -54 -51 -54 -69 0 -5 8 -12 18 -14 9 -3 -1 -5 -23 -6 -32 0 -36 2 -22 10 9
5 17 15 17 20 0 6 7 17 15 25 16 16 20 35 8 33 -21 -3 -20 3 3 26 14 14 22 30
19 35 -3 5 -51 9 -106 8 -89 0 -101 -3 -114 -22z m910 -16 c-6 -20 4 -25 48
-20 18 1 18 1 0 -26 -22 -34 -23 -57 -3 -66 9 -4 1 -7 -20 -7 -21 0 -30 2 -22
7 7 5 14 17 16 28 2 10 6 26 8 34 2 10 -5 15 -19 15 -31 1 -36 10 -21 34 16
26 21 27 13 1z m459 -4 c-6 -15 22 -29 39 -19 7 3 8 2 4 -3 -10 -10 -87 -12
-87 -1 0 4 6 7 14 7 8 0 16 7 20 15 3 8 8 15 10 15 3 0 3 -6 0 -14z m1383 -19
c6 2 13 0 16 -4 3 -5 -10 -9 -29 -9 -19 0 -34 3 -34 8 0 4 4 8 10 8 5 0 7 8 4
18 -4 12 -1 10 8 -4 7 -12 18 -19 25 -17z m216 -7 c-3 -3 -14 -5 -26 -5 -17 0
-22 -6 -22 -27 1 -15 -3 -24 -7 -22 -4 3 -8 14 -8 25 0 18 -14 24 -50 20 -11
-1 -12 0 -2 7 7 5 31 7 53 6 36 -2 40 0 36 18 -6 20 -5 20 12 2 10 -11 16 -21
14 -24z m241 3 c16 -9 14 -11 -15 -11 -19 -1 -42 -1 -51 -1 -31 -1 -48 2 -42
8 3 3 20 6 37 6 26 0 31 4 29 20 -2 18 -1 18 10 4 7 -8 22 -20 32 -26z m-2069
17 c-3 -5 -1 -10 5 -10 6 0 9 -4 5 -10 -9 -14 -34 0 -28 16 3 8 9 14 15 14 5
0 6 -4 3 -10z m693 -9 c11 -7 11 -9 -1 -14 -16 -6 -27 0 -27 15 0 10 11 10 28
-1z m-1748 -11 c0 -5 -2 -10 -4 -10 -3 0 -8 5 -11 10 -3 6 -1 10 4 10 6 0 11
-4 11 -10z m53 3 c-7 -2 -19 -2 -25 0 -7 3 -2 5 12 5 14 0 19 -2 13 -5z m174
1 c-3 -3 -12 -4 -19 -1 -8 3 -5 6 6 6 11 1 17 -2 13 -5z m40 0 c-3 -3 -12 -4
-19 -1 -8 3 -5 6 6 6 11 1 17 -2 13 -5z m40 0 c-3 -3 -12 -4 -19 -1 -8 3 -5 6
6 6 11 1 17 -2 13 -5z m183 0 c0 -8 -19 -13 -24 -6 -3 5 1 9 9 9 8 0 15 -2 15
-3z m37 0 c-3 -3 -12 -4 -19 -1 -8 3 -5 6 6 6 11 1 17 -2 13 -5z m190 0 c-3
-3 -12 -4 -19 -1 -8 3 -5 6 6 6 11 1 17 -2 13 -5z m73 0 c0 -8 -19 -13 -24 -6
-3 5 1 9 9 9 8 0 15 -2 15 -3z m190 1 c0 -7 -30 -13 -34 -7 -3 4 4 9 15 9 10
1 19 0 19 -2z m148 -4 c4 -2 -28 -61 -33 -61 -2 0 -1 10 4 22 6 16 4 26 -7 34
-13 10 -12 11 9 9 13 -1 25 -3 27 -4z m72 3 c0 -8 -19 -13 -24 -6 -3 5 1 9 9
9 8 0 15 -2 15 -3z m175 -10 c-8 -6 -15 -21 -15 -33 0 -35 -15 -23 -16 13 0
29 3 33 23 32 20 -1 21 -3 8 -12z m85 11 c0 -7 -30 -13 -34 -7 -3 4 4 9 15 9
10 1 19 0 19 -2z m164 -10 c-19 -13 -27 -62 -13 -71 7 -4 25 -7 41 -8 15 -1
28 -5 28 -9 0 -4 0 -18 0 -32 0 -14 -4 -25 -8 -25 -4 0 -8 12 -8 28 1 21 -4
27 -22 28 -12 1 -25 4 -29 8 -3 3 -13 0 -21 -7 -13 -10 -14 -8 -7 13 14 43 11
65 -8 76 -15 9 -12 10 21 10 31 0 37 -3 26 -11z m56 9 c0 -8 -19 -13 -24 -6
-3 5 1 9 9 9 8 0 15 -2 15 -3z m185 -10 c-20 -15 -19 -61 1 -72 13 -8 9 -10
-19 -14 -19 -2 -44 0 -54 4 -17 7 -16 8 2 7 40 -2 45 1 45 34 0 25 -6 36 -21
44 -18 7 -15 9 20 9 33 -1 38 -3 26 -12z m195 12 c0 -3 -4 -8 -10 -11 -5 -3
-10 -1 -10 4 0 6 5 11 10 11 6 0 10 -2 10 -4z m48 -10 c-9 -6 -13 -22 -11 -36
2 -18 1 -21 -6 -10 -5 8 -8 17 -5 21 2 4 -1 11 -7 15 -14 8 3 21 28 21 14 0
14 -2 1 -11z m192 10 c0 -3 -4 -8 -10 -11 -5 -3 -10 -1 -10 4 0 6 5 11 10 11
6 0 10 -2 10 -4z m58 -10 c-14 -11 -19 -76 -6 -76 5 0 8 -3 8 -7 0 -5 -11 -8
-24 -8 -21 0 -22 2 -11 20 15 23 12 55 -6 65 -12 8 7 16 40 16 11 1 11 -1 -1
-10z m127 4 c3 -6 -1 -7 -9 -4 -18 7 -21 14 -7 14 6 0 13 -4 16 -10z m115 -1
c0 -5 -4 -9 -10 -9 -14 0 -7 -32 12 -62 16 -25 16 -25 -9 -22 -29 3 -44 14
-19 14 9 0 14 4 11 10 -3 5 -8 20 -10 32 -5 24 -24 40 -39 31 -5 -3 -7 -2 -3
3 7 12 67 14 67 3z m615 1 c3 -5 1 -10 -4 -10 -6 0 -11 5 -11 10 0 6 2 10 4
10 3 0 8 -4 11 -10z m65 -5 c0 -2 -9 -3 -19 -2 -11 0 -18 5 -15 9 4 6 34 0 34
-7z m114 7 c2 -4 -5 -9 -17 -9 -17 -2 -19 0 -7 7 18 12 18 12 24 2z m181 -2
c3 -5 -1 -10 -9 -10 -20 0 -20 -10 0 -38 8 -12 11 -22 6 -22 -5 0 -15 14 -22
30 -7 17 -20 30 -29 30 -14 0 -14 2 -1 10 20 13 47 13 55 0z m79 -1 c3 -2 -9
-5 -26 -6 -18 0 -26 2 -18 7 13 8 36 8 44 -1z m41 1 c3 -5 1 -10 -4 -10 -6 0
-11 5 -11 10 0 6 2 10 4 10 3 0 8 -4 11 -10z m-611 -61 c-7 -12 44 -31 58 -23
6 4 8 2 5 -3 -7 -11 -74 -10 -85 1 -3 3 -1 6 5 6 5 0 10 7 10 15 0 8 -4 15 -9
15 -4 0 -8 5 -8 11 0 8 5 8 15 -1 8 -7 12 -16 9 -21z m-1970 -17 c2 -4 23 -7
45 -6 46 1 48 -1 26 -22 -8 -9 -15 -28 -15 -44 0 -23 4 -28 20 -25 11 2 21 1
24 -3 2 -4 -16 -8 -40 -9 -24 0 -44 3 -44 9 0 5 4 7 10 3 11 -7 29 53 22 73
-2 7 -12 12 -21 11 -9 -1 -29 -1 -46 0 -23 1 -27 3 -15 11 18 12 27 12 34 2z
m250 2 c28 -11 8 -20 -31 -15 -35 4 -36 5 -13 12 14 4 26 7 27 8 1 1 8 -2 17
-5z m746 -4 c0 -5 -12 -10 -27 -10 -22 0 -25 2 -13 10 20 13 40 13 40 0z m740
0 c0 -5 7 -7 15 -4 8 4 15 2 15 -3 0 -5 -16 -8 -35 -8 -35 0 -46 9 -22 18 20
8 27 8 27 -3z m-2923 -6 c-3 -3 -12 -4 -19 -1 -8 3 -5 6 6 6 11 1 17 -2 13 -5z
m90 0 c-3 -3 -12 -4 -19 -1 -8 3 -5 6 6 6 11 1 17 -2 13 -5z m201 1 c-8 -9
-78 -13 -78 -5 0 4 18 8 41 8 23 1 39 -1 37 -3z m219 -9 c-15 -6 -30 -20 -33
-33 -4 -13 -10 -23 -15 -23 -6 0 -5 9 1 21 7 11 9 26 7 33 -3 8 7 12 32 12 36
1 36 1 8 -10z m257 3 c-6 -11 -44 -12 -44 -1 0 4 11 8 25 8 14 1 22 -2 19 -7z
m80 -1 c-3 -4 -11 -5 -19 -1 -21 7 -19 12 4 10 11 0 18 -5 15 -9z m179 0 c-18
-5 -33 -15 -33 -23 0 -8 -5 -15 -11 -15 -5 0 -7 5 -4 10 4 6 2 17 -4 24 -9 10
-1 13 37 13 45 0 46 0 15 -9z m87 2 c0 -5 -2 -10 -4 -10 -3 0 -8 5 -11 10 -3
6 -1 10 4 10 6 0 11 -4 11 -10z m205 0 c3 -6 -1 -7 -9 -4 -18 7 -21 14 -7 14
6 0 13 -4 16 -10z m45 4 c0 -8 -19 -13 -24 -6 -3 5 1 9 9 9 8 0 15 -2 15 -3z
m157 -5 c-9 -6 -15 -14 -12 -20 4 -5 2 -9 -2 -9 -5 0 -9 -11 -9 -25 0 -14 4
-25 8 -25 4 0 8 -4 8 -9 0 -6 -9 -9 -20 -8 -20 1 -26 12 -12 21 5 3 7 22 6 43
-2 35 1 39 25 41 22 1 23 0 8 -9z m123 5 c0 -8 -19 -13 -24 -6 -3 5 1 9 9 9 8
0 15 -2 15 -3z m157 0 c-3 -3 -12 -4 -19 -1 -8 3 -5 6 6 6 11 1 17 -2 13 -5z
m43 0 c0 -8 -19 -13 -24 -6 -3 5 1 9 9 9 8 0 15 -2 15 -3z m198 -6 c-7 -4 -22
-8 -33 -8 -11 0 -15 -4 -10 -8 6 -4 10 -16 10 -27 0 -11 5 -27 12 -36 12 -14
9 -16 -27 -16 -40 0 -48 6 -14 11 9 2 19 11 20 20 4 25 -17 67 -29 59 -6 -3
-8 -2 -4 3 3 5 24 9 46 10 25 0 37 -3 29 -8z m172 2 c0 -5 -2 -10 -4 -10 -3 0
-8 5 -11 10 -3 6 -1 10 4 10 6 0 11 -4 11 -10z m67 -4 c5 -5 3 -6 -4 -2 -14 8
-17 -2 -15 -43 1 -26 20 -43 38 -37 6 2 16 1 23 -3 6 -4 -13 -8 -43 -8 -43 0
-52 3 -40 11 16 12 13 58 -5 80 -7 9 -4 12 14 11 13 0 27 -4 32 -9z m38 4 c3
-6 -1 -7 -9 -4 -18 7 -21 14 -7 14 6 0 13 -4 16 -10z m35 0 c0 -5 -2 -10 -4
-10 -3 0 -8 5 -11 10 -3 6 -1 10 4 10 6 0 11 -4 11 -10z m167 -5 c-7 -5 -11
-18 -9 -29 2 -11 0 -16 -7 -12 -6 4 -11 16 -11 28 0 14 -5 18 -16 14 -8 -3
-13 -2 -10 3 3 5 19 8 36 7 23 0 27 -3 17 -11z m260 2 c4 -5 3 -7 -3 -5 -7 2
-12 0 -13 -4 -4 -31 2 -50 21 -68 l22 -20 -25 0 c-22 0 -25 5 -26 35 -1 38
-20 64 -43 58 -11 -3 -12 -2 -3 4 16 11 59 11 70 0z m63 3 c12 -7 10 -9 -8 -7
-12 0 -22 5 -22 9 0 11 12 10 30 -2z m187 -4 c5 -4 3 -6 -3 -4 -7 2 -12 0 -13
-4 -6 -46 16 -79 49 -73 11 2 21 1 24 -3 2 -4 -24 -7 -57 -8 -34 -1 -52 1 -39
3 20 4 22 9 17 36 -4 18 -16 39 -27 48 -19 15 -19 16 11 14 17 -1 34 -5 38 -9z
m89 1 c4 -3 -4 -4 -16 -2 -30 6 -40 16 -12 12 12 -2 24 -6 28 -10z m178 3 c-3
-3 -10 -5 -15 -5 -13 0 -12 -10 6 -51 8 -19 19 -33 25 -29 5 3 10 2 10 -3 0
-4 -21 -9 -47 -9 -37 -1 -43 1 -25 8 l22 8 -20 36 c-27 47 -26 51 15 51 19 0
32 -3 29 -6z m36 6 c0 -3 -4 -8 -10 -11 -5 -3 -10 -1 -10 4 0 6 5 11 10 11 6
0 10 -2 10 -4z m95 -6 c3 -6 -1 -7 -9 -4 -18 7 -21 14 -7 14 6 0 13 -4 16 -10z
m45 0 c8 -5 11 -10 5 -10 -5 0 -17 5 -25 10 -8 5 -10 10 -5 10 6 0 17 -5 25
-10z m60 6 c0 -3 -4 -8 -10 -11 -5 -3 -10 -1 -10 4 0 6 5 11 10 11 6 0 10 -2
10 -4z m178 -12 c4 -4 -1 -4 -10 -1 -21 7 -36 -12 -18 -23 6 -4 12 -11 12 -16
1 -24 28 -46 52 -42 13 3 31 1 38 -4 10 -7 10 -8 -2 -7 -43 4 -59 -1 -53 -18
4 -10 11 -21 17 -25 7 -5 7 -8 -2 -8 -7 0 -15 8 -19 18 -3 9 -13 25 -22 36 -9
10 -14 19 -13 20 9 3 -34 66 -45 66 -7 0 -13 5 -13 11 0 12 67 6 78 -7z m56 8
c3 -5 -1 -9 -9 -9 -8 0 -12 4 -9 9 3 4 7 8 9 8 2 0 6 -4 9 -8z m-3031 -42 c-3
-11 -9 -20 -13 -20 -5 0 -6 9 -3 20 3 11 9 20 13 20 5 0 6 -9 3 -20z m243 -25
c-4 -10 1 -15 14 -15 11 0 20 -4 20 -8 0 -4 -22 -8 -49 -8 -27 0 -48 3 -45 7
2 4 13 6 24 4 12 -2 21 3 25 16 4 10 9 19 12 19 3 0 3 -7 -1 -15z m-506 -24
c0 -4 -11 -7 -25 -7 -29 0 -34 13 -7 19 19 4 32 0 32 -12z m250 6 c0 -8 -7
-14 -15 -14 -16 0 -19 9 -8 20 11 11 23 8 23 -6z m1040 -6 c0 -4 -16 -8 -35
-9 -19 -1 -35 3 -35 7 0 5 8 7 19 4 10 -3 22 0 26 6 7 12 25 6 25 -8z m-1826
1 c3 -5 -1 -9 -9 -9 -8 0 -12 4 -9 9 3 4 7 8 9 8 2 0 6 -4 9 -8z m60 0 c3 -5
-1 -9 -9 -9 -8 0 -12 4 -9 9 3 4 7 8 9 8 2 0 6 -4 9 -8z m60 0 c3 -5 -1 -9 -9
-9 -8 0 -12 4 -9 9 3 4 7 8 9 8 2 0 6 -4 9 -8z m80 0 c3 -5 -1 -9 -9 -9 -8 0
-12 4 -9 9 3 4 7 8 9 8 2 0 6 -4 9 -8z m66 0 c0 -5 -7 -9 -15 -9 -8 0 -15 4
-15 9 0 4 7 8 15 8 8 0 15 -4 15 -8z m44 -3 c3 -3 -4 -5 -14 -6 -11 -1 -20 2
-20 7 0 8 25 8 34 -1z m86 -1 c0 -5 -7 -8 -15 -8 -8 0 -15 -8 -15 -18 0 -10
-5 -23 -12 -30 -7 -7 -8 -12 -2 -12 5 0 2 -5 -6 -10 -10 -6 -11 -10 -2 -10 6
0 12 -4 12 -9 0 -5 -16 -9 -35 -9 l-34 0 25 34 c18 23 24 41 21 56 -6 21 -2
23 28 23 19 0 35 -3 35 -7z m277 -2 c4 -5 3 -6 -4 -3 -14 8 -43 -18 -43 -39 0
-8 -5 -14 -10 -14 -7 0 -7 6 0 19 14 26 13 31 -6 31 -8 0 -13 4 -10 8 6 10 63
9 73 -2z m157 2 c-3 -4 -12 -8 -20 -8 -8 0 -14 4 -14 8 0 4 9 8 19 8 11 0 17
-4 15 -8z m36 2 c0 -5 -5 -10 -11 -10 -5 0 -7 5 -4 10 3 6 8 10 11 10 2 0 4
-4 4 -10z m65 -3 c3 -4 2 -5 -1 -2 -4 2 -15 0 -26 -6 -21 -11 -34 -6 -24 9 6
10 43 9 51 -1z m245 4 c3 -1 0 -5 -7 -9 -7 -4 -15 -26 -19 -48 l-6 -41 76 1
c42 0 76 -2 76 -5 0 -11 -49 -17 -88 -10 -20 4 -68 6 -105 5 -37 -1 -65 1 -63
4 3 3 23 6 45 6 48 2 47 1 55 49 6 30 4 37 -9 37 -9 0 -14 4 -11 8 4 7 28 8
56 3z m54 1 c3 -5 -1 -9 -9 -9 -8 0 -12 4 -9 9 3 4 7 8 9 8 2 0 6 -4 9 -8z
m223 -7 c5 -4 3 -6 -2 -2 -20 11 -34 -8 -37 -48 -2 -28 1 -39 10 -37 6 1 12
-2 12 -7 0 -5 -21 -8 -47 -8 -27 0 -39 2 -28 4 11 3 23 8 28 12 12 12 18 81 6
81 -5 0 -8 4 -5 8 6 10 54 8 63 -3z m193 0 c0 -2 -9 -3 -19 -2 -11 0 -18 5
-15 9 4 6 34 0 34 -7z m32 -47 c-4 -45 -3 -50 12 -45 9 4 15 3 12 -2 -3 -5
-37 -8 -76 -8 -76 0 -87 8 -18 12 24 1 46 3 50 4 4 0 6 23 4 50 -2 34 1 48 9
45 8 -3 10 -22 7 -56z m38 52 c0 -5 -5 -10 -11 -10 -5 0 -7 5 -4 10 3 6 8 10
11 10 2 0 4 -4 4 -10z m150 -6 c0 -2 -7 -4 -15 -4 -8 0 -15 4 -15 10 0 5 7 7
15 4 8 -4 15 -8 15 -10z m71 -31 c-5 -34 -6 -35 -9 -10 -2 16 -11 31 -19 34
-14 6 -14 7 3 13 27 11 31 6 25 -37z m63 39 c2 -4 -7 -8 -22 -9 -24 -2 -24 -1
-7 7 11 5 21 9 22 9 1 1 4 -3 7 -7z m223 -5 c3 -4 -1 -7 -11 -7 -13 0 -16 -8
-14 -40 1 -22 6 -40 10 -40 4 0 8 -4 8 -10 0 -5 -17 -9 -37 -9 -22 1 -29 4
-16 6 20 4 42 33 24 33 -4 0 -6 14 -3 30 4 25 1 30 -17 30 -12 0 -20 3 -18 8
6 9 64 8 74 -1z m48 3 c3 -5 1 -10 -4 -10 -6 0 -11 5 -11 10 0 6 2 10 4 10 3
0 8 -4 11 -10z m230 0 c6 -1 -3 -5 -20 -9 -17 -4 -29 -13 -27 -20 1 -7 -2 -10
-8 -6 -5 3 -10 14 -10 23 0 16 22 20 65 12z m100 0 c3 -5 -10 -8 -29 -7 -19 1
-33 4 -31 7 6 10 54 10 60 0z m125 -3 c15 1 18 0 8 -3 -22 -7 -24 -56 -3 -78
22 -22 19 -26 -22 -26 -27 0 -34 3 -23 9 8 6 18 7 22 5 11 -7 10 3 -3 49 -6
22 -16 37 -25 37 -8 0 -12 5 -9 10 4 6 12 7 18 3 7 -4 23 -7 37 -6z m54 5 c3
-5 -1 -9 -9 -9 -8 0 -12 4 -9 9 3 4 7 8 9 8 2 0 6 -4 9 -8z m197 -15 c-5 -5
-7 -16 -4 -25 4 -10 2 -13 -5 -8 -7 4 -12 14 -12 22 0 8 -4 14 -10 14 -5 0
-10 4 -10 9 0 4 12 6 26 3 17 -3 22 -8 15 -15z m43 15 c3 -5 -1 -9 -9 -9 -8 0
-12 4 -9 9 3 4 7 8 9 8 2 0 6 -4 9 -8z m210 -13 c-3 -5 -11 -7 -17 -3 -7 3 -3
-2 7 -10 11 -9 15 -16 9 -16 -13 0 -45 35 -37 42 9 9 44 -3 38 -13z m50 13 c2
-4 -5 -9 -17 -9 -17 -2 -19 0 -7 7 18 12 18 12 24 2z m-2391 -44 c-13 -18 -10
-53 5 -50 6 1 12 -2 12 -6 0 -5 -24 -9 -54 -8 -30 0 -53 3 -50 6 3 2 11 5 17
6 7 0 20 2 30 2 9 1 17 10 17 20 0 10 5 23 12 30 16 16 23 15 11 0z m1573 -25
c-2 -11 7 -22 23 -29 23 -10 20 -12 -31 -11 -31 0 -55 4 -53 8 3 4 14 5 25 2
19 -5 25 4 21 35 -1 6 2 12 8 12 5 0 8 -8 7 -17z m784 -4 c0 -6 -4 -7 -10 -4
-5 3 -10 11 -10 16 0 6 5 7 10 4 6 -3 10 -11 10 -16z m-253 -12 c-1 -7 4 -11
11 -9 6 1 12 -2 12 -7 0 -5 -18 -9 -40 -9 -22 0 -40 3 -40 8 0 4 8 7 18 6 10
0 17 6 16 16 -1 10 4 14 12 11 7 -3 12 -10 11 -16z m837 -2 c3 -8 11 -15 18
-15 7 0 14 -11 14 -25 1 -14 0 -25 -3 -25 -11 0 -48 47 -49 63 -2 21 12 22 20
2z m-1874 -14 c0 -4 -17 -7 -37 -8 -36 -1 -36 0 -13 12 23 12 50 10 50 -4z
m-2020 -1 c0 -5 -5 -10 -11 -10 -5 0 -7 5 -4 10 3 6 8 10 11 10 2 0 4 -4 4
-10z m40 -2 c0 -4 -4 -8 -9 -8 -6 0 -12 4 -15 8 -3 5 1 9 9 9 8 0 15 -4 15 -9z
m80 -4 c0 -3 -13 -3 -29 -2 -16 1 -28 5 -26 9 5 6 55 0 55 -7z m170 0 c0 -2
-7 -4 -15 -4 -8 0 -15 4 -15 10 0 5 7 7 15 4 8 -4 15 -8 15 -10z m50 6 c0 -5
-10 -10 -22 -9 -22 0 -22 1 -3 9 11 5 21 9 23 9 1 1 2 -3 2 -9z m186 -3 c4 -4
0 -7 -8 -7 -9 0 -19 -6 -22 -12 -5 -10 -7 -10 -12 0 -3 6 -14 12 -24 12 -10 0
-21 3 -23 8 -6 9 79 9 89 -1z m324 -3 c0 -2 -7 -4 -15 -4 -8 0 -15 4 -15 10 0
5 7 7 15 4 8 -4 15 -8 15 -10z m550 6 c0 -5 -5 -10 -11 -10 -5 0 -7 5 -4 10 3
6 8 10 11 10 2 0 4 -4 4 -10z m200 -5 c0 -6 -5 -16 -11 -22 -6 -6 -9 -26 -7
-44 3 -31 6 -34 35 -34 17 0 29 -2 26 -5 -2 -3 -38 -5 -78 -5 -40 0 -71 2 -68
5 2 3 13 6 24 6 10 1 25 2 32 3 18 2 19 91 0 91 -8 0 -12 3 -10 8 8 11 57 8
57 -3z m288 0 c3 -3 -2 -5 -11 -5 -19 0 -19 0 -21 -48 -3 -37 17 -54 54 -47
13 2 20 1 16 -3 -10 -10 -126 -10 -120 0 3 4 12 8 20 8 10 0 14 12 14 45 0 46
-5 51 -50 46 -11 -1 -12 0 -3 6 13 9 92 8 101 -2z m52 5 c0 -5 -5 -10 -11 -10
-5 0 -7 5 -4 10 3 6 8 10 11 10 2 0 4 -4 4 -10z m120 0 c0 -5 -8 -10 -17 -10
-15 0 -16 2 -3 10 19 12 20 12 20 0z m90 -10 c-20 -5 -24 -11 -23 -44 0 -21 6
-41 12 -45 6 -4 38 -7 71 -6 33 1 57 -1 54 -4 -9 -9 -175 -8 -180 1 -3 5 -2 8
3 7 27 -5 31 8 24 79 0 6 -11 13 -23 13 -18 1 -16 3 7 8 17 4 41 5 55 2 l25
-5 -25 -6z m50 10 c0 -5 -5 -10 -11 -10 -5 0 -7 5 -4 10 3 6 8 10 11 10 2 0 4
-4 4 -10z m235 -1 c13 -1 10 -3 -10 -8 -25 -5 -29 -11 -27 -31 2 -14 3 -33 3
-42 0 -17 25 -32 39 -23 5 3 11 2 13 -2 3 -5 -34 -8 -83 -8 -48 0 -86 3 -84 6
2 3 18 5 36 4 53 -3 67 9 61 52 -6 46 -4 42 -36 45 -14 1 -24 5 -22 8 3 4 57
4 110 -1z m293 -4 c3 -3 -11 -5 -31 -5 -41 0 -41 0 -26 -52 10 -37 16 -41 62
-41 10 0 15 -2 12 -5 -3 -4 -45 -7 -93 -7 l-87 0 2 -35 2 -35 -9 29 c-11 36
-24 44 -61 41 -16 -1 -27 0 -25 4 3 4 40 6 83 6 88 -2 121 8 103 30 -7 8 -9
19 -5 24 10 17 -31 50 -54 44 -12 -3 -21 -1 -21 4 0 9 139 7 148 -2z m152 3
c0 -4 -9 -8 -20 -8 -11 0 -20 4 -20 8 0 4 9 8 20 8 11 0 20 -4 20 -8z m358 -2
c3 -3 -4 -6 -15 -6 -28 0 -34 -9 -21 -34 10 -19 10 -20 -5 -7 -10 7 -17 20
-17 27 0 12 -27 20 -53 15 -5 -1 -6 2 -4 6 6 9 106 7 115 -1z m102 3 c0 -5
-20 -8 -45 -7 -24 0 -42 4 -40 7 6 11 85 11 85 0z m75 1 c3 -6 -4 -10 -17 -10
-18 0 -20 2 -8 10 19 12 18 12 25 0z m85 -1 c0 -4 -9 -7 -19 -6 -11 0 -18 4
-16 7 6 9 35 8 35 -1z m34 3 c3 -5 -1 -9 -9 -9 -8 0 -12 4 -9 9 3 4 7 8 9 8 2
0 6 -4 9 -8z m476 -8 c0 -3 -15 -4 -34 -2 -19 1 -33 5 -31 8 4 7 65 1 65 -6z
m30 6 c0 -5 -5 -10 -11 -10 -5 0 -7 5 -4 10 3 6 8 10 11 10 2 0 4 -4 4 -10z
m-3473 -6 c-3 -3 -12 -4 -19 -1 -8 3 -5 6 6 6 11 1 17 -2 13 -5z m2400 0 c-3
-3 -12 -4 -19 -1 -8 3 -5 6 6 6 11 1 17 -2 13 -5z m-1654 -47 c-5 -7 -8 -21
-8 -32 0 -17 7 -20 52 -20 28 1 50 -2 48 -5 -4 -7 -193 -6 -200 1 -2 3 14 6
36 6 47 1 46 0 53 38 2 17 5 31 5 33 1 2 6 0 11 -3 6 -4 7 -12 3 -18z m-833
-13 c-11 -27 -5 -48 10 -39 5 3 11 2 13 -2 3 -5 -29 -8 -71 -9 -43 0 -90 -3
-106 -5 -16 -2 -31 1 -32 6 -3 6 22 10 62 10 81 0 102 7 110 40 3 14 10 25 15
25 5 0 4 -12 -1 -26z m990 -44 c-18 -12 -30 -13 -30 -2 0 4 10 9 22 9 18 2 20
0 8 -7z m240 0 c-18 -12 -30 -13 -30 -2 0 4 10 9 22 9 18 2 20 0 8 -7z m74 1
c-7 -8 -54 -9 -49 -1 2 3 15 6 29 6 14 0 23 -2 20 -5z m190 1 c2 -4 -5 -9 -17
-9 -17 -2 -19 0 -7 7 18 12 18 12 24 2z m51 -1 c-9 -8 -36 -10 -30 -2 2 4 11
8 20 8 8 0 13 -3 10 -6z m39 1 c3 -5 -1 -9 -9 -9 -8 0 -12 4 -9 9 3 4 7 8 9 8
2 0 6 -4 9 -8z m720 0 c3 -5 -1 -9 -9 -9 -8 0 -12 4 -9 9 3 4 7 8 9 8 2 0 6
-4 9 -8z m280 -1 c-3 -3 -23 -6 -46 -7 -22 -1 -36 1 -30 5 13 8 84 9 76 2z
m479 -1 c-2 -3 -23 -6 -46 -6 -64 -2 -69 -3 -62 -14 3 -5 2 -10 -4 -10 -5 0
-11 5 -13 11 -2 7 -35 12 -80 13 -136 3 -91 11 62 11 82 0 146 -2 143 -5z
m341 1 c-8 -8 -34 -10 -38 -2 -3 4 6 7 19 7 14 0 22 -2 19 -5z m190 -3 c-3 -4
-11 -5 -19 -1 -21 7 -19 12 4 10 11 0 18 -5 15 -9z m40 4 c3 -5 -1 -9 -9 -9
-8 0 -12 4 -9 9 3 4 7 8 9 8 2 0 6 -4 9 -8z m46 -6 c-7 -7 -13 -7 -20 0 -6 6
-3 10 10 10 13 0 16 -4 10 -10z"/>
<path d="M2952 2982 c-15 -2 -27 -16 -37 -40 -14 -32 -13 -73 1 -59 3 3 17 2
30 -3 14 -6 26 -6 29 0 3 6 15 6 30 0 15 -6 27 -6 30 1 4 5 11 6 18 2 14 -9
54 -9 89 0 21 6 30 17 39 47 7 22 9 43 5 48 -8 7 -191 10 -234 4z"/>
<path d="M3210 2975 c-7 -9 -31 -84 -27 -86 25 -11 227 -17 227 -7 0 4 6 5 14
2 16 -6 30 16 39 64 8 38 18 35 -131 36 -66 1 -117 -3 -122 -9z"/>
<path d="M3915 2695 c-7 -5 -22 -58 -34 -116 -12 -58 -24 -115 -27 -126 l-6
-21 532 -1 532 -2 -6 33 c-6 42 -31 151 -45 205 l-11 41 -462 -1 c-290 -1
-466 -6 -473 -12z"/>
</g>
</svg>
