<?xml version="1.0" standalone="no"?>
<!DOCTYPE svg PUBLIC "-//W3C//DTD SVG 20010904//EN"
 "http://www.w3.org/TR/2001/REC-SVG-20010904/DTD/svg10.dtd">
<svg version="1.0" xmlns="http://www.w3.org/2000/svg"
 width="937.000000pt" height="937.000000pt" viewBox="0 0 937.000000 937.000000"
 preserveAspectRatio="xMidYMid meet">
<metadata>
Created by potrace 1.14, written by Peter Selinger 2001-2017
</metadata>
<g transform="translate(0.000000,937.000000) scale(0.100000,-0.100000)"
fill="#000000" stroke="none">
<path d="M4040 8275 c-7 -8 -10 -22 -6 -30 3 -8 1 -15 -4 -15 -16 0 -23 -2
-49 -11 -22 -9 -23 -7 -17 18 6 27 6 27 -9 9 -8 -11 -15 -25 -15 -32 0 -6 -7
-14 -15 -18 -9 -3 -15 0 -15 10 0 8 -5 12 -10 9 -6 -4 -8 -10 -5 -15 3 -4 -2
-10 -10 -14 -11 -4 -15 2 -16 22 0 26 -1 26 -13 -7 -11 -32 -56 -64 -56 -40 0
6 -11 -3 -25 -18 -23 -26 -26 -27 -39 -10 -18 23 -29 22 -17 -2 10 -18 6 -31
-10 -31 -4 0 -11 9 -14 20 -3 11 -11 20 -16 20 -6 0 -5 -8 1 -21 16 -29 5 -56
-15 -39 -12 10 -15 9 -15 -8 0 -22 -26 -37 -34 -19 -2 7 -5 2 -5 -9 -1 -12 -8
-28 -17 -35 -14 -11 -18 -10 -31 6 -15 19 -15 19 -9 -8 8 -35 -1 -52 -20 -36
-12 10 -14 7 -12 -12 3 -20 -1 -24 -19 -22 -13 2 -23 -2 -23 -7 0 -6 4 -10 10
-10 5 0 7 -7 3 -16 -3 -8 -12 -13 -19 -10 -9 3 -14 -2 -14 -13 0 -22 -23 -44
-35 -33 -5 4 -5 2 -2 -5 11 -18 -4 -45 -20 -38 -11 3 -13 1 -9 -10 3 -8 3 -22
0 -30 -6 -14 -8 -13 -20 2 -12 16 -13 15 -11 -12 2 -25 -2 -30 -20 -29 -13 0
-23 -3 -23 -8 0 -4 7 -8 15 -8 19 0 19 -13 0 -51 -10 -17 -20 -27 -27 -23 -8
5 -9 2 -5 -9 7 -19 -31 -127 -44 -127 -5 0 -9 5 -9 10 0 6 -5 10 -11 10 -7 0
-5 -10 5 -25 9 -14 13 -31 9 -38 -4 -7 -9 -23 -11 -37 -3 -26 -22 -53 -22 -32
0 7 -5 12 -10 12 -7 0 -7 -7 0 -21 7 -13 9 -40 5 -70 -6 -41 -9 -48 -21 -38
-9 8 -14 8 -14 1 0 -6 4 -13 10 -17 8 -5 8 -23 1 -97 -1 -4 -9 -5 -18 -2 -16
5 -15 4 1 -10 16 -13 18 -20 8 -40 -6 -14 -8 -26 -4 -28 4 -2 5 -29 2 -61 -5
-56 -6 -57 -25 -44 -16 13 -17 17 -6 31 15 17 1 22 -15 6 -14 -14 -65 26 -58
44 3 8 1 17 -5 21 -6 3 -11 -1 -11 -9 0 -17 -16 -7 -67 41 -13 13 -49 35 -81
49 -49 22 -71 26 -157 27 -55 0 -113 -3 -130 -7 -16 -4 -64 -16 -105 -26 -48
-12 -78 -16 -86 -9 -7 6 -15 5 -23 -5 -10 -12 -48 -21 -128 -31 -12 -2 -34 -6
-50 -9 -44 -10 -75 -16 -111 -22 -31 -5 -33 -4 -22 15 7 14 7 21 1 21 -6 0
-13 -11 -17 -25 -3 -13 -9 -24 -13 -23 -5 1 -50 -10 -113 -28 -13 -4 -18 1
-19 18 -1 23 -1 23 -11 -3 -8 -18 -23 -29 -53 -38 -24 -7 -73 -28 -111 -47
-60 -30 -77 -34 -146 -34 -69 0 -77 2 -72 18 5 15 4 15 -8 2 -16 -19 -48 -25
-48 -9 0 8 -4 8 -13 1 -19 -15 -69 -12 -63 4 3 8 1 14 -4 14 -6 0 -10 -7 -10
-15 0 -14 -29 -15 -75 -4 -6 1 -18 -1 -29 -6 -11 -5 -26 -4 -37 3 -9 6 -19 7
-21 3 -2 -5 -78 -12 -169 -15 -91 -4 -178 -9 -192 -11 -15 -3 -38 -7 -52 -9
-19 -4 -33 6 -71 50 -51 59 -124 111 -194 138 -43 17 -221 58 -227 52 -5 -5
59 -121 104 -188 25 -38 70 -92 99 -122 50 -50 152 -111 203 -121 12 -2 30 -6
39 -9 36 -12 123 -18 247 -19 154 -1 314 10 600 39 28 3 82 7 120 10 107 6
217 14 248 19 15 2 25 -1 21 -6 -7 -11 8 -12 38 0 13 5 53 12 88 16 36 4 74 9
85 11 11 2 37 6 58 9 21 3 50 8 64 11 24 6 26 5 20 -17 -6 -23 -5 -23 17 4 12
15 31 29 42 31 10 3 61 18 112 35 120 40 172 40 172 2 0 -14 2 -14 10 -1 8 13
11 12 24 -5 9 -11 16 -24 16 -28 0 -5 7 -16 16 -24 8 -9 13 -24 11 -34 -3 -12
0 -19 9 -19 16 0 33 -30 27 -47 -3 -7 0 -13 5 -13 6 0 21 -21 34 -47 12 -27
37 -70 55 -97 38 -55 40 -71 16 -85 -10 -6 -13 -10 -8 -11 6 0 16 4 24 9 10 7
20 2 34 -15 18 -24 18 -26 2 -45 -10 -10 -15 -22 -10 -27 4 -4 10 -1 12 6 9
25 30 11 79 -55 29 -38 65 -84 82 -103 83 -97 120 -145 112 -148 -4 -2 -28 6
-52 16 -78 35 -172 70 -245 93 -46 15 -73 28 -73 37 0 10 -4 11 -12 5 -14 -10
-16 -10 -68 1 -19 4 -42 8 -50 10 -8 1 -30 6 -48 10 l-33 8 22 19 c28 24 12
25 -21 2 -20 -14 -42 -17 -113 -15 -69 3 -94 0 -114 -13 -13 -9 -27 -14 -30
-11 -4 3 -11 2 -17 -3 -6 -6 -36 -12 -66 -15 -53 -5 -144 -32 -192 -56 -12 -7
-46 -30 -73 -51 -32 -24 -84 -49 -145 -68 -111 -36 -101 -35 -94 -16 8 21 -2
19 -23 -5 -23 -23 -197 -92 -201 -79 -2 5 -11 0 -20 -11 -10 -10 -48 -36 -87
-56 -38 -20 -72 -39 -75 -43 -19 -23 -198 -92 -185 -70 9 13 -6 11 -24 -4 -14
-12 -59 -24 -149 -42 -25 -4 -28 4 -9 24 10 11 9 12 -3 6 -8 -5 -21 -16 -27
-26 -7 -9 -36 -23 -65 -30 -98 -23 -233 -70 -301 -105 -67 -34 -71 -35 -123
-24 -29 6 -56 11 -59 11 -2 0 -19 4 -37 10 -101 29 -365 32 -417 4 -30 -15
-33 -20 -27 -48 13 -65 139 -156 236 -171 137 -21 338 -27 420 -13 111 20 109
21 104 -5 -3 -20 -2 -20 8 4 10 22 23 29 94 47 46 12 87 20 91 19 5 0 21 4 36
10 51 21 77 25 77 11 0 -8 4 -7 13 4 7 10 39 26 72 36 55 17 61 17 73 2 12
-14 12 -14 8 4 -5 17 2 24 42 38 26 10 76 35 112 57 67 40 64 39 255 55 53 4
201 43 238 62 29 14 30 14 24 -6 -8 -31 9 -26 22 7 6 15 21 32 34 38 12 7 50
26 83 43 34 18 74 32 90 32 16 -1 36 -1 44 -1 8 0 47 7 85 16 39 10 82 17 98
17 15 0 27 5 27 11 1 11 126 77 144 76 4 0 6 -7 2 -15 -7 -20 4 -19 18 1 10
13 16 13 39 3 14 -6 24 -15 22 -19 -10 -15 -13 -60 -4 -60 5 0 9 8 9 18 0 10
3 22 7 25 9 9 229 -205 225 -220 -2 -7 3 -10 12 -7 19 7 97 -47 91 -65 -4 -9
0 -11 11 -7 17 6 71 -21 113 -58 13 -12 21 -15 17 -8 -7 11 -4 11 13 0 12 -7
21 -16 21 -21 0 -4 5 -5 10 -2 6 4 17 1 25 -5 8 -7 15 -10 15 -7 0 4 20 -2 45
-13 25 -11 46 -19 48 -19 13 2 97 -27 97 -34 0 -5 6 -7 14 -4 8 3 29 2 48 -3
30 -8 70 -16 123 -24 52 -8 93 -28 104 -52 13 -30 6 -48 -18 -39 -9 4 -20 8
-26 9 -5 1 -41 12 -80 23 -38 11 -101 28 -140 37 -38 9 -79 19 -90 22 -24 6
-106 15 -156 18 -20 1 -44 8 -53 15 -14 12 -16 12 -11 -1 4 -11 -8 -18 -52
-28 -38 -8 -71 -23 -94 -44 -20 -17 -65 -47 -100 -66 -128 -70 -350 -318 -410
-458 -11 -24 -23 -40 -29 -37 -5 3 -10 -2 -10 -12 0 -10 -14 -34 -31 -53 -34
-39 -146 -164 -169 -189 -8 -9 -27 -32 -41 -51 -15 -19 -36 -45 -48 -57 -12
-12 -21 -27 -21 -33 0 -5 -3 -10 -7 -10 -5 0 -19 -17 -33 -38 -14 -20 -35 -48
-47 -62 -13 -14 -23 -28 -23 -33 0 -4 -4 -6 -9 -3 -5 4 -20 1 -33 -4 -22 -10
-22 -10 5 -5 15 3 27 3 27 0 0 -3 -20 -33 -44 -68 -23 -35 -46 -77 -50 -92 -7
-29 -76 -101 -210 -220 -172 -154 -372 -362 -436 -455 -51 -74 -60 -82 -171
-133 -223 -103 -383 -246 -412 -367 -10 -43 6 -55 75 -56 60 -1 173 17 221 35
12 5 24 8 27 8 9 -1 124 64 160 91 19 14 80 71 135 127 104 106 260 229 276
220 5 -4 9 0 9 7 0 12 71 78 84 78 3 0 6 -9 6 -19 0 -11 4 -23 10 -26 12 -7
12 2 0 30 -6 16 0 27 32 57 l40 37 20 -22 19 -22 -15 25 c-14 24 -13 27 62
105 42 45 97 112 121 150 88 139 111 171 163 222 57 56 154 148 185 174 37 32
190 203 241 271 28 38 63 94 77 124 18 38 30 54 44 54 11 0 23 4 26 10 4 6 -1
7 -12 3 -31 -12 3 23 60 61 62 42 166 128 166 139 1 4 19 32 41 61 22 29 54
81 71 115 l31 62 46 -43 c26 -23 64 -58 85 -77 23 -21 37 -44 38 -60 1 -25 1
-25 7 -4 l7 23 43 -28 c23 -16 39 -32 35 -36 -4 -4 0 -4 8 -1 13 5 40 1 119
-20 8 -2 26 -4 39 -4 24 -1 24 -1 5 -16 -17 -13 -15 -13 18 0 20 8 43 13 50
10 7 -2 37 -6 66 -9 60 -5 63 -6 63 -32 -7 -413 -7 -625 0 -630 14 -9 10 -86
-7 -140 -22 -66 -83 -234 -94 -259 -5 -11 -25 -67 -46 -125 -20 -58 -39 -111
-42 -119 -4 -11 -7 -10 -13 5 -6 16 -8 16 -8 2 -1 -9 3 -19 9 -23 6 -3 6 -14
0 -28 -5 -12 -23 -71 -40 -132 -18 -60 -34 -117 -37 -125 -4 -8 -7 -26 -8 -40
-1 -23 -11 -93 -19 -145 -2 -13 -10 -19 -22 -18 -18 1 -18 1 -1 -11 16 -13 16
-18 -8 -101 -14 -48 -41 -120 -59 -159 -50 -107 -162 -297 -171 -288 -5 4 -5
2 -2 -4 4 -6 -9 -49 -28 -95 -62 -152 -81 -263 -63 -372 5 -32 3 -37 -9 -32
-13 4 -13 3 -4 -9 8 -10 9 -21 1 -41 -15 -40 -48 -173 -54 -220 -16 -118 -19
-160 -20 -260 -1 -104 1 -114 31 -177 45 -95 79 -98 165 -15 100 96 158 278
163 510 0 15 2 27 5 27 3 0 6 25 7 56 1 58 17 95 88 212 33 54 40 61 46 44 4
-11 12 -23 18 -26 5 -4 3 7 -5 24 -14 27 -14 35 4 88 28 81 44 167 66 367 12
102 49 239 88 322 26 56 31 63 45 51 14 -12 15 -11 4 7 -11 17 -6 35 39 130
29 61 67 143 86 183 18 40 40 75 48 78 9 3 16 10 16 16 0 5 -5 6 -12 2 -7 -5
-9 -2 -5 7 97 225 190 479 227 617 6 23 15 42 21 42 6 0 7 4 4 10 -10 15 24
103 48 125 12 11 18 17 13 12 -21 -16 -23 -5 -9 50 8 31 22 63 31 70 15 11 15
12 1 8 -15 -6 -15 1 -2 66 15 84 28 106 51 87 8 -7 17 -12 18 -11 2 1 19 -4
38 -12 20 -8 40 -15 46 -15 6 0 27 -7 48 -16 20 -10 45 -16 55 -15 10 1 17 -5
18 -16 0 -10 3 -13 6 -5 6 14 29 16 38 3 3 -5 -4 -33 -15 -63 -11 -29 -23 -71
-27 -93 -10 -48 -9 -198 0 -241 20 -91 81 -215 156 -315 136 -180 409 -376
621 -444 30 -10 64 -21 75 -25 126 -49 307 -46 341 5 45 69 -31 190 -271 431
-93 94 -229 226 -302 294 -73 67 -130 126 -128 130 2 4 16 60 30 126 32 149
33 153 45 134 8 -12 10 -12 10 -1 0 9 10 12 33 9 20 -2 39 2 46 9 7 8 16 11
21 8 4 -3 11 2 14 11 5 14 9 14 23 3 9 -8 14 -9 10 -3 -13 23 31 23 47 0 13
-18 15 -18 9 -2 -6 17 -3 18 23 12 16 -4 33 -8 39 -9 5 -1 13 -9 17 -17 5 -12
7 -12 7 2 1 14 6 16 24 10 32 -11 108 -3 142 16 15 7 26 7 40 -1 18 -9 19 -9
6 6 -7 9 -9 17 -4 17 5 0 17 13 26 30 17 29 19 29 43 14 15 -10 24 -12 24 -5
0 6 -6 11 -14 11 -21 0 -27 14 -20 48 5 22 10 29 22 25 11 -5 13 -3 6 8 -12
19 -13 59 -1 59 5 0 6 7 3 16 -4 10 1 22 11 31 10 8 12 12 6 8 -15 -7 -19 50
-5 59 4 2 40 -25 78 -62 39 -37 116 -110 172 -162 l101 -95 -10 -45 c-6 -25
-13 -54 -15 -65 -3 -11 -7 -31 -10 -45 -3 -14 -9 -41 -14 -60 -5 -19 -11 -46
-14 -60 -3 -14 -17 -77 -31 -140 -63 -284 -76 -368 -80 -505 -2 -124 19 -172
81 -177 102 -7 294 183 418 415 68 129 133 314 154 440 9 56 9 293 0 337 -22
104 -58 185 -117 265 -21 28 -52 75 -69 106 l-32 57 35 -1 c19 -1 35 -4 35 -7
0 -3 21 -5 48 -5 26 0 58 -4 71 -9 15 -5 21 -5 18 2 -4 5 5 8 21 5 33 -4 116
-4 157 0 17 2 41 -3 55 -11 22 -12 23 -12 8 0 -10 8 -15 18 -11 21 17 18 49 2
110 -57 170 -160 223 -206 310 -265 62 -42 173 -147 173 -164 0 -4 9 -18 21
-30 12 -12 48 -58 82 -102 33 -44 87 -112 119 -152 32 -39 58 -74 58 -77 0 -3
15 -20 33 -38 18 -18 59 -64 92 -103 33 -38 64 -73 70 -78 6 -5 3 -13 -9 -22
-11 -8 -15 -15 -10 -15 6 0 15 5 20 10 7 7 26 -4 60 -36 27 -25 68 -62 91 -81
24 -19 40 -39 37 -44 -3 -5 0 -9 7 -9 12 0 50 -39 77 -80 9 -14 34 -49 56 -79
37 -51 38 -55 21 -68 -11 -7 -14 -13 -9 -13 6 0 15 5 21 11 7 7 20 -2 44 -33
57 -74 141 -171 218 -252 31 -33 55 -66 53 -74 -2 -8 1 -11 7 -7 6 3 30 -7 53
-22 24 -16 60 -38 82 -48 38 -20 73 -53 243 -234 91 -98 217 -199 281 -227 20
-8 44 -19 52 -24 42 -21 155 -29 173 -11 24 24 12 89 -39 200 -70 151 -238
309 -394 371 -64 25 -81 43 -122 124 -35 70 -110 191 -127 206 -3 3 -26 30
-51 60 -92 113 -176 198 -280 280 -70 56 -94 78 -71 65 9 -5 12 -4 7 3 -4 7
-14 12 -22 12 -29 0 -118 106 -215 254 -132 202 -225 338 -255 373 -13 15 -25
31 -25 36 -1 4 -2 13 -3 20 0 6 -6 12 -12 12 -6 0 -24 16 -40 35 -56 68 -205
210 -220 210 -8 0 -11 4 -73 84 -42 55 -43 57 -25 72 18 14 18 15 -2 5 -19 -9
-28 -1 -84 70 -94 119 -259 262 -320 278 -8 2 -33 8 -55 14 -44 11 -153 111
-132 121 7 3 2 3 -10 0 -13 -3 -23 -2 -23 3 0 4 -25 19 -54 33 -44 20 -52 28
-43 39 10 12 9 13 -8 4 -12 -6 -80 -10 -165 -8 -80 1 -147 -1 -150 -5 -3 -3
-31 -14 -63 -23 -55 -15 -58 -15 -52 1 4 12 0 11 -17 -6 -21 -19 -88 -42 -88
-30 0 27 26 68 48 76 57 21 253 61 269 55 11 -4 14 -3 9 5 -4 7 0 15 11 18 10
3 37 15 60 25 23 10 48 20 55 21 7 2 15 5 18 8 11 11 70 50 75 50 27 0 183
127 291 237 144 145 152 150 222 114 20 -11 71 -43 112 -73 41 -30 92 -64 113
-77 20 -12 37 -28 37 -33 0 -6 3 -9 6 -5 19 18 149 -95 139 -120 -2 -7 2 -13
9 -13 20 0 94 -92 88 -109 -2 -8 0 -11 6 -8 5 4 45 -34 88 -85 43 -50 101
-114 129 -140 61 -60 167 -138 187 -138 8 0 31 -16 51 -35 39 -38 123 -155
111 -155 -4 0 2 -8 12 -18 10 -9 28 -31 40 -47 11 -17 31 -44 44 -62 20 -28
21 -34 9 -50 -13 -16 -12 -17 3 -5 20 16 16 18 82 -56 38 -42 39 -43 20 -65
l-19 -22 22 18 c21 18 22 18 70 -28 64 -62 115 -97 204 -139 41 -20 84 -44 94
-53 115 -103 250 -192 358 -234 128 -49 267 -51 267 -3 0 27 -66 119 -135 188
-84 83 -209 166 -295 197 -88 32 -98 40 -170 144 -34 50 -77 108 -94 130 -17
22 -38 49 -46 59 -38 49 -232 236 -246 236 -12 0 -155 123 -178 153 -13 18
-35 52 -48 77 -13 25 -43 74 -66 110 -29 46 -40 72 -36 90 3 20 3 21 -4 6 -7
-16 -16 -9 -60 51 -57 77 -211 230 -284 282 -27 20 -68 65 -95 105 -104 153
-242 246 -431 290 -59 14 -301 16 -357 3 -11 -3 -42 -8 -68 -11 -26 -4 -78
-18 -115 -31 -50 -18 -68 -21 -75 -12 -6 8 -7 6 -3 -6 4 -11 0 -20 -11 -24
-10 -4 -50 -28 -90 -55 -40 -26 -77 -48 -83 -48 -5 0 -10 -4 -10 -8 0 -8 -175
-152 -184 -152 -2 0 -6 6 -9 13 -2 6 -3 4 -1 -6 1 -10 -5 -26 -15 -35 -99 -93
-90 -88 -107 -66 -14 18 -15 18 -4 -4 9 -19 6 -28 -22 -62 -42 -51 -58 -55
-105 -32 -35 18 -66 27 -117 38 -11 2 -24 8 -29 13 -11 11 7 72 34 116 40 64
35 62 66 35 l28 -25 -22 26 -23 25 31 32 c31 32 32 32 53 15 21 -18 21 -18 4
3 -17 20 -17 21 11 48 18 17 34 25 42 21 8 -6 10 -4 4 4 -5 9 11 32 46 67 48
49 54 52 66 36 13 -15 13 -15 4 4 -9 18 0 30 63 93 39 39 76 68 81 64 4 -4 5
-3 2 3 -3 6 19 39 51 73 54 59 58 62 85 52 18 -7 26 -7 22 -1 -3 6 -13 10 -21
10 -21 0 -17 22 9 50 12 14 38 46 57 73 23 32 37 44 44 37 5 -5 14 -10 20 -10
5 0 1 6 -9 14 -17 12 -17 17 -5 45 7 18 23 39 34 46 24 15 89 9 79 -8 -4 -6
-1 -7 8 -1 14 8 29 10 117 14 44 2 102 -16 102 -32 0 -5 4 -6 10 -3 5 3 24 -1
42 -9 57 -26 145 -51 348 -102 8 -2 49 -13 90 -24 138 -39 255 -63 302 -63 73
0 218 88 334 204 71 70 111 137 116 194 3 38 2 40 -27 41 -86 2 -206 -56 -314
-151 -66 -58 -71 -60 -131 -30 -48 23 -227 65 -340 79 -47 6 -107 31 -210 88
-47 25 -116 56 -155 68 -38 11 -88 26 -110 33 -22 6 -48 20 -57 29 -10 10 -19
17 -20 16 -2 -1 -34 7 -71 17 -108 29 -157 15 -327 -90 -76 -47 -143 -85 -148
-85 -5 0 -12 -6 -15 -14 -3 -7 -20 -24 -38 -37 -18 -12 -29 -17 -24 -9 5 9 4
11 -3 6 -7 -4 -12 -13 -12 -20 0 -19 -77 -85 -113 -95 -25 -7 -27 -9 -9 -10
21 -1 21 -3 -13 -37 -23 -23 -42 -34 -52 -30 -12 5 -13 3 -5 -6 7 -10 4 -21
-14 -41 -26 -31 -43 -28 -45 6 -1 18 -2 18 -6 4 -3 -10 0 -24 6 -31 8 -9 4
-21 -14 -46 -14 -19 -29 -36 -33 -39 -10 -7 -92 -117 -109 -146 -11 -20 -12
-20 -22 5 -11 24 -11 24 -6 -5 5 -25 -3 -44 -45 -103 -51 -72 -102 -115 -152
-127 -29 -7 -29 -10 -13 70 4 24 73 199 108 275 40 87 172 399 197 465 12 33
28 74 35 90 38 88 84 262 99 380 17 121 11 112 74 120 59 7 66 9 147 25 66 13
88 13 230 5 116 -7 121 -6 155 17 40 28 107 118 148 203 43 88 58 169 41 223
-6 17 -12 32 -13 32 -30 0 -206 -154 -206 -180 0 -5 -10 -18 -22 -30 -19 -17
-35 -20 -127 -20 -63 0 -131 7 -166 16 -126 32 -162 35 -224 19 -33 -8 -76
-15 -97 -15 -88 0 -205 -87 -250 -184 -13 -28 -35 -64 -50 -81 -51 -58 -76
-135 -109 -335 -12 -75 -17 -77 -36 -14 -23 73 -23 81 -1 87 10 3 6 5 -10 6
-33 1 -38 26 -10 48 14 12 14 14 1 10 -23 -7 -34 3 -57 51 l-20 42 31 1 32 2
-37 10 c-22 6 -40 19 -47 34 -14 31 -14 33 7 33 14 0 15 2 2 9 -8 6 -17 8 -21
5 -4 -2 -12 3 -19 12 -10 11 -10 18 -2 26 18 18 14 30 -7 19 -15 -8 -20 -6
-30 15 -15 33 -14 37 4 30 8 -3 15 -1 15 4 0 5 -12 10 -27 12 -23 2 -28 8 -28
31 1 17 -4 26 -11 23 -13 -5 -44 24 -44 40 0 5 -18 27 -39 49 -21 22 -36 46
-33 53 2 7 1 12 -4 11 -24 -4 -36 2 -30 16 3 10 -1 15 -13 15 -23 0 -36 30
-19 43 9 6 4 7 -13 3 -20 -4 -33 2 -58 28 -21 21 -29 36 -22 40 6 4 11 12 11
19 0 8 -3 8 -12 -1 -17 -17 -31 -15 -54 6 -10 10 -36 28 -56 41 -21 12 -38 27
-38 32 0 5 -8 9 -17 9 -10 0 -25 5 -33 10 -12 7 -7 12 20 24 29 12 31 15 12
16 -12 0 -30 -5 -40 -11 -25 -16 -97 14 -88 37 5 12 2 15 -11 9 -23 -8 -24 -8
-50 0 -27 9 -29 21 -6 34 10 5 15 12 11 16 -3 4 -16 -3 -28 -15 -25 -25 -70
-21 -70 8 0 14 -2 15 -10 2 -7 -12 -15 -13 -40 -3 -17 7 -37 10 -44 7 -7 -3
-23 0 -37 5 -13 5 -18 10 -11 10 6 1 12 6 12 12 0 7 -10 5 -25 -5 -24 -16 -85
-22 -85 -9 0 3 7 15 17 25 9 10 11 18 5 18 -6 0 -19 -11 -30 -25 -14 -17 -29
-25 -49 -24 -15 0 -41 -2 -57 -6 -28 -6 -28 -5 -23 25 7 34 5 37 -13 15z"/>
<path d="M4365 8250 c-3 -5 -1 -10 4 -10 6 0 11 5 11 10 0 6 -2 10 -4 10 -3 0
-8 -4 -11 -10z"/>
<path d="M6490 7080 c-8 -5 -12 -12 -9 -15 4 -3 12 1 19 10 14 17 11 19 -10 5z"/>
<path d="M6880 7010 c-8 -5 -10 -10 -5 -10 6 0 17 5 25 10 8 5 11 10 5 10 -5
0 -17 -5 -25 -10z"/>
<path d="M6735 6680 c-3 -5 -1 -10 4 -10 6 0 11 5 11 10 0 6 -2 10 -4 10 -3 0
-8 -4 -11 -10z"/>
<path d="M7941 5724 c0 -11 3 -14 6 -6 3 7 2 16 -1 19 -3 4 -6 -2 -5 -13z"/>
<path d="M6740 5616 c0 -2 8 -10 18 -17 15 -13 16 -12 3 4 -13 16 -21 21 -21
13z"/>
<path d="M6636 5527 c3 -10 9 -15 12 -12 3 3 0 11 -7 18 -10 9 -11 8 -5 -6z"/>
<path d="M3235 5410 c3 -5 8 -10 11 -10 2 0 4 5 4 10 0 6 -5 10 -11 10 -5 0
-7 -4 -4 -10z"/>
<path d="M6426 5341 c-4 -5 3 -7 14 -4 23 6 26 13 6 13 -8 0 -17 -4 -20 -9z"/>
<path d="M6784 5184 c-18 -14 -18 -15 4 -4 12 6 22 13 22 15 0 8 -5 6 -26 -11z"/>
<path d="M7811 5144 c0 -11 3 -14 6 -6 3 7 2 16 -1 19 -3 4 -6 -2 -5 -13z"/>
<path d="M2490 4969 c0 -5 5 -7 10 -4 6 3 10 8 10 11 0 2 -4 4 -10 4 -5 0 -10
-5 -10 -11z"/>
<path d="M8140 4835 c-7 -9 -8 -15 -2 -15 5 0 12 7 16 15 3 8 4 15 2 15 -2 0
-9 -7 -16 -15z"/>
<path d="M2910 4780 c-12 -7 -10 -9 7 -7 12 0 19 5 17 9 -6 10 -6 10 -24 -2z"/>
<path d="M2212 4610 c0 -14 2 -19 5 -12 2 6 2 18 0 25 -3 6 -5 1 -5 -13z"/>
<path d="M3590 4391 c5 -11 15 -23 21 -27 6 -3 3 5 -6 20 -20 30 -30 35 -15 7z"/>
<path d="M5548 4343 c7 -3 16 -2 19 1 4 3 -2 6 -13 5 -11 0 -14 -3 -6 -6z"/>
<path d="M5210 4210 c0 -5 5 -10 10 -10 6 0 10 5 10 10 0 6 -4 10 -10 10 -5 0
-10 -4 -10 -10z"/>
<path d="M4160 4200 c-9 -6 -10 -10 -3 -10 6 0 15 5 18 10 8 12 4 12 -15 0z"/>
<path d="M7356 4063 c-6 -14 -5 -15 5 -6 7 7 10 15 7 18 -3 3 -9 -2 -12 -12z"/>
<path d="M7411 3984 c0 -11 3 -14 6 -6 3 7 2 16 -1 19 -3 4 -6 -2 -5 -13z"/>
<path d="M2141 3974 c0 -11 3 -14 6 -6 3 7 2 16 -1 19 -3 4 -6 -2 -5 -13z"/>
<path d="M7410 3949 c0 -5 5 -7 10 -4 6 3 10 8 10 11 0 2 -4 4 -10 4 -5 0 -10
-5 -10 -11z"/>
<path d="M4070 3920 c-13 -8 -12 -10 3 -10 9 0 17 5 17 10 0 12 -1 12 -20 0z"/>
<path d="M1563 3798 c-2 -18 0 -20 7 -8 12 18 13 30 2 30 -4 0 -9 -10 -9 -22z"/>
<path d="M4020 3810 c8 -5 20 -10 25 -10 6 0 3 5 -5 10 -8 5 -19 10 -25 10 -5
0 -3 -5 5 -10z"/>
<path d="M8246 3625 c-9 -26 -7 -32 5 -12 6 10 9 21 6 23 -2 3 -7 -2 -11 -11z"/>
<path d="M8370 3515 c0 -5 5 -17 10 -25 5 -8 10 -10 10 -5 0 6 -5 17 -10 25
-5 8 -10 11 -10 5z"/>
<path d="M3370 3271 c0 -5 5 -13 10 -16 6 -3 10 -2 10 4 0 5 -4 13 -10 16 -5
3 -10 2 -10 -4z"/>
<path d="M8794 3044 c-18 -14 -18 -15 4 -4 12 6 22 13 22 15 0 8 -5 6 -26 -11z"/>
<path d="M8357 2883 c-4 -3 -7 -11 -7 -17 0 -6 5 -5 12 2 6 6 9 14 7 17 -3 3
-9 2 -12 -2z"/>
<path d="M3260 2770 c-9 -6 -10 -10 -3 -10 6 0 15 5 18 10 8 12 4 12 -15 0z"/>
<path d="M8680 2651 c0 -6 4 -13 10 -16 6 -3 7 1 4 9 -7 18 -14 21 -14 7z"/>
<path d="M3072 2410 c0 -14 2 -19 5 -12 2 6 2 18 0 25 -3 6 -5 1 -5 -13z"/>
<path d="M3311 1677 c2 -1 15 -11 29 -22 l25 -20 -19 23 c-11 12 -24 22 -29
22 -6 0 -8 -1 -6 -3z"/>
</g>
</svg>
