<?xml version="1.0" standalone="no"?>
<!DOCTYPE svg PUBLIC "-//W3C//DTD SVG 20010904//EN"
 "http://www.w3.org/TR/2001/REC-SVG-20010904/DTD/svg10.dtd">
<svg version="1.0" xmlns="http://www.w3.org/2000/svg"
 width="1280.000000pt" height="1280.000000pt" viewBox="0 0 1280.000000 1280.000000"
 preserveAspectRatio="xMidYMid meet">
<metadata>
Created by potrace 1.14, written by Peter Selinger 2001-2017
</metadata>
<g transform="translate(0.000000,1280.000000) scale(0.100000,-0.100000)"
fill="#000000" stroke="none">
<path d="M3745 12295 c-272 -50 -509 -203 -692 -448 -63 -85 -117 -172 -130
-209 -3 -10 -9 -18 -14 -18 -5 0 -9 -4 -9 -9 0 -5 -11 -34 -25 -65 -14 -31
-25 -58 -25 -61 0 -3 -6 -18 -14 -34 -14 -27 -80 -234 -90 -283 -10 -46 -15
-70 -20 -86 -5 -16 -11 -55 -21 -127 -3 -16 -7 -40 -9 -52 -28 -137 -28 -614
0 -813 2 -19 6 -48 8 -65 9 -68 18 -124 33 -195 8 -41 17 -86 20 -99 2 -14 6
-28 8 -31 2 -4 7 -22 10 -41 11 -65 78 -286 131 -429 112 -300 280 -612 456
-847 44 -60 84 -110 87 -113 3 -3 27 -30 52 -60 75 -89 218 -228 299 -290 25
-19 47 -37 50 -40 15 -16 80 -60 88 -60 6 0 12 -3 14 -8 9 -21 215 -129 333
-175 120 -47 278 -79 395 -80 25 0 86 3 135 8 89 8 100 10 110 15 6 3 11 4 50
14 73 18 269 104 285 124 3 4 30 24 60 44 46 31 199 180 235 229 60 81 85 118
85 128 0 6 4 11 8 11 8 0 90 158 130 250 36 82 103 300 116 375 3 17 10 55 16
85 6 30 13 73 16 95 3 22 7 51 9 65 25 137 25 632 0 755 -2 11 -7 43 -9 72 -3
28 -8 57 -10 65 -3 7 -7 31 -10 53 -27 208 -147 627 -231 812 -8 17 -15 34
-15 37 0 14 -129 272 -183 366 -100 176 -237 371 -347 495 -87 99 -294 294
-339 319 -9 5 -22 16 -30 23 -22 23 -121 87 -209 136 -139 78 -315 141 -452
163 -75 12 -287 11 -355 -1z"/>
<path d="M8630 12291 c-93 -19 -263 -71 -268 -83 -2 -5 -10 -8 -18 -8 -27 0
-273 -139 -337 -190 -193 -154 -319 -276 -460 -449 -61 -75 -195 -269 -232
-336 -7 -11 -33 -58 -60 -105 -83 -145 -188 -384 -254 -575 -30 -85 -96 -314
-106 -364 -2 -12 -6 -30 -9 -39 -3 -9 -7 -28 -10 -42 -2 -14 -11 -63 -20 -110
-19 -102 -23 -128 -31 -200 -3 -30 -8 -66 -10 -80 -21 -141 -21 -502 1 -679
10 -83 15 -119 24 -166 5 -27 12 -63 15 -80 12 -76 87 -334 104 -360 4 -5 18
-37 31 -70 47 -118 146 -287 227 -385 102 -125 274 -261 399 -316 32 -14 68
-30 79 -35 47 -21 174 -49 249 -55 69 -6 211 -8 211 -4 0 1 14 3 30 5 17 3 62
11 100 20 39 8 81 18 94 21 100 22 424 181 439 216 2 5 8 8 13 8 10 0 82 54
169 128 68 57 233 223 280 281 19 24 40 48 45 55 55 58 285 402 285 425 0 5 3
11 8 13 10 4 162 313 162 330 0 8 4 18 9 24 31 33 184 502 206 634 3 19 10 51
15 70 5 19 12 51 15 70 3 19 7 46 10 60 7 40 21 141 30 211 12 104 17 213 17
369 0 189 -6 282 -28 430 -9 58 -18 114 -19 125 -4 32 -52 215 -73 280 -127
390 -355 692 -643 853 -61 34 -179 78 -259 97 -104 25 -318 27 -430 6z"/>
<path d="M11436 8683 c-161 -30 -398 -107 -526 -172 -150 -77 -395 -227 -450
-277 -8 -8 -58 -49 -110 -93 -111 -92 -237 -214 -335 -326 -38 -44 -76 -86
-82 -93 -7 -7 -13 -16 -13 -20 0 -4 -16 -25 -36 -47 -80 -92 -324 -484 -324
-522 0 -7 -4 -13 -10 -13 -5 0 -10 -6 -10 -13 0 -7 -11 -35 -24 -63 -56 -118
-142 -368 -159 -464 -3 -14 -10 -43 -15 -65 -6 -22 -13 -62 -17 -90 -3 -27
-10 -77 -15 -110 -8 -58 -6 -360 3 -420 31 -203 93 -372 189 -517 242 -361
687 -521 1178 -423 14 3 34 7 45 9 194 38 463 147 670 274 39 24 79 48 90 55
10 7 25 18 33 25 7 6 23 17 34 23 11 6 57 39 103 75 202 155 409 365 564 569
33 44 64 85 68 90 49 58 182 283 251 420 80 161 185 445 206 559 2 12 11 58
20 104 9 46 19 111 23 145 9 74 8 384 -1 447 -8 56 -56 249 -66 270 -5 8 -16
33 -25 55 -109 259 -310 459 -555 552 -54 21 -93 34 -97 34 -2 0 -17 5 -35 10
-18 5 -49 12 -68 15 -19 3 -44 8 -55 11 -11 4 -87 7 -170 8 -120 1 -176 -3
-279 -22z"/>
<path d="M1057 8074 c-1 -1 -29 -3 -62 -5 -33 -1 -64 -4 -69 -7 -5 -3 -23 -6
-40 -8 -175 -18 -418 -153 -557 -309 -55 -61 -129 -165 -129 -181 0 -8 -4 -14
-8 -14 -14 0 -88 -170 -121 -280 -21 -66 -26 -87 -42 -175 -33 -181 -33 -483
0 -700 63 -406 237 -833 495 -1215 158 -233 415 -509 615 -660 18 -14 45 -34
59 -45 88 -66 252 -163 361 -212 42 -19 85 -38 96 -44 62 -28 251 -81 340 -94
23 -3 52 -8 65 -11 32 -6 216 -5 272 2 356 46 631 245 802 579 63 124 120 320
142 490 15 117 8 475 -12 580 -2 11 -9 47 -15 80 -6 33 -13 70 -15 81 -35 190
-135 468 -250 699 -102 206 -190 345 -328 525 -94 123 -128 161 -256 290 -121
120 -115 115 -340 290 -108 84 -383 222 -545 274 -80 26 -96 30 -190 47 -83
15 -260 30 -268 23z"/>
<path d="M6409 6286 c-2 -2 -29 -6 -59 -9 -30 -4 -93 -16 -140 -27 -47 -12
-94 -23 -105 -25 -22 -4 -98 -30 -130 -44 -11 -5 -58 -24 -105 -42 -224 -86
-539 -267 -815 -468 -102 -74 -294 -223 -329 -256 -6 -5 -40 -35 -76 -65 -281
-239 -640 -606 -885 -904 -22 -27 -45 -54 -50 -60 -6 -6 -42 -51 -80 -101 -38
-49 -72 -92 -75 -95 -13 -10 -154 -209 -249 -350 -317 -471 -544 -932 -667
-1355 -29 -101 -30 -108 -49 -195 -19 -86 -29 -150 -41 -255 -10 -91 -4 -348
11 -415 2 -14 7 -36 10 -50 2 -14 7 -38 11 -55 31 -156 161 -393 294 -536 8
-9 34 -37 58 -62 62 -67 157 -147 236 -201 118 -80 329 -174 431 -192 17 -3
46 -9 65 -14 65 -17 164 -25 325 -25 181 0 262 7 414 36 58 12 116 21 129 22
12 0 22 4 22 7 0 3 13 7 29 8 16 1 59 11 94 22 35 11 76 21 91 22 14 1 26 6
26 10 0 4 3 7 8 6 8 -2 75 16 142 38 255 82 685 227 720 241 8 3 20 7 25 8 6
2 60 18 120 38 109 35 272 80 330 92 199 41 273 50 395 49 260 -1 485 -59
1195 -304 343 -118 713 -226 845 -245 24 -4 47 -8 50 -10 6 -4 58 -12 190 -29
91 -13 427 -14 480 -3 14 3 41 8 60 11 255 40 530 180 719 367 318 314 443
607 435 1014 -2 96 -9 190 -18 245 -3 14 -7 41 -10 60 -5 32 -17 92 -32 160
-10 48 -43 167 -53 193 -6 15 -8 27 -5 27 4 0 2 6 -3 13 -6 6 -13 25 -17 40
-8 32 -79 215 -129 333 -57 132 -179 370 -272 530 -78 133 -303 480 -354 544
-11 14 -55 72 -98 130 -67 91 -188 245 -203 260 -5 5 -38 44 -105 124 -177
212 -512 552 -739 751 -38 33 -76 67 -85 75 -29 27 -305 245 -361 285 -30 22
-56 43 -58 47 -2 5 -10 8 -17 8 -7 0 -15 3 -17 8 -3 6 -114 83 -173 119 -208
128 -255 154 -385 219 -210 104 -461 189 -645 219 -46 8 -319 17 -326 11z"/>
</g>
</svg>
