<?xml version="1.0" standalone="no"?>
<!DOCTYPE svg PUBLIC "-//W3C//DTD SVG 20010904//EN"
 "http://www.w3.org/TR/2001/REC-SVG-20010904/DTD/svg10.dtd">
<svg version="1.0" xmlns="http://www.w3.org/2000/svg"
 width="720.000000pt" height="720.000000pt" viewBox="0 0 720.000000 720.000000"
 preserveAspectRatio="xMidYMid meet">
<metadata>
Created by potrace 1.14, written by Peter Selinger 2001-2017
</metadata>
<g transform="translate(0.000000,720.000000) scale(0.100000,-0.100000)"
fill="#000000" stroke="none">
<path d="M4335 5056 c-16 -7 -66 -18 -110 -25 -44 -7 -87 -15 -97 -16 -9 -2
-38 -7 -65 -11 -26 -3 -59 -13 -73 -21 -24 -13 -23 -13 20 -8 25 3 71 10 104
16 32 5 60 8 63 6 7 -7 -165 -45 -237 -52 -25 -2 -70 -36 -63 -48 3 -6 1 -7
-5 -3 -11 6 -92 -59 -92 -74 0 -4 19 -4 43 0 44 9 92 16 155 25 20 3 44 8 52
11 8 3 11 1 6 -3 -4 -4 -73 -24 -154 -44 -143 -36 -147 -37 -170 -73 l-23 -37
48 5 48 5 -40 -10 c-22 -6 -45 -11 -52 -12 -12 0 -20 -13 -21 -31 0 -5 -6 -13
-14 -18 -11 -8 60 -4 122 7 8 1 32 5 53 9 20 4 37 5 37 2 0 -4 -47 -15 -125
-30 -82 -16 -115 -33 -115 -61 0 -2 28 5 63 16 59 18 71 21 127 34 14 3 115
27 225 54 110 27 201 48 203 46 6 -6 -351 -112 -408 -121 -19 -3 -60 -12 -90
-19 -30 -8 -71 -17 -90 -20 -33 -6 -53 -22 -45 -36 5 -7 5 -7 145 17 143 24
159 26 134 15 -12 -5 -35 -12 -52 -14 -61 -10 -227 -49 -234 -56 -5 -4 -11
-32 -14 -64 l-6 -56 33 9 c45 13 86 12 44 -1 -16 -5 -39 -11 -50 -13 -17 -2
-20 -12 -23 -63 -2 -46 1 -65 13 -77 10 -10 12 -16 5 -16 -7 0 -10 -8 -8 -18
4 -15 -16 -24 -139 -61 -136 -40 -261 -67 -269 -58 -5 4 144 44 269 73 85 19
102 29 54 30 -51 1 -151 12 -167 18 -8 3 -31 8 -50 10 -19 3 -64 12 -100 21
-51 13 -76 14 -115 7 -27 -6 -52 -8 -54 -6 -2 2 10 7 28 10 36 7 51 23 24 25
-26 2 -24 2 -73 -4 l-45 -6 35 14 c19 7 32 14 29 14 -3 1 -37 12 -75 26 -38
14 -75 23 -81 20 -7 -2 -12 1 -10 8 1 8 -15 11 -58 10 -56 -2 -57 -1 -25 8 26
8 31 13 19 19 -9 6 -56 -2 -124 -20 -61 -15 -114 -26 -119 -23 -4 3 34 16 85
30 52 13 101 26 109 29 23 8 -60 43 -92 39 -16 -2 -28 1 -28 6 0 5 8 9 18 9
13 0 14 2 4 9 -8 5 -34 2 -62 -6 -27 -8 -68 -13 -92 -11 l-43 3 60 14 c33 8
63 16 68 17 4 1 13 2 20 3 9 1 8 4 -2 10 -8 5 -24 8 -35 6 -12 -2 -48 -6 -81
-10 -33 -4 -71 -9 -85 -11 -19 -4 -21 -3 -10 4 8 5 44 13 80 18 36 4 68 9 73
10 4 1 10 2 13 3 8 1 -16 23 -49 44 -25 16 -31 16 -86 2 -33 -8 -74 -17 -90
-19 -52 -6 -24 12 49 30 39 10 70 22 70 26 0 10 -36 29 -43 22 -5 -5 -265 -82
-303 -90 -28 -5 -85 -12 -106 -13 -10 -1 -16 -9 -15 -21 2 -24 1 -24 63 -5 53
16 92 20 80 8 -4 -5 -11 -8 -14 -9 -15 -1 -88 -16 -104 -21 -19 -5 -24 -38
-10 -61 5 -7 17 -10 28 -7 17 6 18 6 2 -5 -20 -13 -25 -45 -5 -37 102 46 151
61 202 64 33 2 66 5 73 8 6 2 12 1 12 -3 0 -4 -28 -15 -63 -25 -160 -47 -226
-70 -222 -78 3 -4 16 -4 28 1 12 5 67 22 122 39 55 16 129 39 165 49 36 11 69
17 74 14 5 -3 -73 -29 -175 -59 -223 -64 -215 -61 -203 -73 5 -5 42 -5 88 0
44 5 82 8 84 6 2 -3 -31 -12 -72 -21 -42 -9 -76 -22 -76 -29 0 -19 17 -39 27
-33 23 15 353 100 398 103 40 3 22 -4 -85 -36 -74 -22 -173 -47 -220 -56 -98
-19 -105 -21 -90 -39 9 -10 21 -9 68 5 31 10 79 21 106 24 27 4 54 10 59 13 6
3 7 1 4 -4 -4 -6 -24 -14 -44 -17 -21 -4 -49 -11 -63 -16 -14 -5 -44 -14 -68
-20 -50 -13 -47 -30 6 -31 29 -1 32 -2 14 -7 -25 -8 -27 -17 -6 -47 13 -19 17
-18 186 24 95 23 198 49 230 56 31 8 87 17 125 20 l68 5 -90 -24 c-235 -62
-326 -84 -398 -96 -43 -7 -80 -16 -82 -20 -2 -4 18 -24 45 -44 28 -21 50 -39
50 -41 0 -1 -29 -2 -64 -1 -35 0 -62 4 -60 7 6 10 -45 21 -69 14 -12 -2 -16
-2 -8 1 9 4 -10 16 -49 30 -34 13 -66 24 -71 24 -9 0 -7 -66 3 -75 3 -4 23 -2
44 4 21 6 40 9 42 6 3 -2 -16 -9 -42 -16 -35 -8 -46 -16 -46 -31 0 -10 10 -23
23 -28 17 -7 18 -9 5 -9 -10 -1 -18 -6 -18 -12 0 -6 8 -8 18 -5 9 3 53 16 97
30 91 28 153 41 144 32 -4 -4 -58 -20 -120 -37 -63 -17 -118 -35 -123 -40 -13
-12 -3 -11 68 5 34 8 120 29 191 45 72 17 176 41 233 54 56 13 105 20 108 16
3 -5 1 -9 -3 -9 -12 0 -195 -43 -383 -89 -91 -23 -175 -44 -187 -46 -14 -3
-23 -13 -23 -24 0 -26 8 -30 43 -20 18 5 69 16 115 24 175 32 248 45 272 50
200 39 250 47 250 41 0 -2 -19 -9 -42 -14 -24 -5 -87 -22 -141 -37 -54 -14
-108 -28 -120 -31 -12 -2 -35 -7 -52 -11 -16 -4 -32 -7 -35 -8 -111 -26 -166
-36 -212 -38 -53 -2 -57 -4 -52 -22 4 -11 7 -20 8 -21 0 -1 46 6 101 16 55 9
104 15 109 12 5 -3 -37 -16 -92 -30 l-102 -25 21 -37 21 -37 96 27 c54 15 117
30 142 33 l45 7 -35 -16 c-29 -13 -117 -37 -219 -60 l-24 -5 23 -24 c13 -14
27 -22 31 -19 5 3 6 -2 3 -11 -7 -18 -13 -18 108 4 26 5 45 5 43 1 -3 -5 -27
-11 -53 -15 -78 -10 -83 -19 -37 -60 22 -19 46 -32 53 -30 7 3 11 1 8 -4 -8
-12 73 -63 90 -57 9 3 12 1 9 -4 -3 -6 6 -15 21 -20 22 -9 60 -5 168 14 78 14
186 32 241 41 157 23 179 27 189 33 5 3 6 0 2 -6 -4 -6 -23 -14 -44 -18 -60
-10 -395 -94 -417 -104 l-20 -9 20 -1 c18 -1 19 -1 2 -11 -9 -5 -22 -7 -27 -4
-6 3 -10 2 -10 -2 0 -10 -41 -17 -90 -14 -19 1 -67 -1 -107 -5 l-71 -6 10 -28
c11 -33 18 -33 150 -5 35 7 64 12 66 10 6 -5 -99 -32 -151 -40 -43 -6 -46 -8
-36 -27 9 -17 17 -19 47 -13 69 14 152 21 145 14 -5 -4 -19 -10 -33 -13 -85
-16 -130 -29 -130 -36 0 -5 19 -33 43 -62 40 -49 47 -53 83 -51 22 1 28 -1 14
-4 -35 -7 -50 -23 -21 -23 12 0 20 -4 17 -9 -3 -4 3 -16 14 -26 18 -16 22 -16
82 4 66 21 87 26 178 36 30 3 70 10 88 15 17 5 32 5 32 2 0 -7 -231 -78 -287
-89 -18 -3 -33 -8 -33 -12 0 -10 115 -71 134 -71 9 0 16 -4 16 -9 0 -9 118
-38 195 -47 28 -3 51 -7 53 -9 2 -1 -18 -16 -43 -31 -44 -29 -61 -52 -27 -39
55 21 251 57 437 80 28 4 66 11 85 16 55 14 70 9 20 -7 -158 -50 -395 -104
-565 -128 -74 -11 -100 -18 -140 -40 -47 -26 -178 -78 -250 -99 -158 -47 -304
-66 -477 -62 -65 2 -118 2 -118 0 0 -8 90 -55 105 -55 9 0 14 -4 10 -9 -11
-18 33 -21 96 -6 35 8 75 14 89 14 23 0 23 -1 5 -9 -11 -5 -46 -12 -77 -15
-32 -4 -58 -11 -58 -15 0 -17 55 -30 88 -21 19 6 32 6 32 0 0 -5 -9 -9 -20 -9
-40 0 -18 -16 65 -49 48 -19 96 -31 109 -29 16 3 23 1 20 -7 -3 -7 13 -17 40
-25 45 -12 69 -9 271 36 41 9 181 35 213 39 104 15 202 26 342 39 85 8 -321
-84 -524 -119 -82 -14 -152 -28 -155 -31 -3 -3 8 -4 25 -3 17 2 38 -1 45 -7 8
-6 21 -11 29 -12 8 0 36 -4 61 -9 51 -11 46 -11 153 11 88 18 108 16 44 -4
-24 -7 -47 -16 -51 -20 -17 -14 293 -10 366 5 39 8 84 16 99 19 15 3 63 12
105 20 43 9 89 17 103 20 108 18 245 48 259 56 21 12 4 12 -56 1 -79 -16 -206
-40 -243 -46 -19 -3 -80 -15 -135 -25 -55 -11 -117 -17 -137 -15 -21 2 -66 0
-100 -5 -35 -5 -92 -12 -128 -15 l-65 -5 80 24 c78 24 106 29 210 41 28 3 66
8 85 10 19 3 58 7 85 10 28 3 66 8 85 10 19 2 60 7 90 10 30 3 89 10 130 15
41 5 98 12 125 16 28 3 86 23 130 44 l80 38 -45 -3 c-25 -3 -67 -6 -95 -9 -27
-3 -79 -8 -115 -11 -36 -3 -78 -9 -95 -12 -66 -12 -10 10 96 39 140 37 175 44
264 53 77 8 97 11 126 20 34 11 11 23 -31 15 -22 -4 -40 -3 -40 1 0 5 9 10 20
10 11 1 25 3 30 4 6 1 25 3 43 4 18 0 42 9 53 19 10 10 36 28 57 41 20 12 37
26 37 30 0 4 -33 2 -72 -5 -141 -23 -149 -23 -146 -12 4 12 11 13 98 23 30 3
64 8 75 10 11 2 32 4 47 4 16 1 41 14 60 32 29 27 30 30 10 26 -12 -3 -20 -1
-16 4 3 5 16 9 29 9 14 0 42 18 71 45 26 25 43 45 39 45 -5 0 -42 -9 -82 -21
-41 -11 -84 -19 -96 -17 -19 3 100 39 172 53 23 4 55 25 48 31 -1 2 -27 -3
-57 -11 -59 -15 -81 -12 -34 5 90 33 140 56 147 68 5 7 18 21 29 32 12 11 19
22 16 25 -2 3 -52 -1 -109 -9 -165 -23 -214 -28 -209 -22 10 10 283 60 322 59
15 0 29 5 32 13 4 11 -6 13 -47 10 -52 -4 -52 -4 -20 10 17 7 46 15 63 16 25
2 39 12 62 46 l30 43 -39 -5 c-21 -3 -65 -8 -98 -10 -191 -16 -221 -18 -227
-23 -5 -2 -8 0 -8 6 0 16 9 18 130 35 63 9 124 18 135 20 11 3 46 7 77 11 37
5 59 13 63 23 3 8 4 16 3 17 -2 2 -43 -3 -93 -11 -109 -16 -152 -22 -230 -30
-53 -6 -58 -5 -45 8 14 15 264 79 360 94 46 7 70 19 70 35 0 9 -10 8 -80 -5
-23 -5 -92 -14 -150 -21 -85 -10 -127 -16 -144 -21 -11 -4 -16 -2 -12 4 5 9
63 21 181 37 33 4 93 15 115 20 3 1 26 5 53 9 26 5 50 13 54 19 4 6 -2 8 -15
5 -12 -4 -20 -2 -16 3 3 5 11 9 18 9 8 0 19 7 26 15 15 19 7 19 -28 1 -44 -22
-380 -97 -396 -88 -16 9 20 20 232 68 116 26 212 51 212 56 0 10 -15 10 -62
-1 -21 -5 -38 -5 -38 -1 0 5 25 12 56 16 46 5 57 10 65 31 12 33 12 35 -11 28
-11 -3 -31 -8 -45 -11 -14 -2 -37 -6 -51 -9 -14 -2 -63 -7 -108 -10 -81 -6
-81 -6 -41 10 55 21 140 42 200 50 72 9 92 15 92 28 0 7 4 20 8 31 7 16 4 18
-26 11 -19 -3 -42 -9 -51 -11 -10 -3 -18 -3 -18 0 0 2 24 12 54 20 54 16 61
23 71 76 3 16 0 20 -13 16 -50 -14 -145 -36 -155 -36 -31 1 46 29 111 40 44 8
72 18 72 26 0 7 3 20 7 30 5 13 3 15 -8 10 -8 -4 -6 -1 4 7 9 8 17 19 17 26 0
8 -5 8 -17 2 -18 -10 -135 -32 -141 -26 -2 1 30 12 70 24 40 12 78 24 85 26
11 3 37 75 30 82 -2 1 -63 -9 -137 -22 -127 -24 -267 -37 -252 -24 10 9 114
34 182 45 19 3 42 7 50 9 8 2 42 7 75 11 63 6 108 23 70 24 -18 1 -18 2 3 10
12 5 22 14 22 20 0 11 -101 3 -140 -12 -14 -5 -56 -18 -95 -28 -38 -11 -94
-26 -122 -34 -29 -8 -53 -11 -53 -7 0 6 74 34 125 47 96 25 187 45 231 50 29
4 54 10 54 15 0 4 3 14 6 23 8 20 -16 20 -70 1 -26 -9 -35 -10 -27 -2 7 7 30
17 53 22 23 6 43 16 45 22 4 10 -16 8 -107 -12 -52 -11 -105 -18 -100 -12 3 3
17 8 30 10 62 12 176 40 185 45 6 4 -3 10 -20 13 l-30 7 28 1 c25 1 27 4 27
45 l0 44 -40 -9 c-43 -10 -83 -16 -140 -23 -19 -2 -57 -7 -85 -10 -27 -3 20
10 105 29 159 37 183 46 162 67 -9 9 -21 9 -50 0 -22 -7 -48 -11 -58 -11 -11
1 12 9 50 18 39 10 65 20 60 24 -6 3 -46 -3 -89 -14 -82 -20 -132 -25 -105
-10 8 4 44 14 80 20 114 21 122 23 113 31 -4 5 -39 2 -76 -6 -37 -7 -82 -16
-100 -19 -18 -4 -49 -10 -69 -14 -21 -5 -38 -6 -38 -2 0 9 140 47 222 61 50 9
65 15 61 26 -6 17 -8 17 -53 4 -66 -20 -162 -38 -153 -29 5 5 56 18 113 30 58
12 111 28 119 35 14 13 -44 2 -149 -26 -19 -6 -42 -10 -50 -9 -14 0 195 66
230 72 8 2 24 9 35 16 18 11 16 12 -15 6 -42 -7 -130 -22 -184 -31 -21 -3 -47
-7 -58 -9 -10 -2 -16 0 -13 6 4 5 14 9 23 9 9 0 35 6 57 14 39 13 126 25 193
26 17 0 32 5 32 11 0 6 -7 8 -16 5 -8 -3 -12 -2 -9 4 3 6 16 10 29 10 13 0 39
18 64 44 38 40 54 65 34 52 -4 -2 -89 -19 -187 -36 -99 -17 -210 -38 -247 -46
-37 -8 -72 -14 -79 -14 -66 0 234 76 392 100 78 11 149 25 158 30 21 12 3 12
-56 1 -23 -5 -40 -5 -38 -1 2 4 31 12 63 19 39 8 67 20 82 36 13 14 19 25 14
25 -5 0 -2 4 6 10 8 5 12 11 9 14 -7 8 -81 -14 -99 -28 -8 -7 -53 -21 -100
-30 -106 -22 -119 -25 -150 -31 -14 -2 -70 -14 -125 -25 -55 -12 -111 -24
-125 -26 -14 -3 -33 -7 -42 -10 -10 -3 -30 -7 -45 -10 -24 -4 -50 -9 -98 -20
-5 -1 -46 -10 -90 -19 -44 -9 -89 -19 -100 -22 -11 -3 -17 -2 -14 1 5 6 134
44 204 61 11 3 49 14 85 24 158 48 209 60 275 66 39 3 75 11 80 17 7 7 3 9
-13 5 -12 -3 -20 -2 -17 3 3 4 20 11 38 14 36 7 82 47 70 60 -5 4 -2 6 6 4 13
-3 115 111 107 119 -2 2 -52 -8 -111 -22 -59 -14 -119 -27 -134 -30 -14 -2
-95 -20 -179 -38 -84 -19 -149 -31 -145 -27 7 6 74 24 173 46 14 3 86 20 160
38 74 19 152 37 174 40 46 9 91 25 84 31 -5 5 -147 -24 -283 -59 -111 -28 -91
-15 42 29 72 24 157 47 188 50 57 8 85 24 85 51 0 10 -6 13 -17 10 -10 -3 -33
-8 -52 -11 -53 -9 -75 -27 -28 -22 54 5 45 -9 -10 -16 -27 -3 -99 -22 -160
-42 -62 -20 -114 -34 -116 -33 -2 2 -12 -4 -22 -12 -15 -12 -17 -12 -10 -1 6
11 3 13 -19 7 -14 -3 -26 -3 -26 2 0 4 -150 -42 -334 -102 -184 -61 -340 -112
-346 -114 -6 -1 -54 -14 -107 -27 -53 -14 -98 -24 -100 -21 -2 2 36 16 84 30
48 15 180 57 293 93 242 77 436 139 468 148 30 9 24 26 -15 46 -27 14 -41 14
-119 2 -128 -19 -145 -11 -32 16 54 13 95 27 92 32 -3 5 -10 9 -15 9 -5 0 -27
12 -48 26 l-39 26 -104 -17 c-152 -24 -178 -27 -178 -22 0 3 42 15 93 27 115
28 130 36 90 44 -17 4 -34 6 -39 4 -5 -1 -20 4 -33 11 -14 8 -40 11 -62 8 -21
-3 -39 -1 -41 3 -2 5 -16 3 -33 -4z m142 -22 c-3 -3 -12 -4 -19 -1 -8 3 -5 6
6 6 11 1 17 -2 13 -5z m-90 -40 c-3 -3 -81 -25 -174 -49 -93 -23 -180 -45
-193 -49 -19 -5 -21 -4 -9 3 14 9 351 100 373 101 5 0 7 -3 3 -6z m253 -68 c0
-2 -7 -6 -15 -10 -8 -3 -15 -1 -15 4 0 6 7 10 15 10 8 0 15 -2 15 -4z m-41
-10 c-7 -7 -211 -57 -216 -53 -2 3 13 9 34 15 21 6 61 18 88 26 47 14 103 21
94 12z m-241 -21 c-9 -9 -265 -74 -317 -80 -25 -3 -59 -9 -76 -12 -78 -14 18
18 185 62 89 24 221 43 208 30z m257 -36 c-25 -7 -127 -24 -325 -54 -22 -3
-13 2 25 15 33 11 83 22 110 25 28 4 75 10 105 14 30 5 69 9 85 9 l30 0 -30
-9z m-120 -60 c-33 -10 -64 -18 -70 -18 -18 1 89 37 110 37 11 0 -7 -8 -40
-19z m415 7 c0 -2 -7 -6 -15 -10 -8 -3 -15 -1 -15 4 0 6 7 10 15 10 8 0 15 -2
15 -4z m-1000 -25 c0 -4 -28 -15 -62 -24 -35 -8 -72 -19 -83 -23 -19 -8 -19
-7 -2 11 10 10 46 24 80 30 34 7 63 13 65 14 1 0 2 -3 2 -8z m368 3 c-8 -8
-108 -30 -276 -63 -78 -15 -139 -25 -135 -21 9 9 207 56 269 65 22 3 60 9 85
14 58 12 63 12 57 5z m-293 -14 c-3 -5 -12 -10 -18 -10 -7 0 -6 4 3 10 19 12
23 12 15 0z m348 -5 c-34 -14 -121 -34 -183 -40 -31 -4 -30 -3 10 9 57 17 170
44 190 44 8 1 0 -5 -17 -13z m142 -10 c-38 -13 -151 -49 -250 -80 -99 -31
-190 -60 -201 -65 -27 -11 -129 -35 -214 -50 -36 -7 -71 -14 -78 -16 -7 -2
-11 0 -8 5 3 5 36 14 73 21 82 15 328 85 495 141 125 42 211 67 238 67 8 0
-16 -10 -55 -23z m-529 6 c-6 -9 -46 -22 -46 -15 0 3 10 9 23 14 29 11 29 11
23 1z m163 -45 c-2 -2 -24 -6 -49 -9 -30 -4 -38 -3 -25 3 19 8 83 14 74 6z
m561 -47 c-185 -54 -243 -69 -247 -65 -5 4 141 51 257 82 142 38 134 25 -10
-17z m-693 25 c-3 -3 -12 -4 -19 -1 -8 3 -5 6 6 6 11 1 17 -2 13 -5z m791 -19
c-8 -9 -212 -65 -221 -62 -5 1 17 10 50 19 32 10 81 24 108 32 55 16 71 19 63
11z m620 0 c-3 -3 -20 -10 -38 -15 -19 -5 -29 -6 -24 -1 12 12 74 27 62 16z
m-1478 -9 c0 -2 -7 -7 -16 -10 -8 -3 -12 -2 -9 4 6 10 25 14 25 6z m538 -31
c-14 -15 -204 -63 -260 -67 -73 -4 -83 5 -16 17 83 14 94 16 168 33 77 18 116
24 108 17z m821 -9 c-10 -10 -148 -44 -154 -38 -4 4 22 14 57 23 63 16 105 23
97 15z m-570 -40 c-2 -3 -17 -7 -31 -10 -15 -2 -64 -16 -110 -29 -46 -14 -144
-42 -218 -62 -74 -20 -141 -38 -147 -40 -7 -3 -13 -1 -13 4 0 5 17 13 38 19
20 5 82 22 137 37 55 14 107 28 115 30 8 2 53 15 100 29 76 22 141 33 129 22z
m-746 -23 c-7 -2 -19 -2 -25 0 -7 3 -2 5 12 5 14 0 19 -2 13 -5z m195 -23
c-15 -4 -46 -11 -68 -14 -23 -3 -45 -8 -51 -11 -5 -4 -9 -1 -9 5 0 16 32 25
97 27 45 2 52 0 31 -7z m262 6 c0 -2 -7 -7 -16 -10 -8 -3 -12 -2 -9 4 6 10 25
14 25 6z m480 -5 c-8 -5 -49 -14 -90 -21 -41 -6 -84 -14 -95 -17 -11 -3 -17
-2 -13 2 6 7 52 18 133 32 17 3 32 7 34 9 2 2 14 4 25 4 17 -1 18 -2 6 -9z
m-935 -31 c-3 -5 -21 -9 -38 -9 l-32 1 30 8 c43 11 47 11 40 0z m48 3 c-7 -2
-19 -2 -25 0 -7 3 -2 5 12 5 14 0 19 -2 13 -5z m142 -12 c-6 -4 -39 -16 -75
-25 -36 -9 -107 -27 -159 -41 -104 -27 -137 -27 -44 0 48 14 267 72 283 74 2
1 0 -3 -5 -8z m455 -37 c-137 -34 -188 -45 -235 -49 -102 -9 -160 -17 -167
-21 -4 -3 -8 -1 -8 4 0 6 53 19 118 31 253 45 402 63 292 35z m450 -3 c0 -5
-30 -14 -67 -20 -38 -7 -76 -14 -86 -16 -9 -2 -15 0 -12 5 2 4 21 10 42 13 71
11 108 19 112 23 7 6 11 5 11 -5z m-1005 -15 c-34 -15 -102 -29 -93 -20 7 6
97 32 113 32 6 0 -3 -5 -20 -12z m-1602 -7 c-5 -5 -32 -12 -59 -15 -102 -9
-164 -11 -159 -6 7 8 23 10 125 18 47 3 87 8 89 10 10 9 14 3 4 -7z m1365 -5
c-12 -11 -148 -42 -153 -34 -2 4 28 14 68 22 91 19 91 19 85 12z m233 -30
c-25 -8 -47 -12 -49 -9 -5 5 56 23 78 23 8 0 -5 -6 -29 -14z m-141 1 c0 -9
-52 -26 -122 -40 -38 -7 -68 -9 -68 -5 0 4 17 11 38 15 20 5 42 9 47 11 6 2
30 7 55 12 25 6 46 10 48 11 1 1 2 -1 2 -4z m275 -5 c-3 -5 -12 -10 -18 -10
-7 0 -6 4 3 10 19 12 23 12 15 0z m-1575 -16 c-45 -14 -194 -43 -260 -50 -23
-2 -13 3 30 16 36 11 75 23 87 25 12 3 32 9 45 14 13 6 50 10 83 9 l60 0 -45
-14z m2150 12 c0 -2 -7 -7 -16 -10 -8 -3 -12 -2 -9 4 6 10 25 14 25 6z m70
-23 c-19 -9 -53 -17 -75 -19 -32 -3 -28 0 25 15 81 23 95 24 50 4z m-725 -2
c-6 -5 -30 -12 -55 -15 -25 -4 -62 -10 -82 -15 -21 -5 -36 -5 -33 -1 4 6 77
23 145 34 14 2 27 4 30 5 2 0 0 -3 -5 -8z m863 -6 c-6 -6 -143 -45 -158 -45
-5 0 -10 4 -10 9 0 10 25 17 95 27 28 3 52 8 54 10 6 6 25 5 19 -1z m-478 -14
c-8 -5 -31 -12 -50 -16 -19 -3 -66 -15 -103 -27 -38 -11 -70 -18 -73 -16 -6 7
193 64 231 67 6 0 3 -3 -5 -8z m-420 -17 c-69 -18 -132 -31 -190 -39 -25 -3
-53 -8 -62 -11 -10 -3 -18 -1 -18 3 0 5 62 21 138 35 150 28 219 34 132 12z
m714 -13 c5 -8 -23 -17 -179 -60 -173 -47 -168 -37 12 23 136 46 159 51 167
37z m-252 -47 c-165 -54 -193 -62 -262 -70 -30 -3 -58 -8 -62 -11 -5 -2 -8 0
-8 5 0 13 381 116 440 119 14 1 -35 -18 -108 -43z m355 40 c-3 -3 -12 -4 -19
-1 -8 3 -5 6 6 6 11 1 17 -2 13 -5z m-2209 -14 c-26 -5 -52 -11 -57 -15 -6 -3
-11 -4 -11 0 0 11 45 24 80 23 31 0 29 -1 -12 -8z m1407 1 c-14 -13 -118 -39
-185 -46 l-55 -5 45 15 c25 8 59 15 75 16 25 0 51 6 125 28 2 0 0 -3 -5 -8z
m-1166 -5 c-3 -3 -224 -50 -299 -63 -41 -7 -113 -21 -165 -33 -70 -16 -73 -9
-5 11 60 18 208 49 306 63 22 4 60 10 85 15 50 10 84 13 78 7z m1331 -57
c-138 -42 -290 -80 -309 -77 -9 2 27 16 79 32 52 15 112 34 132 42 21 7 57 16
80 19 23 3 44 7 46 10 3 3 19 5 36 4 21 0 1 -10 -64 -30z m576 24 c-8 -8 -116
-43 -116 -37 0 8 47 28 80 35 19 4 37 7 39 8 2 0 1 -2 -3 -6z m-1051 -12 c-13
-12 -88 -25 -82 -14 3 5 20 10 38 11 18 1 35 5 38 7 2 3 7 5 10 5 3 0 1 -4 -4
-9z m917 -16 c-42 -30 -94 -46 -230 -71 -160 -30 -170 -32 -242 -39 -68 -6
-60 -2 60 30 128 35 206 54 335 79 94 19 104 19 77 1z m-1845 -11 c-3 -3 -12
-4 -19 -1 -8 3 -5 6 6 6 11 1 17 -2 13 -5z m128 -3 c-3 -6 -27 -13 -53 -16
-26 -4 -56 -9 -67 -12 -11 -3 -16 -2 -12 3 5 5 36 14 70 20 34 6 63 12 65 13
2 0 1 -3 -3 -8z m781 0 c-3 -5 -17 -11 -32 -14 -29 -5 -20 9 11 16 11 3 21 5
23 6 2 0 1 -3 -2 -8z m303 4 c-9 -8 -202 -66 -211 -63 -5 2 37 18 94 35 104
32 125 37 117 28z m-1554 -35 c-3 -5 -12 -10 -18 -10 -7 0 -6 4 3 10 19 12 23
12 15 0z m583 3 c-10 -2 -26 -2 -35 0 -10 3 -2 5 17 5 19 0 27 -2 18 -5z m716
-3 c-6 -6 -19 -12 -30 -15 -10 -2 -63 -18 -117 -35 -96 -31 -206 -54 -190 -40
9 8 74 28 233 71 122 33 117 32 104 19z m-1427 -6 c-3 -3 -12 -4 -19 -1 -8 3
-5 6 6 6 11 1 17 -2 13 -5z m89 -2 c-3 -5 -38 -14 -78 -22 -40 -7 -81 -14 -91
-16 -10 -2 -15 1 -11 7 3 6 8 8 10 6 3 -3 147 24 172 32 2 1 1 -3 -2 -7z m437
-9 c-7 -2 -19 -2 -25 0 -7 3 -2 5 12 5 14 0 19 -2 13 -5z m-98 -22 c-6 -4 -32
-14 -60 -20 -27 -7 -59 -15 -70 -18 -11 -3 -17 -2 -13 2 4 4 37 15 75 25 82
22 79 22 68 11z m1025 5 c0 -2 -13 -9 -30 -15 -16 -5 -30 -6 -30 -1 0 7 10 11
53 19 4 0 7 -1 7 -3z m-411 -10 c-7 -7 -358 -90 -551 -130 -31 -7 -55 -9 -52
-5 3 5 21 11 42 14 20 4 65 15 99 26 34 10 70 21 80 22 10 2 25 7 33 10 57 21
171 49 223 54 34 3 64 7 66 9 6 5 66 5 60 0z m666 -17 c-55 -18 -169 -39 -205
-38 -33 1 40 22 125 36 49 8 92 16 94 19 2 2 14 4 25 3 12 0 -6 -9 -39 -20z
m545 7 c0 -2 -11 -6 -25 -8 -13 -3 -22 -1 -19 3 5 9 44 13 44 5z m95 -7 c-40
-12 -101 -22 -95 -15 3 3 21 8 40 11 19 3 36 8 39 11 2 2 14 4 25 3 16 -1 13
-3 -9 -10z m-2405 -4 c0 -6 -73 -25 -78 -20 -2 2 11 8 29 14 41 11 49 12 49 6z
m1480 -11 c-25 -8 -52 -13 -60 -11 -8 2 5 8 30 14 65 16 83 13 30 -3z m-704
-3 c-3 -5 -16 -11 -28 -13 -13 -3 -103 -26 -202 -52 -98 -26 -180 -45 -183
-42 -3 3 8 8 23 12 16 3 67 17 114 30 116 33 263 72 273 73 5 1 6 -3 3 -8z
m1199 -8 c-11 -2 -69 -15 -129 -29 -108 -24 -161 -28 -69 -4 26 6 55 14 63 16
8 2 31 8 50 13 19 5 51 9 70 9 19 0 26 -2 15 -5z m-665 -13 c-8 -5 -22 -9 -30
-9 -10 0 -8 3 5 9 27 12 43 12 25 0z m415 -20 c-95 -28 -157 -38 -141 -23 3 4
12 8 19 9 7 2 44 11 83 21 117 31 148 25 39 -7z m530 20 c-11 -5 -29 -8 -40
-8 -16 0 -15 2 5 8 34 11 60 11 35 0z m-1735 -4 c0 -2 -9 -6 -20 -9 -11 -3
-20 -1 -20 4 0 5 9 9 20 9 11 0 20 -2 20 -4z m1607 -2 c-3 -3 -22 -10 -42 -14
-21 -5 -34 -5 -29 0 8 7 28 13 68 19 5 0 7 -2 3 -5z m447 -4 c-6 -6 -19 -12
-30 -14 -11 -2 -37 -11 -57 -19 -39 -17 -272 -66 -346 -73 -24 -2 -48 -7 -52
-10 -5 -3 -9 -1 -9 4 0 5 24 13 53 19 28 6 63 14 77 17 60 14 365 84 370 85 2
1 -1 -4 -6 -9z m-1469 -9 c-14 -13 -128 -47 -221 -66 -42 -9 -81 -18 -86 -21
-4 -3 -8 -1 -8 3 0 10 163 60 253 78 34 7 64 13 67 14 2 0 0 -3 -5 -8z m155 5
c0 -2 -7 -7 -16 -10 -8 -3 -12 -2 -9 4 6 10 25 14 25 6z m330 -2 c0 -7 -117
-37 -172 -44 -75 -8 -75 5 0 21 31 6 70 14 85 18 32 7 87 10 87 5z m-1370 -24
c-8 -5 -24 -9 -35 -9 -16 1 -16 2 5 9 35 11 48 11 30 0z m-65 -9 c-6 -5 -21
-11 -35 -15 -21 -5 -20 -3 5 9 35 17 42 18 30 6z m660 -22 c-86 -28 -305 -87
-340 -92 -16 -3 -41 -8 -55 -11 -14 -3 -38 -8 -55 -10 -76 -12 -156 -27 -222
-42 -40 -9 -77 -14 -83 -12 -16 5 634 167 700 174 30 4 57 8 59 10 2 2 16 4
30 3 17 0 6 -7 -34 -20z m960 6 c-16 -8 -39 -14 -50 -14 -11 0 -2 6 20 14 52
17 68 17 30 0z m-1561 -5 c-5 -5 -25 -12 -44 -15 -35 -5 -35 -5 5 9 51 18 51
18 39 6z m145 6 c-5 -5 -236 -67 -269 -72 -14 -2 -36 -6 -50 -9 -19 -4 -21 -3
-10 4 9 5 68 22 130 37 63 14 129 30 145 34 34 9 60 12 54 6z m1826 -6 c-3 -5
-12 -10 -18 -10 -7 0 -6 4 3 10 19 12 23 12 15 0z m-1135 -10 c-8 -5 -19 -10
-25 -10 -5 0 -3 5 5 10 8 5 20 10 25 10 6 0 3 -5 -5 -10z m469 6 c-11 -9 -69
-15 -64 -6 3 6 20 10 37 10 17 0 29 -2 27 -4z m626 -5 c-8 -8 -92 -28 -195
-47 -14 -3 -33 -7 -42 -10 -41 -12 -175 -34 -208 -34 -38 1 235 69 299 76 31
3 74 9 96 13 57 12 60 12 50 2z m-825 -10 c0 -5 -12 -12 -27 -15 -59 -13 -79
-17 -113 -21 -19 -3 -59 -10 -89 -15 -30 -6 -56 -8 -58 -6 -6 6 168 47 222 53
28 3 52 7 54 9 7 7 11 5 11 -5z m37 3 c-3 -3 -12 -4 -19 -1 -8 3 -5 6 6 6 11
1 17 -2 13 -5z m-1252 -14 c-3 -5 -12 -10 -18 -10 -7 0 -6 4 3 10 19 12 23 12
15 0z m232 4 c-3 -3 -12 -4 -19 -1 -8 3 -5 6 6 6 11 1 17 -2 13 -5z m648 -4
c-3 -5 -12 -10 -18 -10 -7 0 -6 4 3 10 19 12 23 12 15 0z m1400 -10 c-80 -19
-120 -20 -49 -1 66 16 78 19 104 19 14 0 -11 -8 -55 -18z m-1440 0 c-3 -5 -12
-10 -18 -10 -7 0 -6 4 3 10 19 12 23 12 15 0z m-608 -16 c-3 -3 -12 -4 -19 -1
-8 3 -5 6 6 6 11 1 17 -2 13 -5z m543 -4 c0 -5 -5 -10 -11 -10 -5 0 -7 5 -4
10 3 6 8 10 11 10 2 0 4 -4 4 -10z m1750 5 c0 -6 -92 -31 -145 -40 -63 -11
-35 4 47 25 78 20 98 23 98 15z m-1935 -21 c-92 -25 -250 -63 -253 -59 -5 5
124 43 198 59 85 18 119 18 55 0z m1483 11 c-11 -11 -285 -80 -358 -90 -25 -4
-73 -12 -107 -20 -107 -22 -69 -1 50 28 61 15 123 30 137 32 37 7 127 26 195
40 67 15 91 17 83 10z m-623 -14 c-16 -15 -97 -39 -204 -61 -164 -33 -147 -21
34 25 196 51 182 48 170 36z m894 5 c-12 -13 -231 -57 -224 -46 3 4 22 10 42
14 21 4 65 13 98 21 63 14 91 18 84 11z m-2669 -26 c-36 -11 -69 -19 -75 -19
-17 2 99 38 120 38 11 0 -9 -9 -45 -19z m1245 0 c-3 -5 -12 -10 -18 -10 -7 0
-6 4 3 10 19 12 23 12 15 0z m-42 -7 c-7 -2 -19 -2 -25 0 -7 3 -2 5 12 5 14 0
19 -2 13 -5z m303 -14 c-44 -11 -81 -17 -83 -15 -6 5 115 34 142 34 11 0 -16
-9 -59 -19z m-1179 -15 c-3 -3 -12 -4 -19 -1 -8 3 -5 6 6 6 11 1 17 -2 13 -5z
m1453 -2 c0 -4 -8 -8 -17 -9 -10 -1 -49 -9 -88 -17 -38 -8 -72 -13 -74 -11 -6
6 14 12 94 29 87 18 85 18 85 8z m37 2 c-3 -3 -12 -4 -19 -1 -8 3 -5 6 6 6 11
1 17 -2 13 -5z m-1587 -24 c-34 -11 -60 -11 -35 0 11 5 29 8 40 8 16 0 15 -2
-5 -8z m736 -7 c-11 -12 -206 -51 -211 -43 -2 4 1 7 8 8 7 0 23 3 37 7 14 3
57 12 95 19 39 8 72 14 74 15 2 1 1 -2 -3 -6z m-868 -27 c-42 -13 -96 -26
-120 -29 -50 -6 -43 -4 72 27 111 30 147 31 48 2z m1631 20 c-8 -9 -168 -46
-191 -45 -12 1 18 12 67 24 86 22 133 30 124 21z m-1204 -16 c-3 -5 -14 -10
-23 -9 -14 0 -13 2 3 9 27 11 27 11 20 0z m2012 4 c-3 -3 -12 -4 -19 -1 -8 3
-5 6 6 6 11 1 17 -2 13 -5z m-352 -15 c-41 -13 -167 -27 -157 -17 4 4 34 10
67 14 33 3 62 8 64 10 2 2 16 4 30 3 25 -1 25 -1 -4 -10z m-1126 -3 c-5 -4
-188 -43 -238 -50 -18 -2 -30 -1 -25 4 5 4 59 17 119 28 110 20 152 25 144 18z
m161 -21 c-52 -13 -96 -22 -98 -21 -3 4 77 34 103 38 76 14 73 2 -5 -17z m253
18 c-7 -2 -19 -2 -25 0 -7 3 -2 5 12 5 14 0 19 -2 13 -5z m845 2 c-11 -11 -68
-23 -68 -15 0 5 12 11 28 13 15 2 31 5 36 6 5 0 7 -1 4 -4z m-818 -24 c0 -10
-44 -21 -115 -27 -62 -7 -54 4 17 20 70 16 98 18 98 7z m-425 -10 c-11 -10
-93 -27 -84 -18 4 5 32 13 89 26 2 1 0 -3 -5 -8z m895 0 c0 -9 -80 -25 -87
-17 -3 2 15 9 39 14 23 5 44 10 46 11 1 1 2 -3 2 -8z m153 -8 c-7 -2 -19 -2
-25 0 -7 3 -2 5 12 5 14 0 19 -2 13 -5z m127 -3 c-8 -5 -22 -9 -30 -9 -10 0
-8 3 5 9 27 12 43 12 25 0z m107 4 c-3 -3 -12 -4 -19 -1 -8 3 -5 6 6 6 11 1
17 -2 13 -5z m268 -30 c-150 -44 -251 -71 -290 -78 -16 -2 -53 -9 -81 -15 -29
-5 -107 -17 -175 -25 -68 -9 -136 -18 -151 -21 -16 -2 -28 -1 -28 3 0 11 69
38 135 53 33 7 65 14 70 15 6 1 26 5 45 8 19 4 58 11 85 16 58 12 348 66 385
73 14 2 48 5 75 5 46 1 40 -2 -70 -34z m254 32 c-2 -2 -17 -6 -34 -10 -22 -5
-26 -4 -15 4 14 9 59 15 49 6z m-434 -16 c-3 -4 -24 -10 -47 -14 -24 -3 -62
-10 -86 -15 -24 -5 -40 -5 -35 -1 8 8 134 37 160 37 7 0 10 -3 8 -7z m42 4
c-3 -3 -12 -4 -19 -1 -8 3 -5 6 6 6 11 1 17 -2 13 -5z m-1937 -14 c-8 -5 -19
-10 -25 -10 -5 0 -3 5 5 10 8 5 20 10 25 10 6 0 3 -5 -5 -10z m45 -15 c-27 -8
-51 -12 -53 -10 -6 5 58 23 83 23 11 0 -2 -6 -30 -13z m340 0 c-16 -7 -48 -16
-70 -19 -22 -4 -56 -11 -75 -16 -19 -5 -55 -12 -80 -15 -24 -4 -47 -8 -50 -10
-3 -2 -25 -6 -50 -10 -25 -4 -49 -9 -55 -12 -7 -4 -7 -2 0 5 6 5 66 25 135 42
168 44 178 46 230 47 l45 1 -30 -13z m366 5 c-19 -4 -69 -11 -110 -13 l-76 -6
54 12 c66 15 189 21 132 7z m-816 -10 c-3 -5 -14 -10 -23 -9 -14 0 -13 2 3 9
27 11 27 11 20 0z m1654 6 c-6 -6 -179 -66 -179 -62 0 2 -97 -20 -215 -49
-118 -29 -215 -50 -215 -48 0 8 129 63 162 68 18 4 80 18 138 31 58 14 116 28
130 30 14 3 48 11 75 18 47 14 113 21 104 12z m-1719 -26 c-8 -5 -26 -9 -40
-9 -23 1 -23 2 5 9 43 11 52 11 35 0z m870 -10 c-30 -11 -64 -19 -75 -18 -11
0 5 8 35 18 30 10 64 18 75 18 11 0 -5 -8 -35 -18z m568 0 c-37 -10 -85 -21
-105 -24 l-38 -6 35 16 c46 20 97 32 140 32 28 0 21 -3 -32 -18z m807 4 c-42
-16 -146 -38 -230 -50 -28 -3 -54 -9 -59 -12 -5 -3 -6 0 -3 5 5 8 66 24 87 22
3 0 16 4 30 9 14 5 45 13 70 16 25 3 59 10 75 15 49 15 73 11 30 -5z m170 -4
c-28 -12 -37 -12 -30 0 3 6 16 10 28 9 21 0 21 -1 2 -9z m-1710 -21 c-61 -21
-135 -36 -215 -45 -24 -2 -87 -11 -139 -19 -52 -8 -97 -13 -98 -11 -8 8 184
50 322 71 188 28 205 29 130 4z m554 -9 c-31 -16 -76 -26 -269 -56 -19 -3 -39
-9 -45 -12 -5 -3 -4 1 3 10 11 14 48 24 157 43 17 3 62 11 100 19 93 19 96 18
54 -4z m1115 1 c-5 -5 -92 -25 -194 -45 -102 -21 -205 -43 -230 -51 -69 -20
-91 -24 -84 -14 3 5 11 9 17 9 7 0 68 18 137 41 69 22 148 43 175 46 28 3 73
8 100 12 76 10 89 11 79 2z m-2297 -7 c-2 -3 -16 -7 -31 -10 -14 -2 -36 -8
-50 -14 -23 -8 -91 -22 -181 -36 -22 -3 -43 -8 -47 -11 -5 -2 -8 0 -8 5 0 7
98 30 142 33 4 1 38 9 75 18 70 18 109 24 100 15z m173 -14 c-14 -4 -34 -8
-45 -8 -16 0 -15 2 5 8 14 4 34 8 45 8 16 0 15 -2 -5 -8z m-120 -14 c0 -2 -7
-7 -16 -10 -8 -3 -12 -2 -9 4 6 10 25 14 25 6z m43 -3 c-7 -2 -19 -2 -25 0 -7
3 -2 5 12 5 14 0 19 -2 13 -5z m1847 -3 c0 -5 -6 -10 -13 -10 -8 0 -85 -23
-173 -52 -87 -28 -170 -53 -184 -55 -14 -2 -68 -10 -120 -18 -52 -7 -96 -12
-98 -10 -2 1 61 24 140 50 127 42 216 64 328 81 19 3 51 9 70 14 49 11 50 11
50 0z m-1347 -11 c-12 -12 -154 -51 -161 -45 -2 3 16 10 39 16 24 6 62 17 84
25 51 17 51 17 38 4z m487 7 c0 -9 -126 -63 -160 -69 -19 -4 -66 -9 -105 -12
l-70 -5 50 24 c28 13 70 27 95 31 44 6 183 31 188 34 1 0 2 -1 2 -3z m293 -11
c-11 -8 -45 -17 -74 -20 l-54 -4 65 18 c83 24 89 24 63 6z m-549 -5 c-5 -5
-25 -12 -44 -15 -35 -5 -35 -5 5 9 51 18 51 18 39 6z m1341 -9 c-36 -15 -105
-28 -105 -21 0 4 21 12 48 18 59 12 84 13 57 3z m-1487 -7 c-3 -3 -29 -11 -58
-19 -29 -8 -49 -11 -45 -7 3 4 25 12 48 19 50 13 62 15 55 7z m712 -14 c-8 -5
-24 -10 -35 -10 -17 0 -17 2 -5 10 8 5 24 10 35 10 17 0 17 -2 5 -10z m885 -1
c-22 -4 -60 -10 -85 -13 l-45 -5 50 14 c28 7 66 13 85 13 l35 0 -40 -9z
m-1509 -8 c-10 -16 -71 -40 -116 -45 -25 -3 -79 -7 -120 -10 l-75 -6 85 25
c46 13 114 27 150 31 36 3 67 8 69 10 8 7 12 4 7 -5z m530 -2 c-21 -13 -301
-60 -289 -49 16 15 119 39 193 46 41 3 77 8 79 10 2 2 11 4 20 4 13 -1 12 -3
-3 -11z m-1239 -15 c-3 -3 -12 -4 -19 -1 -8 3 -5 6 6 6 11 1 17 -2 13 -5z
m1961 1 c-9 -9 -157 -44 -210 -50 -29 -3 -64 -7 -78 -10 -14 -3 -49 -7 -79
-10 -29 -3 -57 -8 -62 -11 -5 -3 -9 -1 -9 4 0 9 127 37 215 48 22 2 78 11 125
18 107 17 104 17 98 11z m-653 -14 c-6 -6 -24 -12 -42 -15 -18 -4 -44 -11 -58
-16 -38 -15 -43 -12 -15 7 14 10 45 20 70 24 25 3 47 7 50 8 2 0 0 -3 -5 -8z
m-1186 -5 c-2 -2 -20 -6 -39 -10 -25 -4 -31 -3 -20 4 14 9 69 15 59 6z m268
-7 c-22 -13 -52 -21 -96 -24 -51 -5 -23 13 34 20 28 4 52 9 54 11 2 2 9 4 15
4 6 0 3 -5 -7 -11z m763 -16 c-14 -10 -34 -18 -45 -19 -16 -1 -119 -11 -154
-16 -3 0 -10 1 -16 2 -10 2 196 47 225 49 8 1 4 -6 -10 -16z m880 8 c0 -8
-158 -46 -165 -39 -3 2 32 14 78 25 45 12 83 22 85 22 1 1 2 -3 2 -8z m-1485
-21 c-6 -10 -64 -20 -154 -27 -46 -3 -72 -2 -68 4 3 5 30 11 59 12 29 2 73 6
98 10 59 9 70 9 65 1z m42 4 c-3 -3 -12 -4 -19 -1 -8 3 -5 6 6 6 11 1 17 -2
13 -5z m1228 -13 c-12 -10 -134 -36 -141 -29 -2 3 28 12 68 21 40 8 75 15 78
16 2 0 0 -3 -5 -8z m-978 -7 c-3 -3 -12 -4 -19 -1 -8 3 -5 6 6 6 11 1 17 -2
13 -5z m323 -8 c0 -2 -9 -6 -20 -9 -11 -3 -18 -1 -14 4 5 9 34 13 34 5z m347
-2 c-3 -3 -12 -4 -19 -1 -8 3 -5 6 6 6 11 1 17 -2 13 -5z m-1347 -9 c0 -5
-103 -36 -213 -65 -105 -28 -67 -8 53 28 134 39 160 45 160 37z m130 -4 c25
-7 7 -12 -135 -36 -33 -6 -69 -13 -100 -21 -19 -5 -19 -4 -1 7 20 12 172 56
196 57 8 0 26 -3 40 -7z m730 -1 c-19 -5 -54 -13 -78 -19 -60 -16 -113 -22
-307 -36 -52 -4 -65 -2 -52 5 33 21 153 41 272 47 66 3 122 7 124 9 2 2 20 3
40 3 l36 -1 -35 -8z m-1285 -10 c-3 -5 -11 -10 -16 -10 -6 0 -7 5 -4 10 3 6
11 10 16 10 6 0 7 -4 4 -10z m859 1 c-5 -4 -28 -13 -50 -19 -72 -21 -89 -12
-21 12 41 14 84 18 71 7z m886 -1 c0 -5 -12 -10 -27 -9 l-28 1 25 8 c14 4 26
8 28 9 1 1 2 -3 2 -9z m79 6 c-11 -9 -69 -15 -64 -6 3 6 20 10 37 10 17 0 29
-2 27 -4z m-509 -10 c0 -2 -9 -6 -20 -9 -11 -3 -18 -1 -14 4 5 9 34 13 34 5z
m370 -4 c0 -4 -15 -8 -32 -9 -30 -1 -31 -1 -8 7 34 11 40 11 40 2z m-980 -21
c-35 -18 -377 -97 -385 -89 -4 4 152 46 205 54 14 3 63 15 110 29 103 29 116
30 70 6z m826 -20 c-3 -4 -36 -11 -73 -15 -37 -4 -86 -9 -108 -11 -37 -5 -38
-4 -10 5 16 5 61 12 100 16 38 4 72 8 74 10 8 8 22 4 17 -5z m74 5 c0 -2 -13
-6 -30 -8 -16 -3 -30 -1 -30 4 0 4 14 8 30 8 17 0 30 -2 30 -4z m459 0 c-10
-11 -90 -23 -94 -16 -5 8 20 13 79 18 11 1 17 0 15 -2z m-1082 -22 c-8 -8
-172 -33 -212 -33 -60 1 5 13 209 38 5 0 6 -2 3 -5z m1249 -13 c-3 -4 -25 -11
-48 -15 -24 -3 -91 -17 -150 -30 -60 -13 -108 -22 -108 -20 0 16 120 46 240
60 30 3 57 8 59 10 8 7 12 4 7 -5z m-1207 -15 c-2 -2 -26 -7 -54 -10 l-50 -6
50 13 c46 12 65 13 54 3z m891 0 c-19 -7 -57 -16 -85 -19 -129 -16 -197 -27
-208 -33 -8 -5 -9 -4 -2 4 15 15 214 53 315 60 8 0 -1 -5 -20 -12z m470 4 c0
-5 -8 -10 -17 -10 -15 0 -16 2 -3 10 19 12 20 12 20 0z m-1240 -4 c0 -2 -13
-9 -30 -15 -16 -5 -30 -6 -30 -1 0 7 10 11 53 19 4 0 7 -1 7 -3z m-75 -16 c-3
-5 -16 -10 -28 -9 -20 1 -20 2 3 9 14 4 26 8 28 9 2 1 0 -3 -3 -9z m248 3 c-7
-2 -21 -2 -30 0 -10 3 -4 5 12 5 17 0 24 -2 18 -5z m900 -4 c-6 -6 -30 -12
-54 -15 l-44 -4 50 14 c28 7 52 14 55 15 2 0 -1 -4 -7 -10z m-754 -13 c-7 -6
-271 -57 -276 -52 -2 2 9 7 24 11 15 4 37 9 48 12 70 18 214 38 204 29z
m-1079 -10 c0 -2 -9 -6 -20 -9 -11 -3 -18 -1 -14 4 5 9 34 13 34 5z m285 -1
c-27 -11 -96 -22 -89 -15 5 4 18 10 29 13 24 6 74 7 60 2z m438 -2 c-7 -2 -21
-2 -30 0 -10 3 -4 5 12 5 17 0 24 -2 18 -5z m602 -11 c-6 -5 -46 -17 -90 -26
-96 -21 -197 -31 -175 -18 16 10 51 17 135 28 40 5 109 17 135 23 2 1 0 -3 -5
-7z m-1218 -17 c-44 -16 -141 -35 -132 -26 9 8 125 39 150 39 11 0 3 -6 -18
-13z m430 9 c-10 -10 -77 -22 -77 -14 0 8 22 14 69 19 8 0 12 -2 8 -5z m198
-20 c-60 -16 -73 -17 -59 -5 5 5 23 11 39 14 60 8 69 5 20 -9z m839 -5 c-3 -5
-16 -9 -30 -9 -33 0 -24 15 10 16 14 1 23 -2 20 -7z m-935 -14 c-18 -18 -220
-62 -374 -81 -27 -4 -87 -14 -132 -23 -99 -20 -98 -10 2 13 67 15 87 19 165
32 19 3 38 8 41 10 4 2 24 6 45 10 22 3 55 9 74 14 19 5 51 12 70 15 30 6 105
20 120 24 2 1 -3 -6 -11 -14z m-1002 -1 c-3 -3 -12 -4 -19 -1 -8 3 -5 6 6 6
11 1 17 -2 13 -5z m448 -4 c-3 -5 -12 -10 -18 -10 -7 0 -6 4 3 10 19 12 23 12
15 0z m380 0 c-3 -5 -12 -10 -18 -10 -7 0 -6 4 3 10 19 12 23 12 15 0z m1013
-6 c-6 -6 -274 -74 -291 -74 -28 0 13 15 122 44 117 31 181 42 169 30z m-1533
-13 c-6 -6 -32 -13 -60 -16 -27 -4 -60 -8 -73 -10 -12 -2 -20 0 -18 4 3 4 20
8 38 10 26 2 89 13 118 20 2 0 0 -3 -5 -8z m1035 -17 c-57 -14 -97 -18 -89 -9
11 10 115 32 129 27 8 -3 -10 -11 -40 -18z m660 22 c0 -2 -11 -6 -25 -8 -13
-3 -22 -1 -19 3 5 9 44 13 44 5z m-795 -27 c-74 -24 -195 -49 -195 -40 0 9
174 56 218 58 33 1 31 -1 -23 -18z m-775 1 c-8 -5 -19 -10 -25 -10 -5 0 -3 5
5 10 8 5 20 10 25 10 6 0 3 -5 -5 -10z m1055 1 c-11 -10 -154 -51 -176 -50
-10 0 121 43 181 58 2 0 0 -3 -5 -8z m112 3 c-3 -3 -12 -4 -19 -1 -8 3 -5 6 6
6 11 1 17 -2 13 -5z m-1057 -13 c0 -10 14 -7 -239 -60 -107 -23 -199 -40 -203
-39 -10 4 213 59 347 87 50 10 91 19 93 20 1 0 2 -3 2 -8z m1020 5 c0 -2 -9
-6 -20 -9 -11 -3 -18 -1 -14 4 5 9 34 13 34 5z m264 -21 c-40 -13 -159 -30
-138 -19 15 6 144 32 164 32 8 0 -3 -6 -26 -13z m-917 -11 c-3 -3 -12 -4 -19
-1 -8 3 -5 6 6 6 11 1 17 -2 13 -5z m370 0 c-3 -3 -12 -4 -19 -1 -8 3 -5 6 6
6 11 1 17 -2 13 -5z m-1110 -10 c-3 -3 -12 -4 -19 -1 -8 3 -5 6 6 6 11 1 17
-2 13 -5z m628 -13 c-51 -23 -76 -29 -150 -35 -67 -5 -65 -5 55 29 107 29 153
33 95 6z m415 9 c-8 -5 -22 -9 -30 -9 -10 0 -8 3 5 9 27 12 43 12 25 0z
m-1110 -10 c-34 -11 -60 -11 -35 0 11 5 29 8 40 8 16 0 15 -2 -5 -8z m1059 -4
c-5 -4 -221 -55 -259 -61 -59 -10 20 15 135 42 109 26 137 30 124 19z m121 10
c0 -2 -7 -7 -16 -10 -8 -3 -12 -2 -9 4 6 10 25 14 25 6z m655 -16 c-3 -5 -14
-10 -23 -9 -14 0 -13 2 3 9 27 11 27 11 20 0z m-1895 -4 c0 -2 -11 -6 -25 -8
-13 -3 -22 -1 -19 3 5 9 44 13 44 5z m-60 -10 c0 -2 -7 -7 -16 -10 -8 -3 -12
-2 -9 4 6 10 25 14 25 6z m560 -4 c0 -10 -156 -46 -265 -62 -44 -6 -91 -13
-105 -16 -14 -2 -47 -7 -75 -10 -27 -4 -53 -8 -57 -11 -5 -2 -8 0 -8 4 0 5
100 26 223 47 183 32 262 47 285 55 1 1 2 -3 2 -7z m1426 -10 c-5 -8 -74 -23
-131 -28 -11 -1 -54 -7 -95 -13 -41 -7 -95 -14 -120 -17 -25 -3 -52 -7 -60 -9
-8 -2 -40 -7 -70 -10 -30 -4 -74 -10 -97 -15 -24 -4 -40 -4 -38 0 4 7 26 11
120 25 22 3 65 10 95 15 30 5 78 12 105 16 28 3 53 8 56 10 3 1 28 6 55 10 27
3 78 12 114 19 68 13 76 12 66 -3z m-1081 -3 c-25 -11 -278 -69 -283 -65 -7 8
105 44 153 51 28 4 68 10 90 15 54 10 64 10 40 -1z m715 -19 c-14 -4 -34 -8
-45 -8 -16 0 -15 2 5 8 14 4 34 8 45 8 16 0 15 -2 -5 -8z m-1035 -40 c-22 -10
-62 -21 -90 -24 -27 -4 -66 -9 -85 -11 l-35 -5 30 10 c33 12 194 49 210 48 6
0 -8 -8 -30 -18z m786 -1 c-28 -11 -203 -40 -209 -35 -4 5 39 15 158 36 62 11
79 10 51 -1z m579 1 c0 -6 -12 -10 -27 -10 -36 -1 -84 -7 -208 -26 -55 -8
-111 -17 -125 -19 -68 -9 -126 -19 -180 -30 -14 -2 -43 -7 -65 -10 -22 -3 -68
-9 -102 -13 -35 -5 -63 -7 -63 -5 0 9 50 21 110 27 36 4 90 11 120 16 30 5 71
12 90 15 19 3 46 7 60 10 14 2 50 7 80 11 30 3 57 7 60 9 3 2 32 6 65 10 33 4
78 10 100 14 65 11 85 11 85 1z m-1157 -7 c-7 -2 -19 -2 -25 0 -7 3 -2 5 12 5
14 0 19 -2 13 -5z m-553 -11 c0 -4 -16 -9 -37 -10 -20 -2 -41 -6 -47 -9 -7 -4
-8 -2 -1 5 6 6 24 12 40 15 17 2 33 5 38 6 4 0 7 -3 7 -7z m495 -2 c-27 -12
-43 -12 -25 0 8 5 22 9 30 9 10 0 8 -3 -5 -9z m-698 -6 c-3 -3 -12 -4 -19 -1
-8 3 -5 6 6 6 11 1 17 -2 13 -5z m907 -4 c-10 -10 -192 -41 -229 -39 -11 1 36
12 105 24 69 12 127 23 130 24 2 0 0 -3 -6 -9z m-804 -4 c0 -2 -11 -6 -25 -8
-13 -3 -22 -1 -19 3 5 9 44 13 44 5z m140 0 c0 -6 -87 -34 -124 -40 -48 -8
-19 7 47 25 75 20 77 20 77 15z m1540 0 c0 -2 -7 -7 -16 -10 -8 -3 -12 -2 -9
4 6 10 25 14 25 6z m-1230 -26 c-8 -5 -22 -9 -30 -9 -10 0 -8 3 5 9 27 12 43
12 25 0z m787 4 c-3 -3 -12 -4 -19 -1 -8 3 -5 6 6 6 11 1 17 -2 13 -5z m298
-4 c-3 -5 -18 -9 -33 -9 l-27 1 30 8 c17 4 31 8 33 9 2 0 0 -3 -3 -9z m-362
-7 c-7 -2 -19 -2 -25 0 -7 3 -2 5 12 5 14 0 19 -2 13 -5z m280 -10 c-7 -2 -19
-2 -25 0 -7 3 -2 5 12 5 14 0 19 -2 13 -5z m-893 -25 c-77 -17 -100 -19 -100
-9 0 6 3 11 8 12 29 2 98 12 101 15 2 2 9 0 15 -3 6 -4 -5 -11 -24 -15z m67
16 c-3 -3 -12 -4 -19 -1 -8 3 -5 6 6 6 11 1 17 -2 13 -5z m780 0 c-3 -3 -12
-4 -19 -1 -8 3 -5 6 6 6 11 1 17 -2 13 -5z m436 -14 c-9 -9 -83 -21 -83 -14 0
8 43 21 68 21 13 0 20 -3 15 -7z m132 0 c-3 -5 -16 -10 -28 -9 -20 1 -20 2 3
9 14 4 26 8 28 9 2 1 0 -3 -3 -9z m-994 -16 c-18 -8 -41 -13 -50 -11 -10 2 -3
8 19 14 51 16 70 14 31 -3z m759 -4 c-8 -6 -22 -10 -31 -10 -9 0 -54 -11 -100
-25 -94 -28 -157 -41 -403 -85 -268 -48 -251 -39 59 32 50 11 101 22 115 24
14 3 62 14 107 24 46 11 93 22 105 24 13 3 52 11 88 19 66 15 86 13 60 -3z
m-1360 1 c0 -4 -26 -13 -57 -20 -82 -16 -88 -12 -13 9 36 10 66 19 68 19 1 1
2 -3 2 -8z m489 -5 c-3 -3 -89 -20 -204 -41 -84 -15 -243 -45 -265 -50 -14 -3
-43 -8 -65 -11 -22 -3 -53 -9 -68 -14 -17 -6 -25 -6 -22 0 3 5 49 23 103 39
114 34 131 38 197 46 28 3 59 8 70 10 11 2 58 7 105 11 47 3 87 8 89 10 2 2
18 4 34 4 17 0 28 -2 26 -4z m584 -3 c-7 -2 -19 -2 -25 0 -7 3 -2 5 12 5 14 0
19 -2 13 -5z m-383 -13 c-14 -4 -38 -8 -55 -8 -29 1 -29 1 5 8 50 11 83 11 50
0z m299 5 c-3 -2 -52 -11 -110 -19 -57 -8 -120 -17 -139 -20 -19 -3 -84 -12
-143 -21 -60 -9 -111 -15 -113 -12 -5 4 82 23 151 31 66 8 268 35 295 40 41 6
64 6 59 1z m-389 -15 c0 -5 -10 -10 -22 -9 -22 0 -22 1 -3 9 11 5 21 9 23 9 1
1 2 -3 2 -9z m-910 -10 c-8 -5 -19 -10 -25 -10 -5 0 -3 5 5 10 8 5 20 10 25
10 6 0 3 -5 -5 -10z m1330 0 c0 -5 -10 -10 -22 -9 -22 0 -22 1 -3 9 11 5 21 9
23 9 1 1 2 -3 2 -9z m-545 -9 c-11 -10 -189 -42 -180 -32 4 3 45 13 93 22 48
9 89 17 92 18 2 1 0 -3 -5 -8z m440 -15 c-82 -22 -115 -26 -115 -16 0 6 15 10
33 11 17 1 43 5 57 9 14 4 36 8 50 8 14 1 3 -5 -25 -12z m445 -25 c0 -5 -11
-11 -25 -13 -14 -3 -25 -3 -25 -1 0 3 34 19 48 22 1 1 2 -3 2 -8z m73 2 c-7
-2 -19 -2 -25 0 -7 3 -2 5 12 5 14 0 19 -2 13 -5z m92 -29 c-36 -13 -148 -42
-233 -59 -32 -7 -33 -6 -23 13 12 23 21 27 106 41 72 13 97 16 150 18 l40 2
-40 -15z m-1286 1 c-9 -8 -149 -35 -177 -34 -15 1 14 9 63 19 101 19 120 22
114 15z m421 -3 c0 -5 -6 -9 -12 -9 -7 0 -22 -4 -33 -7 -13 -5 -12 -2 5 8 29
17 40 20 40 8z m37 2 c-3 -3 -12 -4 -19 -1 -8 3 -5 6 6 6 11 1 17 -2 13 -5z
m551 -46 c-16 -24 -76 -41 -183 -53 -27 -3 -61 -7 -75 -10 -14 -2 -58 -7 -98
-10 -41 -4 -112 -12 -158 -19 -46 -7 -84 -9 -84 -6 0 6 57 18 160 36 8 2 31 6
50 10 19 3 46 8 60 10 14 3 93 17 175 33 83 16 154 29 159 30 5 1 2 -9 -6 -21z
m-375 -35 c-7 -2 -19 -2 -25 0 -7 3 -2 5 12 5 14 0 19 -2 13 -5z m477 -2 c-19
-11 -130 -41 -130 -35 0 7 51 26 90 34 49 11 57 11 40 1z m-527 -8 c-7 -2 -21
-2 -30 0 -10 3 -4 5 12 5 17 0 24 -2 18 -5z m381 -23 c-5 -5 -43 -12 -84 -15
-87 -6 -80 2 11 14 35 5 68 9 74 10 5 1 5 -3 -1 -9z m-842 -30 c-62 -15 -142
-30 -178 -33 -64 -4 -79 -1 -33 8 13 3 71 14 129 24 58 11 114 22 125 24 11 3
31 5 45 5 14 0 -26 -12 -88 -28z m678 11 c0 -5 -20 -11 -45 -13 -51 -4 -47 9
5 15 19 2 36 5 38 5 1 1 2 -2 2 -7z m40 -19 c0 -5 -69 -16 -152 -26 -84 -10
-171 -20 -193 -23 -22 -3 -38 -3 -35 0 7 7 111 24 208 32 62 6 160 20 170 24
1 0 2 -3 2 -7z m269 -26 c-2 -2 -22 -7 -44 -10 -22 -3 -51 -8 -65 -11 -61 -13
-70 -13 -70 -6 0 5 39 15 88 23 81 13 102 14 91 4z m44 7 c-7 -2 -19 -2 -25 0
-7 3 -2 5 12 5 14 0 19 -2 13 -5z m-1328 -32 c-6 -5 -32 -12 -60 -15 -27 -4
-70 -9 -95 -12 -25 -4 -43 -4 -40 -1 3 3 26 9 52 12 42 6 137 21 148 24 2 0 0
-3 -5 -8z m480 -16 c-33 -8 -94 -16 -135 -19 -70 -5 -67 -4 35 13 129 22 186
25 100 6z m600 6 c-9 -7 -78 -20 -200 -38 -16 -2 -36 -6 -42 -8 -7 -2 -13 0
-13 5 0 6 6 10 13 10 6 1 50 9 97 20 92 20 160 25 145 11z m-25 -51 c0 -5 -10
-12 -22 -14 -43 -9 -103 -19 -123 -21 -11 -1 -51 -7 -90 -13 -38 -6 -92 -14
-120 -17 -27 -4 -60 -8 -72 -10 -13 -2 -23 0 -23 3 0 6 259 55 370 69 19 3 37
7 39 9 9 8 41 4 41 -6z m-643 -6 c-3 -3 -12 -4 -19 -1 -8 3 -5 6 6 6 11 1 17
-2 13 -5z m803 -7 c-3 -3 -25 -8 -50 -11 -25 -3 -61 -9 -80 -12 -19 -4 -32 -4
-29 0 7 7 76 21 129 24 19 2 32 1 30 -1z m-1035 -16 c-11 -11 -145 -34 -152
-27 -3 3 10 7 28 11 39 7 122 22 129 24 2 1 0 -3 -5 -8z m-196 -5 c-5 -5 -114
-33 -159 -41 -19 -3 -66 -12 -105 -20 -74 -16 -102 -19 -93 -10 3 3 14 7 24
10 11 2 57 13 104 24 157 37 243 50 229 37z m1051 0 c0 -3 -4 -8 -10 -11 -5
-3 -10 -1 -10 4 0 6 5 11 10 11 6 0 10 -2 10 -4z m-1020 -24 c0 -4 -10 -9 -22
-9 -18 -2 -20 0 -8 7 18 12 30 13 30 2z m-595 -28 c-44 -7 -98 -16 -120 -20
-22 -3 -44 -8 -50 -11 -6 -4 -6 -1 1 6 11 12 166 39 219 39 17 0 -6 -7 -50
-14z m1555 -8 c0 -7 -98 -25 -170 -32 -36 -3 -69 -8 -74 -11 -5 -4 -6 -1 -3 4
6 10 46 19 137 30 25 3 46 6 47 7 5 4 63 6 63 2z m-1421 -10 c-7 -8 -210 -58
-215 -53 -5 5 172 55 200 56 11 1 17 -1 15 -3z m61 -5 c0 -5 -10 -11 -22 -14
-22 -6 -22 -6 -4 8 23 17 26 18 26 6z m793 2 c-7 -2 -21 -2 -30 0 -10 3 -4 5
12 5 17 0 24 -2 18 -5z m-1248 -12 c-13 -12 -155 -41 -155 -31 0 3 35 13 78
22 42 8 79 16 82 16 2 1 0 -2 -5 -7z m985 0 c-8 -5 -33 -11 -55 -14 -95 -15
-311 -45 -370 -52 -27 -4 -67 -10 -89 -15 -22 -5 -35 -5 -30 0 9 9 142 35 233
46 25 3 47 7 51 9 3 2 34 6 70 10 36 4 92 10 125 15 83 10 82 10 65 1z m216
-40 c-7 -11 -76 -20 -76 -10 0 4 17 10 38 12 20 2 38 4 40 5 2 1 1 -2 -2 -7z
m41 3 c-3 -3 -12 -4 -19 -1 -8 3 -5 6 6 6 11 1 17 -2 13 -5z m328 -3 c-14 -12
-248 -68 -315 -75 -30 -4 -71 -9 -90 -11 -19 -2 -71 -7 -115 -9 -78 -5 -77 -5
75 29 85 19 182 37 215 40 33 4 71 8 85 10 14 2 50 6 80 10 30 4 57 9 59 11 2
2 7 4 10 4 3 0 1 -4 -4 -9z m-455 -11 c0 -5 -12 -10 -27 -9 l-28 1 25 8 c14 4
26 8 28 9 1 1 2 -3 2 -9z m420 -59 c0 -5 -25 -12 -56 -16 -31 -4 -66 -8 -78
-10 -11 -2 -56 -6 -100 -9 -43 -4 -83 -9 -89 -13 -5 -3 -7 -1 -3 5 6 10 59 22
121 27 112 9 191 18 194 21 7 6 11 5 11 -5z m37 3 c-3 -3 -12 -4 -19 -1 -8 3
-5 6 6 6 11 1 17 -2 13 -5z m-471 -43 c-6 -9 -97 -26 -194 -36 -68 -7 -266
-42 -345 -60 -33 -8 -56 -10 -51 -6 14 13 119 38 244 60 112 20 137 23 270 36
36 4 67 9 69 11 8 7 12 4 7 -5z"/>
<path d="M5295 4984 l-30 -14 30 6 c17 3 34 10 40 15 14 13 -5 11 -40 -7z"/>
<path d="M2073 4899 c-21 -7 -40 -45 -30 -56 3 -3 -3 -15 -14 -26 -26 -28 -13
-31 57 -13 101 26 81 9 -40 -35 -45 -16 -53 -34 -63 -138 -5 -64 -5 -64 18
-57 61 16 70 14 27 -7 -53 -24 -67 -52 -20 -37 15 5 95 29 177 55 83 25 156
48 164 51 9 3 -5 23 -45 59 l-59 55 -55 -5 -55 -5 43 16 43 16 -47 51 c-77 84
-78 85 -101 76z m51 -179 c-5 -5 -27 -11 -49 -15 -36 -5 -38 -5 -18 7 24 14
80 21 67 8z m206 -64 c0 -2 -7 -7 -16 -10 -8 -3 -12 -2 -9 4 6 10 25 14 25 6z
m-43 -13 c-9 -8 -150 -53 -154 -49 -4 4 68 31 117 45 46 12 44 12 37 4z"/>
</g>
</svg>
