<?xml version="1.0" standalone="no"?>
<!DOCTYPE svg PUBLIC "-//W3C//DTD SVG 20010904//EN"
 "http://www.w3.org/TR/2001/REC-SVG-20010904/DTD/svg10.dtd">
<svg version="1.0" xmlns="http://www.w3.org/2000/svg"
 width="720.000000pt" height="720.000000pt" viewBox="0 0 720.000000 720.000000"
 preserveAspectRatio="xMidYMid meet">
<metadata>
Created by potrace 1.14, written by Peter Selinger 2001-2017
</metadata>
<g transform="translate(0.000000,720.000000) scale(0.100000,-0.100000)"
fill="#000000" stroke="none">
<path d="M3935 6943 c-4 -32 -8 -65 -10 -73 -1 -8 -5 -35 -8 -60 -6 -47 -25
-176 -32 -220 -2 -14 -9 -61 -15 -105 -16 -116 -20 -138 -26 -157 -3 -12 0
-18 10 -18 8 0 21 -3 29 -6 11 -4 17 3 21 23 7 35 45 282 52 343 2 25 7 52 9
60 2 8 7 38 10 67 3 29 9 72 14 97 14 77 10 101 -20 104 -25 3 -27 0 -34 -55z"/>
<path d="M2482 6837 c-12 -7 -20 -15 -18 -18 3 -3 55 -135 115 -295 60 -159
114 -301 120 -316 9 -25 13 -26 40 -17 27 10 28 12 16 37 -7 15 -43 108 -80
207 -37 99 -78 207 -90 240 -13 33 -33 86 -45 118 -12 31 -24 57 -28 57 -4 -1
-17 -6 -30 -13z"/>
<path d="M5309 6382 c-13 -15 -53 -64 -89 -107 -36 -44 -73 -89 -82 -100 -9
-11 -54 -65 -100 -120 -45 -55 -91 -109 -100 -119 -23 -25 -23 -32 3 -50 20
-14 28 -6 192 192 94 114 174 209 177 212 3 3 20 24 38 46 30 40 31 42 13 58
-23 21 -24 21 -52 -12z"/>
<path d="M1281 5919 c-11 -19 -10 -24 11 -43 22 -20 394 -313 469 -369 l36
-27 18 20 c16 18 17 22 4 34 -21 20 -517 406 -521 406 -2 0 -9 -10 -17 -21z"/>
<path d="M3537 5864 c-1 -1 -42 -4 -92 -8 -185 -13 -357 -51 -516 -115 -79
-31 -171 -74 -204 -94 -198 -123 -261 -171 -386 -296 -145 -146 -233 -269
-327 -456 -113 -226 -168 -456 -177 -740 -5 -156 -34 -268 -117 -465 -133
-314 -471 -891 -747 -1279 -37 -52 -53 -84 -57 -115 -2 -24 -7 -55 -9 -67 -8
-39 -51 -280 -59 -334 -6 -34 -35 -207 -41 -245 -3 -14 -7 -38 -10 -55 -3 -16
-10 -52 -15 -80 -5 -27 -12 -68 -15 -90 -3 -22 -7 -47 -10 -55 -2 -8 -6 -32
-9 -53 -3 -20 -9 -54 -12 -75 -3 -20 -7 -44 -9 -52 -3 -8 -7 -33 -10 -55 -4
-22 -17 -101 -30 -175 -13 -74 -36 -205 -50 -290 -14 -85 -27 -165 -30 -177
-6 -25 0 -24 88 16 24 11 68 30 98 41 30 12 68 28 84 35 43 19 136 59 425 180
381 160 583 245 605 255 11 5 67 29 125 53 58 24 172 73 254 107 l148 63 107
111 c152 158 566 573 631 631 299 270 529 426 650 440 66 8 87 12 175 36 637
167 1123 681 1255 1327 42 209 45 474 7 657 -4 17 -9 42 -11 58 -6 34 -8 41
-46 165 -41 130 -151 351 -233 464 -281 391 -709 651 -1172 714 -42 5 -255 20
-258 18z m182 -99 c98 -9 120 -13 194 -30 572 -133 1016 -535 1201 -1087 34
-103 40 -123 52 -198 3 -19 7 -37 9 -41 10 -16 20 -173 19 -309 -5 -535 -277
-1031 -734 -1337 -140 -94 -326 -177 -486 -217 -88 -23 -89 -22 -90 27 -1 48
-12 279 -19 377 -5 74 -15 250 -20 367 -7 147 -17 298 -19 301 -2 1 -23 -2
-47 -7 -24 -5 -59 -12 -77 -16 -18 -3 -133 -25 -255 -49 -253 -51 -283 -55
-280 -41 0 6 4 57 8 115 3 58 8 123 10 145 2 22 7 81 10 130 3 50 8 106 10
125 2 19 7 80 11 135 3 55 7 116 9 135 2 19 6 82 10 139 7 97 6 103 -11 97
-23 -7 -703 -171 -794 -191 -8 -2 -89 -22 -180 -44 -91 -23 -176 -44 -190 -46
-14 -3 -48 -11 -77 -19 -28 -8 -54 -12 -56 -9 -12 12 16 207 49 331 100 385
341 725 675 949 78 53 85 57 202 115 160 80 387 142 564 154 48 4 89 7 90 8 5
4 146 -2 212 -9z m-543 -1362 c-5 -48 -10 -109 -22 -272 -3 -47 -7 -103 -9
-125 -2 -23 -6 -79 -10 -126 -3 -47 -8 -105 -10 -130 -2 -25 -7 -90 -11 -145
-8 -129 -8 -128 -25 -130 -8 -2 -39 -8 -69 -14 -89 -18 -103 -21 -140 -27 -19
-3 -62 -12 -95 -19 -33 -8 -76 -17 -95 -20 -128 -20 -139 -25 -177 -73 -21
-26 -40 -49 -43 -52 -3 -3 -21 -25 -40 -50 -19 -25 -39 -50 -45 -56 -5 -6 -37
-46 -70 -89 -33 -42 -184 -233 -335 -424 -268 -338 -296 -374 -359 -454 l-30
-39 -6 29 c-29 129 -85 204 -195 260 -48 24 -66 28 -145 28 -55 0 -99 -5 -113
-13 -22 -13 -23 -12 -13 7 6 11 62 98 124 193 328 501 579 987 646 1253 28
108 33 143 32 192 -1 32 3 43 16 47 18 5 345 85 373 91 8 2 62 15 120 29 58
14 191 46 295 71 105 25 217 53 250 61 63 16 85 21 124 29 13 2 26 7 29 10 3
3 16 5 29 5 22 0 23 -3 19 -47z m595 -860 c5 -31 8 -67 24 -393 2 -30 6 -102
9 -160 3 -58 8 -152 11 -210 3 -58 8 -142 10 -187 l5 -83 -25 0 c-131 0 -440
-216 -789 -550 -118 -114 -418 -416 -513 -517 l-58 -63 3 68 c9 175 -130 322
-309 326 l-57 1 31 35 c17 19 56 64 87 100 32 36 108 124 170 195 62 72 127
146 144 165 17 19 65 73 106 120 41 47 79 90 84 96 6 6 30 33 52 60 23 27 52
60 64 74 187 213 305 354 306 368 1 9 4 60 8 112 4 52 9 118 11 145 3 28 7 79
10 114 2 35 6 65 8 67 3 4 128 31 182 40 17 3 116 22 220 43 224 46 205 43
206 34z m-676 -180 c-2 -32 -7 -98 -11 -148 -4 -49 -8 -103 -9 -120 -2 -16 -3
-46 -4 -65 -1 -29 -17 -53 -97 -145 -53 -60 -120 -137 -148 -169 -28 -33 -60
-69 -71 -82 -11 -12 -42 -48 -70 -80 -27 -31 -54 -62 -60 -68 -28 -31 -157
-179 -210 -241 -33 -38 -62 -72 -65 -75 -3 -3 -38 -43 -79 -90 -104 -120 -191
-218 -228 -260 l-32 -35 -1 32 c0 87 -78 207 -166 259 -50 30 -125 51 -171 50
l-32 -1 27 35 c20 27 551 700 615 780 7 8 72 92 146 185 74 94 138 174 142
179 4 5 124 33 266 62 142 28 259 53 261 53 1 1 0 -25 -3 -56z m-1715 -1011
c94 -58 137 -170 110 -291 -7 -31 -15 -62 -18 -69 -3 -8 18 -3 54 13 74 33
139 41 201 26 93 -23 168 -98 191 -191 14 -60 9 -100 -27 -197 l-30 -82 70 50
c86 61 108 70 184 75 175 10 302 -166 229 -316 -25 -51 -77 -106 -108 -116
-12 -4 -39 -14 -61 -24 -22 -10 -272 -116 -555 -235 -283 -119 -536 -226 -562
-237 -41 -17 -52 -19 -77 -8 -67 27 -201 182 -201 232 0 13 7 61 15 108 9 47
18 103 21 124 3 22 7 43 9 46 2 4 7 29 10 56 4 27 8 56 10 64 3 8 7 33 10 55
3 22 9 54 12 70 4 17 7 32 8 35 1 3 5 30 9 60 4 30 9 62 11 70 4 18 55 315 61
351 34 213 73 292 167 341 84 43 177 39 257 -10z m-483 -1598 l52 -42 -110
-47 c-101 -42 -139 -49 -123 -24 5 9 44 230 44 252 0 4 19 -16 43 -45 23 -29
66 -71 94 -94z"/>
<path d="M4099 4401 c-127 -49 -208 -177 -195 -307 26 -258 326 -370 510 -190
68 66 95 133 91 226 -6 116 -73 217 -175 263 -61 28 -169 32 -231 8z m216 -67
c102 -44 158 -180 120 -294 -55 -165 -271 -219 -396 -98 -51 49 -70 90 -76
158 -5 47 -1 67 19 112 42 91 104 136 203 148 48 5 65 2 130 -26z"/>
<path d="M5919 5116 l-287 -122 14 -27 c12 -21 19 -25 32 -18 9 5 105 46 212
91 107 46 218 93 245 105 28 13 60 26 73 30 18 5 21 11 16 28 -3 12 -9 25 -13
29 -3 3 -135 -48 -292 -116z"/>
<path d="M695 4562 c-8 -8 -6 -62 3 -60 6 2 90 -8 157 -18 11 -1 36 -5 55 -8
19 -2 121 -16 225 -31 311 -43 290 -42 293 -8 1 18 -3 30 -10 30 -7 0 -33 3
-58 7 -25 3 -59 8 -76 10 -17 2 -66 9 -110 15 -102 15 -128 19 -189 26 -27 3
-59 8 -70 10 -11 2 -47 7 -80 10 -33 4 -77 10 -97 15 -20 4 -39 5 -43 2z"/>
<path d="M5732 3831 c-1 -17 1 -31 5 -31 5 0 51 -7 103 -15 98 -14 110 -16
245 -36 44 -6 87 -12 95 -14 8 -2 38 -6 65 -9 28 -4 77 -11 109 -16 33 -5 61
-8 62 -7 0 1 4 14 7 28 l7 26 -108 16 c-59 9 -129 19 -157 23 -27 3 -52 8 -55
9 -3 2 -33 6 -65 10 -33 3 -67 8 -75 10 -8 2 -39 7 -69 10 -30 4 -61 8 -70 10
-99 18 -96 18 -99 -14z"/>
<path d="M5311 2749 c-15 -26 -44 -1 281 -246 126 -95 233 -173 238 -173 9 0
35 40 28 44 -4 3 -129 99 -148 113 -102 80 -374 283 -379 283 -3 0 -12 -10
-20 -21z"/>
<path d="M4403 2030 c-27 -11 -33 10 99 -335 65 -170 109 -271 118 -272 8 -2
21 1 29 6 12 8 2 44 -61 208 -42 109 -93 244 -114 300 -22 57 -41 103 -44 102
-3 0 -15 -4 -27 -9z"/>
</g>
</svg>
