<?xml version="1.0" standalone="no"?>
<!DOCTYPE svg PUBLIC "-//W3C//DTD SVG 20010904//EN"
 "http://www.w3.org/TR/2001/REC-SVG-20010904/DTD/svg10.dtd">
<svg version="1.0" xmlns="http://www.w3.org/2000/svg"
 width="1101.000000pt" height="1101.000000pt" viewBox="0 0 1101.000000 1101.000000"
 preserveAspectRatio="xMidYMid meet">
<metadata>
Created by potrace 1.14, written by Peter Selinger 2001-2017
</metadata>
<g transform="translate(0.000000,1101.000000) scale(0.100000,-0.100000)"
fill="#000000" stroke="none">
<path d="M9129 8421 c-13 -14 -54 -64 -89 -111 -36 -47 -67 -87 -70 -90 -3 -3
-17 -21 -30 -40 -13 -19 -27 -37 -30 -40 -4 -3 -33 -40 -64 -82 -52 -69 -65
-81 -86 -80 -14 0 -108 13 -130 17 -14 3 -45 8 -70 10 -55 6 -94 12 -140 20
-19 4 -55 9 -80 11 -25 3 -83 11 -130 18 -47 7 -92 9 -101 5 -8 -4 -35 -6 -60
-3 -61 6 -137 5 -179 -1 -19 -3 -60 -8 -90 -11 -30 -3 -68 -7 -85 -10 -16 -3
-48 -7 -70 -9 -22 -2 -74 -13 -115 -25 -41 -11 -79 -22 -85 -23 -27 -7 -211
-70 -220 -76 -5 -3 -14 -6 -20 -7 -32 -5 -279 -142 -295 -163 -3 -4 -42 -37
-88 -74 l-83 -66 -37 22 c-59 37 -124 64 -229 98 -54 17 -117 37 -139 45 -23
8 -50 16 -60 18 -11 2 -39 10 -64 17 -25 7 -49 14 -55 15 -5 2 -37 10 -70 19
-33 9 -67 19 -75 22 -8 3 -22 7 -30 9 -8 2 -31 6 -50 10 -55 11 -63 13 -105
19 -22 3 -53 8 -70 11 -16 3 -43 7 -60 9 -16 2 -55 6 -85 10 -30 4 -73 8 -95
10 -22 2 -40 5 -40 5 0 7 -69 11 -229 16 -104 3 -192 5 -195 6 -3 0 -8 -1 -11
-2 -3 -1 -95 -3 -205 -6 -242 -5 -251 -6 -390 -35 -27 -6 -61 -12 -75 -15 -82
-14 -185 -39 -255 -62 -44 -14 -82 -27 -85 -27 -3 -1 -25 -7 -50 -14 -25 -7
-49 -14 -55 -15 -5 -1 -19 -7 -30 -13 -16 -8 -44 -17 -85 -28 -10 -2 -86 -27
-100 -32 -8 -3 -20 -7 -26 -8 -6 -2 -45 -19 -85 -38 -41 -19 -105 -47 -144
-62 -64 -25 -132 -60 -145 -75 -11 -12 -90 -58 -155 -91 -38 -18 -72 -37 -75
-41 -3 -4 -22 -14 -43 -23 -20 -8 -37 -20 -37 -27 0 -6 -3 -9 -6 -5 -3 3 -27
-8 -54 -24 -26 -16 -50 -29 -53 -29 -4 0 -40 -20 -80 -44 l-74 -43 -11 32 c-7
17 -12 40 -12 51 0 11 -4 24 -9 30 -6 5 -13 25 -16 44 -3 19 -24 73 -46 120
-22 47 -47 102 -57 122 -9 21 -20 38 -24 38 -5 0 -8 4 -8 10 0 5 -6 18 -14 27
-138 169 -197 233 -215 233 -6 0 -11 4 -11 8 0 4 -12 12 -28 18 -41 16 -81 -5
-137 -73 -27 -32 -53 -63 -59 -68 -6 -6 -15 -18 -21 -27 -5 -9 -29 -44 -53
-78 -23 -33 -42 -65 -42 -69 0 -5 -4 -11 -8 -13 -5 -1 -23 -30 -42 -63 -18
-33 -42 -71 -52 -84 -10 -13 -15 -27 -12 -32 3 -5 1 -9 -4 -9 -7 0 -93 -160
-97 -180 0 -3 -42 -87 -92 -187 -50 -100 -89 -184 -86 -187 3 -3 0 -12 -7 -21
-7 -8 -9 -15 -5 -15 4 0 2 -6 -4 -13 -6 -8 -12 -22 -14 -33 -6 -33 -18 -77
-33 -125 -8 -25 -16 -54 -18 -65 -2 -10 -11 -46 -19 -79 -9 -33 -18 -73 -21
-89 -3 -16 -10 -52 -15 -80 -6 -28 -9 -60 -7 -71 2 -13 -13 -32 -48 -61 -50
-41 -192 -189 -231 -240 -11 -14 -28 -35 -37 -45 -10 -11 -18 -23 -18 -29 0
-6 -4 -10 -8 -10 -5 0 -13 -8 -18 -19 -10 -20 -45 -68 -82 -108 -12 -14 -22
-32 -22 -39 0 -8 -4 -14 -8 -14 -5 0 -26 -33 -47 -72 -21 -40 -46 -85 -56
-100 -11 -14 -19 -29 -19 -32 0 -3 -12 -31 -26 -63 -15 -31 -27 -62 -29 -67
-1 -6 -5 -18 -8 -26 -9 -24 -29 -90 -32 -108 -2 -9 -4 -17 -5 -17 -1 0 -3 -9
-4 -20 -2 -11 -6 -37 -9 -57 -4 -21 -3 -48 2 -61 7 -19 3 -40 -16 -88 -28 -70
-60 -180 -69 -237 -3 -20 -10 -57 -15 -81 -16 -72 -31 -361 -19 -361 3 0 6
-26 7 -58 2 -110 20 -231 54 -372 21 -84 28 -115 32 -135 2 -5 6 -16 10 -22 5
-7 6 -13 3 -13 -2 0 0 -15 5 -32 6 -18 12 -40 14 -49 11 -49 78 -237 115 -319
23 -52 49 -111 57 -130 20 -46 95 -195 120 -241 32 -55 57 -104 58 -109 1 -5
16 -31 72 -117 18 -29 33 -57 33 -63 0 -5 4 -10 9 -10 5 0 14 -13 21 -30 7
-16 15 -30 19 -30 4 0 20 -23 36 -50 16 -28 33 -50 38 -50 4 0 5 -4 2 -10 -3
-5 -2 -10 2 -10 5 0 17 -15 27 -32 16 -27 77 -105 121 -154 5 -6 17 -22 25
-34 8 -13 32 -39 54 -59 21 -20 56 -53 78 -73 l39 -37 -30 -16 c-35 -17 -139
-118 -190 -183 -38 -48 -81 -111 -81 -117 0 -4 -20 -30 -45 -59 -97 -109 -355
-645 -331 -685 4 -5 2 -12 -4 -16 -6 -4 -7 -13 -1 -23 9 -16 -11 -17 -297 -16
-169 0 -318 -2 -332 -6 -13 -3 -32 -20 -42 -36 -17 -29 -17 -30 6 -59 l24 -30
1049 -2 c576 -1 1050 -3 1053 -4 3 -1 10 0 15 1 6 1 629 1 1385 0 6607 -7
6857 -6 6878 13 15 14 19 27 15 50 -10 67 108 62 -1428 62 -767 0 -1395 3
-1395 8 0 4 4 7 9 7 7 0 98 68 127 95 6 6 31 27 54 46 92 73 149 125 243 220
53 55 97 102 97 105 0 3 10 15 23 28 67 69 168 218 230 338 36 70 66 139 66
151 0 1 11 27 24 57 26 58 27 62 27 84 0 11 9 14 34 12 26 -3 50 6 98 35 35
21 67 38 71 39 4 0 13 5 20 10 19 16 83 64 107 80 12 8 28 20 34 25 6 6 36 30
66 55 97 79 244 236 347 370 24 30 46 60 51 65 4 6 29 39 55 75 26 36 52 70
57 77 6 7 10 14 10 17 0 2 17 33 38 67 81 137 204 438 218 534 1 11 3 20 4 20
1 0 4 11 6 25 3 14 9 43 15 65 30 111 32 170 6 216 -23 42 -44 54 -107 58 -25
2 -58 4 -75 6 -16 1 -36 -3 -42 -8 -8 -5 -13 -6 -13 0 0 13 -364 3 -412 -12
-36 -12 -201 -37 -324 -50 l-62 -7 -12 89 c-16 109 -18 125 -25 193 -5 56 -9
84 -21 155 -4 22 -8 49 -9 60 -1 11 -5 27 -8 35 -5 13 -16 69 -18 92 0 4 -5
22 -10 40 -12 39 -49 177 -54 198 -3 14 -61 221 -69 245 -1 6 -9 24 -15 40
-14 32 -22 62 -23 83 -1 6 -6 12 -11 12 -6 0 -8 3 -4 6 3 4 0 19 -9 35 -8 16
-12 29 -8 29 4 0 1 7 -6 15 -7 8 -9 15 -4 15 4 0 3 5 -4 12 -7 7 -12 22 -12
33 0 12 -3 25 -7 29 -4 3 -8 12 -10 19 -5 24 -41 123 -68 187 -28 67 -47 108
-159 343 -36 77 -66 143 -66 147 0 5 -6 15 -12 22 -7 7 -24 36 -38 63 -29 58
-129 211 -157 240 -10 11 -29 36 -43 55 -13 19 -27 37 -30 40 -3 3 -17 21 -31
40 -15 19 -37 46 -49 60 -12 14 -40 47 -63 74 -45 53 -310 321 -368 371 -19
16 -59 52 -90 80 -31 27 -64 57 -75 65 -43 34 -179 145 -184 151 -3 3 -32 25
-65 50 -33 24 -69 52 -80 62 -31 29 -133 97 -144 97 -6 0 -11 5 -11 10 0 6 -6
10 -13 10 -7 0 -22 8 -33 18 -10 10 -27 21 -36 25 -10 3 -18 10 -17 14 1 23
359 258 359 236 0 -3 7 0 15 7 8 7 15 9 15 5 0 -4 6 -3 13 3 10 8 142 52 343
113 17 5 53 12 80 14 27 3 63 7 79 9 17 3 57 7 90 11 33 4 74 9 90 12 35 6 33
6 110 -2 57 -5 69 -7 123 -19 13 -3 33 -16 43 -28 11 -13 48 -54 82 -92 54
-61 81 -90 177 -193 23 -26 25 -39 8 -57 -7 -7 -22 -25 -33 -40 -11 -16 -31
-43 -45 -60 -14 -18 -34 -45 -45 -60 -11 -16 -25 -33 -30 -40 -6 -6 -46 -58
-90 -116 -44 -58 -86 -111 -93 -119 -35 -36 -43 -92 -17 -121 17 -19 69 -21
96 -4 8 5 16 9 19 9 3 1 22 9 43 18 20 9 54 25 75 34 20 9 40 16 45 15 4 -1 7
3 7 8 0 6 9 10 20 10 11 0 20 4 20 10 0 5 3 9 8 8 4 -1 29 8 57 21 27 13 54
24 60 25 5 1 17 6 25 11 8 5 17 10 20 10 3 1 40 18 83 38 42 20 81 37 85 37 6
0 79 -76 167 -174 234 -263 259 -287 287 -284 59 9 78 48 65 138 -2 14 1 31 6
38 5 6 6 12 1 12 -5 0 -10 51 -10 113 -1 61 -3 174 -5 249 -2 76 -1 139 1 141
5 3 62 30 70 32 10 3 57 24 135 60 108 50 129 59 138 57 4 -1 7 3 7 9 0 5 5 7
10 4 6 -3 10 -1 10 4 0 6 3 10 8 9 4 -1 16 3 27 9 11 6 23 12 27 12 4 1 28 10
53 21 80 34 107 78 75 120 -18 24 -21 25 -75 34 -16 3 -46 8 -65 11 -19 4 -51
8 -70 10 -19 1 -66 8 -105 14 -38 6 -83 13 -100 15 -16 2 -50 7 -75 10 -25 4
-54 9 -65 10 -22 3 -19 -23 -29 321 -2 88 -5 162 -6 165 -1 3 -2 8 -2 11 1 4
-7 14 -18 24 -29 26 -62 25 -91 -4z m-769 -531 c0 -5 -2 -10 -4 -10 -3 0 -8 5
-11 10 -3 6 -1 10 4 10 6 0 11 -4 11 -10z m20 -675 c0 -8 -4 -15 -10 -15 -5 0
-7 7 -4 15 4 8 8 15 10 15 2 0 4 -7 4 -15z m-7490 -1909 c0 -3 -4 -8 -10 -11
-5 -3 -10 -1 -10 4 0 6 5 11 10 11 6 0 10 -2 10 -4z"/>
</g>
</svg>
