<?xml version="1.0" standalone="no"?>
<!DOCTYPE svg PUBLIC "-//W3C//DTD SVG 20010904//EN"
 "http://www.w3.org/TR/2001/REC-SVG-20010904/DTD/svg10.dtd">
<svg version="1.0" xmlns="http://www.w3.org/2000/svg"
 width="1800.000000pt" height="1800.000000pt" viewBox="0 0 1800.000000 1800.000000"
 preserveAspectRatio="xMidYMid meet">
<metadata>
Created by potrace 1.14, written by Peter Selinger 2001-2017
</metadata>
<g transform="translate(0.000000,1800.000000) scale(0.100000,-0.100000)"
fill="#000000" stroke="none">
<path d="M12713 13788 c-11 -13 -49 -62 -86 -110 -36 -48 -70 -93 -76 -100 -6
-7 -25 -31 -41 -53 -16 -22 -33 -44 -37 -50 -61 -79 -80 -102 -92 -115 -13
-14 -56 -15 -105 -3 -12 2 -34 6 -51 8 -38 4 -100 13 -145 20 -20 3 -54 7 -75
10 -22 2 -40 5 -40 6 0 0 -14 2 -31 4 -17 1 -42 5 -55 8 -32 8 -140 20 -159
18 -8 0 -78 -3 -155 -5 -77 -2 -160 -6 -185 -9 -25 -3 -61 -8 -80 -11 -19 -2
-57 -7 -85 -11 -145 -19 -484 -137 -610 -213 -80 -47 -233 -163 -274 -206 -12
-12 -25 -9 -100 29 -47 23 -104 48 -126 56 -22 7 -44 17 -49 21 -6 4 -21 8
-33 8 -13 0 -37 7 -53 15 -17 9 -31 15 -32 14 -4 -1 -104 26 -187 51 -35 11
-68 17 -72 14 -5 -3 -9 0 -9 7 0 7 -3 10 -6 6 -3 -3 -31 3 -62 14 -32 11 -58
19 -60 19 -1 -1 -26 3 -55 9 -49 10 -86 16 -167 27 -19 3 -48 7 -65 10 -16 3
-50 7 -75 9 -25 2 -61 6 -80 9 -19 3 -66 8 -105 11 -101 8 -169 16 -177 22 -5
2 -8 0 -8 -6 0 -7 -8 -7 -26 -1 -14 6 -23 7 -21 2 4 -6 -177 -8 -193 -2 -3 1
-9 1 -15 0 -5 -2 -86 -4 -180 -6 -93 -2 -183 -5 -200 -7 -16 -3 -54 -8 -84
-12 -30 -4 -66 -11 -80 -17 -14 -5 -27 -9 -28 -9 -2 1 -4 1 -5 0 -2 0 -12 -2
-23 -4 -127 -19 -183 -34 -425 -111 -113 -36 -212 -68 -220 -71 -8 -4 -17 -7
-20 -8 -25 -6 -66 -23 -126 -51 -39 -18 -107 -47 -152 -64 -44 -17 -101 -47
-126 -66 -26 -20 -90 -58 -142 -85 -115 -60 -135 -71 -154 -85 -8 -7 -59 -35
-114 -64 -54 -28 -112 -60 -130 -71 -36 -22 -52 -24 -54 -6 -2 22 -7 42 -15
55 -5 6 -6 12 -3 12 10 0 -26 108 -63 185 -21 44 -44 95 -52 113 -8 17 -17 32
-21 32 -5 0 -8 9 -8 19 0 11 -3 21 -7 23 -7 3 -62 68 -118 138 -40 50 -124
125 -153 136 -22 9 -37 8 -61 -2 -17 -7 -31 -18 -31 -24 0 -5 -7 -10 -15 -10
-8 0 -15 -6 -15 -13 0 -7 -8 -20 -17 -28 -28 -25 -63 -68 -63 -78 0 -5 -4 -11
-8 -13 -4 -1 -23 -25 -42 -53 -19 -27 -38 -52 -41 -55 -4 -3 -9 -15 -13 -27
-4 -13 -12 -23 -17 -23 -5 0 -9 -4 -9 -9 0 -5 -23 -47 -51 -92 -54 -88 -91
-158 -189 -359 -33 -69 -72 -145 -85 -170 -22 -40 -91 -235 -101 -284 -2 -10
-8 -33 -14 -51 -6 -18 -13 -42 -15 -54 -3 -11 -7 -29 -9 -38 -31 -122 -55
-251 -52 -270 4 -17 -3 -30 -22 -46 -82 -66 -242 -241 -345 -378 -64 -86 -117
-161 -117 -167 0 -5 -3 -12 -7 -14 -9 -4 -48 -71 -64 -110 -6 -16 -15 -28 -20
-28 -5 0 -9 -4 -9 -9 0 -5 -13 -38 -29 -73 -26 -59 -40 -92 -41 -103 0 -3 -7
-23 -16 -46 -8 -23 -12 -44 -9 -47 3 -3 1 -10 -4 -16 -18 -23 -33 -130 -22
-158 8 -22 6 -37 -10 -73 -11 -26 -31 -83 -44 -128 -23 -80 -26 -93 -39 -167
-3 -19 -9 -48 -12 -65 -27 -143 -15 -480 23 -660 2 -11 6 -31 9 -45 2 -14 7
-36 11 -50 4 -14 8 -32 9 -40 1 -8 16 -67 34 -130 18 -63 33 -119 35 -125 1
-5 5 -17 8 -25 3 -8 11 -33 17 -55 6 -22 15 -49 20 -60 4 -11 18 -45 30 -75
29 -70 67 -157 86 -193 8 -16 14 -35 14 -43 0 -8 5 -14 10 -14 6 0 10 -6 10
-14 0 -14 11 -35 91 -183 17 -32 47 -87 66 -123 42 -78 227 -361 292 -445 64
-84 94 -118 188 -212 79 -80 81 -83 60 -94 -27 -15 -111 -81 -116 -92 -1 -4
-11 -16 -20 -25 -22 -21 -123 -155 -182 -242 -24 -36 -51 -73 -60 -82 -19 -22
-49 -76 -107 -193 -24 -49 -49 -93 -56 -97 -6 -4 -8 -8 -3 -8 4 0 -6 -27 -23
-60 -17 -33 -28 -60 -25 -60 3 0 -2 -11 -11 -25 -9 -14 -12 -25 -8 -25 5 0 3
-4 -3 -8 -7 -4 -14 -17 -16 -27 -2 -11 -8 -29 -13 -40 -5 -11 -9 -42 -9 -70
l0 -50 -313 1 c-285 1 -315 -1 -342 -18 -38 -22 -41 -65 -7 -94 22 -19 40 -20
815 -19 519 0 793 -3 796 -10 3 -7 5 -7 5 0 1 8 1070 11 1581 5 41 -1 194 -1
339 0 145 0 266 -1 269 -4 2 -3 13 -1 23 4 12 7 20 7 24 0 5 -8 11 -7 21 1 11
9 14 9 14 -1 0 -8 4 -9 13 -4 6 5 26 8 42 7 75 -5 1046 -3 1055 2 6 3 10 3 10
-2 0 -4 304 -8 675 -8 371 0 675 4 675 8 0 5 5 5 12 1 16 -10 3998 -12 4004
-2 3 5 9 6 13 3 13 -7 29 39 24 68 -10 49 -21 52 -237 52 -110 0 -207 4 -213
8 -7 5 -13 4 -13 0 0 -5 -57 -7 -127 -6 -71 2 -135 3 -143 3 -8 0 -71 0 -140
0 -69 0 -134 0 -145 -1 -24 -1 -242 -1 -270 0 -11 1 -76 0 -145 -2 -69 -1
-133 1 -142 5 -9 5 -19 5 -22 0 -5 -9 -209 -7 -224 2 -6 3 -13 2 -16 -2 -6
-10 -36 -9 -54 2 -6 4 -12 4 -12 -1 0 -10 -182 -9 -199 1 -6 4 -11 4 -11 -1 0
-4 -16 -8 -35 -8 -19 0 -35 4 -35 8 0 5 -6 5 -12 1 -17 -11 -148 -11 -148 -1
0 5 -5 5 -11 2 -17 -11 -59 -13 -59 -3 0 5 -5 6 -12 2 -15 -10 -179 -11 -185
-1 -2 4 -10 4 -16 0 -17 -11 -61 -9 -69 2 -5 7 -8 7 -8 0 0 -8 -80 -11 -120
-5 -3 0 11 10 30 22 19 12 39 28 43 35 4 7 12 13 17 13 5 0 20 10 33 23 64 59
97 87 102 87 14 0 218 198 310 300 62 69 115 137 115 148 0 6 4 12 8 14 11 4
68 91 94 141 11 23 24 44 27 47 11 8 80 175 104 251 20 65 24 70 47 66 24 -5
88 15 100 31 3 4 23 16 45 27 22 11 42 22 45 25 3 3 22 16 42 30 21 14 38 28
38 33 0 4 6 7 14 7 8 0 17 7 20 16 4 9 9 14 12 11 3 -3 13 2 23 11 9 9 34 31
56 47 46 35 207 196 251 251 18 22 44 52 58 67 14 15 26 31 26 35 0 4 16 24
35 46 19 21 35 41 35 45 0 3 14 21 30 40 17 18 30 37 30 41 0 4 11 19 25 34
14 15 25 34 25 42 0 7 4 14 9 14 5 0 13 9 16 20 3 11 12 26 19 32 16 17 86
165 86 183 0 8 5 15 10 15 6 0 10 6 10 14 0 7 10 33 23 57 39 75 77 186 93
274 3 17 12 55 20 85 23 84 29 140 25 211 -2 40 -45 77 -99 85 -63 10 -332 12
-358 2 -12 -3 -25 -4 -28 0 -10 9 -36 11 -36 2 0 -4 -15 -7 -32 -7 -40 1 -108
-8 -215 -28 -84 -16 -128 -22 -225 -30 -50 -5 -58 -3 -59 12 0 10 -2 25 -3 33
-3 14 -13 84 -22 150 -2 14 -5 49 -8 79 -3 30 -8 67 -11 82 -4 15 -8 47 -10
71 -1 24 -5 50 -8 58 -3 8 -11 42 -18 75 -7 33 -14 65 -15 70 -10 37 -47 177
-69 265 -23 91 -73 255 -92 300 -3 8 -7 18 -8 23 -2 4 -4 9 -5 12 -1 3 -3 8
-4 13 -1 4 -5 12 -9 19 -4 6 -8 23 -9 37 -1 14 -6 26 -10 26 -4 0 -8 10 -8 23
0 13 -3 27 -7 31 -4 3 -8 16 -10 29 -2 12 -8 26 -13 31 -6 6 -10 16 -10 24 0
19 -64 178 -109 272 -20 41 -36 77 -37 80 0 5 -82 178 -132 280 -15 30 -29 57
-33 60 -3 3 -13 22 -23 44 -17 37 -142 225 -156 236 -3 3 -26 32 -51 65 -49
66 -69 92 -85 109 -5 6 -38 44 -73 84 -68 79 -271 285 -366 371 -163 148 -145
131 -275 236 -41 32 -80 64 -87 70 -38 32 -49 41 -92 73 -25 20 -52 42 -59 49
-7 7 -17 13 -20 13 -4 0 -18 10 -32 23 -14 12 -38 29 -55 37 -43 21 -135 83
-135 90 0 4 11 13 25 20 14 7 25 17 25 22 0 4 5 8 10 8 6 0 19 8 29 18 45 40
136 102 150 102 6 0 11 5 11 11 0 5 4 8 9 5 5 -4 11 -3 13 2 8 19 194 89 423
158 73 22 154 36 228 38 15 1 27 3 27 6 0 18 311 17 345 -1 6 -3 17 -5 25 -4
8 0 33 -19 55 -44 22 -24 51 -56 65 -72 101 -110 162 -179 185 -206 26 -32 26
-32 6 -45 -12 -7 -21 -18 -21 -25 0 -6 -3 -13 -7 -15 -5 -1 -28 -30 -53 -63
-25 -33 -49 -65 -55 -72 -18 -22 -29 -37 -105 -138 -41 -55 -78 -101 -82 -103
-5 -2 -8 -10 -8 -18 0 -8 -5 -14 -10 -14 -6 0 -17 -15 -25 -32 -11 -28 -11
-37 1 -60 8 -16 18 -29 22 -29 40 -7 68 -1 142 33 83 39 130 60 140 63 3 0 28
11 55 24 179 83 279 128 301 135 17 5 31 -5 73 -51 29 -32 84 -94 124 -138 40
-44 82 -90 94 -102 12 -13 21 -23 19 -23 -2 0 26 -30 61 -67 71 -75 104 -87
140 -53 22 20 22 23 17 268 -3 136 -6 282 -6 325 l-2 79 75 32 c78 34 135 60
234 106 51 24 82 37 105 45 51 18 140 69 152 87 19 30 4 88 -23 88 -10 0 -20
4 -23 8 -2 4 -19 9 -38 10 -18 1 -58 7 -90 12 -31 6 -60 10 -65 9 -4 -1 -12 0
-18 1 -21 5 -124 20 -174 26 -14 1 -46 6 -71 9 -25 4 -49 8 -55 9 -18 2 -22
16 -20 76 0 33 -2 60 -6 60 -4 0 -3 16 1 34 4 19 5 37 2 40 -3 3 -6 66 -7 140
-1 107 -5 140 -19 160 -22 34 -74 36 -103 4z m-763 -528 c0 -5 -2 -10 -4 -10
-3 0 -8 5 -11 10 -3 6 -1 10 4 10 6 0 11 -4 11 -10z m6 -688 c-17 -16 -18 -16
-5 5 7 12 15 20 18 17 3 -2 -3 -12 -13 -22z"/>
</g>
</svg>
